{
customParameters = (
{
name = glyphOrder;
value = (
    ".notdef",
    uni0000,
    uni000D,
    exclam,
    quotedbl,
    numbersign,
    dollar,
    percent,
    ampersand,
    quotesingle,
    parenleft,
    parenright,
    asterisk,
    plus,
    comma,
    hyphen,
    period,
    slash,
    zero,
    one,
    two,
    three,
    four,
    five,
    six,
    seven,
    eight,
    nine,
    colon,
    semicolon,
    less,
    equal,
    greater,
    question,
    at,
    A,
    B,
    C,
    D,
    E,
    F,
    G,
    H,
    I,
    J,
    K,
    L,
    M,
    N,
    O,
    P,
    Q,
    R,
    S,
    T,
    U,
    V,
    W,
    X,
    Y,
    Z,
    bracketleft,
    backslash,
    bracketright,
    asciicircum,
    underscore,
    grave,
    a,
    b,
    c,
    d,
    e,
    f,
    g,
    h,
    i,
    j,
    k,
    l,
    m,
    n,
    o,
    p,
    q,
    r,
    s,
    t,
    u,
    v,
    w,
    x,
    y,
    z,
    braceleft,
    bar,
    braceright,
    asciitilde,
    copyright,
    ordfeminine,
    uni00AD,
    registered,
    uni00B2,
    uni00B3,
    uni00B9,
    ordmasculine,
    Agrave,
    Acircumflex,
    Atilde,
    Adieresis,
    Aring,
    Ccedilla,
    Egrave,
    Eacute,
    Ecircumflex,
    Igrave,
    Icircumflex,
    Ntilde,
    Ograve,
    Ocircumflex,
    Otilde,
    Odieresis,
    Ugrave,
    Ucircumflex,
    Udieresis,
    agrave,
    aacute,
    acircumflex,
    atilde,
    adieresis,
    aring,
    ccedilla,
    egrave,
    eacute,
    ecircumflex,
    edieresis,
    igrave,
    iacute,
    icircumflex,
    idieresis,
    ntilde,
    ograve,
    oacute,
    ocircumflex,
    otilde,
    odieresis,
    ugrave,
    ucircumflex,
    OE,
    oe,
    circumflex,
    tilde,
    uni2010,
    uni2011,
    figuredash,
    endash,
    emdash,
    quoteleft,
    quoteright,
    quotedblleft,
    quotedblright,
    ellipsis,
    guilsinglleft,
    guilsinglright,
    trademark,
    uniE000,
    uniFB01,
    uniFB02,
    uniFB03,
    uniFB04
);}

glyphs = (
{
glyphname = exclam;
lastChange = "2012-08-18 23:24:19 +0200";
layers = (
{
anchors = (
{
name = bottom;
position = "{550, 0}";
},
{
name = top;
position = "{550, 600}";
}
);
layerId = "47E17F20-96EA-4F25-9FDC-A26DCA823BDE";
name = Regular;
paths = (
{
closed = 1;
nodes = (
"650 656 OFFCURVE",
"666 712 OFFCURVE",
"672 757 CURVE SMOOTH",
"679 795 OFFCURVE",
"684 824 OFFCURVE",
"685 843 CURVE SMOOTH",
"690 861 OFFCURVE",
"690 883 OFFCURVE",
"690 895 CURVE",
"685 963 OFFCURVE",
"634 1012 OFFCURVE",
"554 1013 CURVE SMOOTH",
"492 1015 OFFCURVE",
"449 976 OFFCURVE",
"451 906 CURVE",
"451 889 OFFCURVE",
"451 876 OFFCURVE",
"454 854 CURVE",
"456 840 OFFCURVE",
"460 811 OFFCURVE",
"466 770 CURVE",
"466 770 OFFCURVE",
"471 746 OFFCURVE",
"479 706 CURVE",
"487 667 OFFCURVE",
"492 629 OFFCURVE",
"498 605 CURVE SMOOTH",
"511 517 OFFCURVE",
"536 423 OFFCURVE",
"539 332 CURVE",
"558 331 LINE",
"596 423 OFFCURVE",
"621 516 OFFCURVE",
"640 595 CURVE SMOOTH"
);
},
{
closed = 1;
nodes = (
"649 179 OFFCURVE",
"602 233 OFFCURVE",
"546 233 CURVE",
"482 234 OFFCURVE",
"422 188 OFFCURVE",
"412 122 CURVE SMOOTH",
"405 59 OFFCURVE",
"449 9 OFFCURVE",
"511 7 CURVE SMOOTH",
"559 6 OFFCURVE",
"631 51 OFFCURVE",
"640 116 CURVE"
);
}
);
width = 1100;
}
);
unicode = 0021;
},
{
glyphname = percent;
lastChange = "2012-09-05 03:06:15 +0200";
layers = (
{
layerId = "47E17F20-96EA-4F25-9FDC-A26DCA823BDE";
name = Regular;
paths = (
{
closed = 1;
nodes = (
"490 971 LINE",
"476 970 OFFCURVE",
"469 963 OFFCURVE",
"469 950 CURVE SMOOTH",
"469 756 LINE",
"287 756 LINE SMOOTH",
"277 756 OFFCURVE",
"267 754 OFFCURVE",
"258 750 CURVE",
"245 747 OFFCURVE",
"236 742 OFFCURVE",
"231 737 CURVE",
"111 655 LINE SMOOTH",
"104 650 OFFCURVE",
"100 644 OFFCURVE",
"100 637 CURVE SMOOTH",
"100 629 OFFCURVE",
"104 624 OFFCURVE",
"111 621 CURVE",
"231 537 LINE",
"236 534 OFFCURVE",
"245 529 OFFCURVE",
"258 524 CURVE",
"272 521 OFFCURVE",
"282 520 OFFCURVE",
"287 520 CURVE SMOOTH",
"469 520 LINE",
"469 70 LINE",
"470 56 OFFCURVE",
"477 49 OFFCURVE",
"490 49 CURVE SMOOTH",
"535 49 LINE",
"548 50 OFFCURVE",
"555 57 OFFCURVE",
"555 70 CURVE SMOOTH",
"555 950 LINE SMOOTH",
"555 964 OFFCURVE",
"548 971 OFFCURVE",
"535 971 CURVE SMOOTH"
);
},
{
closed = 1;
nodes = (
"951 707 OFFCURVE",
"961 711 OFFCURVE",
"970 716 CURVE",
"982 722 OFFCURVE",
"990 727 OFFCURVE",
"994 733 CURVE",
"1098 835 LINE",
"1106 843 OFFCURVE",
"1108 850 OFFCURVE",
"1108 856 CURVE SMOOTH",
"1106 863 OFFCURVE",
"1102 867 OFFCURVE",
"1092 869 CURVE",
"959 931 LINE",
"954 934 OFFCURVE",
"945 936 OFFCURVE",
"932 939 CURVE",
"918 938 OFFCURVE",
"908 939 OFFCURVE",
"902 937 CURVE SMOOTH",
"598 883 LINE",
"598 644 LINE",
"943 706 LINE SMOOTH"
);
},
{
closed = 1;
nodes = (
"598 596 LINE",
"598 457 LINE",
"773 426 LINE SMOOTH",
"777 424 OFFCURVE",
"782 425 OFFCURVE",
"791 424 CURVE",
"798 426 OFFCURVE",
"803 427 OFFCURVE",
"807 429 CURVE",
"882 464 LINE",
"891 466 OFFCURVE",
"894 469 OFFCURVE",
"894 474 CURVE SMOOTH",
"894 476 OFFCURVE",
"894 480 OFFCURVE",
"887 484 CURVE",
"827 547 LINE",
"825 548 OFFCURVE",
"819 551 OFFCURVE",
"813 554 CURVE",
"808 558 OFFCURVE",
"802 561 OFFCURVE",
"798 562 CURVE SMOOTH"
);
}
);
width = 1208;
}
);
unicode = 0025;
},
{
glyphname = plus;
lastChange = "2012-08-24 22:38:45 +0200";
layers = (
{
layerId = "47E17F20-96EA-4F25-9FDC-A26DCA823BDE";
name = Regular;
paths = (
{
closed = 1;
nodes = (
"372 578 LINE",
"371 796 LINE SMOOTH",
"370 799 OFFCURVE",
"371 802 OFFCURVE",
"370 804 CURVE",
"366 812 OFFCURVE",
"361 812 OFFCURVE",
"356 813 CURVE SMOOTH",
"253 814 LINE SMOOTH",
"248 813 OFFCURVE",
"240 812 OFFCURVE",
"237 803 CURVE",
"237 801 OFFCURVE",
"236 799 OFFCURVE",
"235 797 CURVE SMOOTH",
"235 579 LINE",
"16 577 LINE SMOOTH",
"14 578 OFFCURVE",
"11 578 OFFCURVE",
"10 577 CURVE",
"3 574 OFFCURVE",
"1 569 OFFCURVE",
"0 561 CURVE SMOOTH",
"0 458 LINE SMOOTH",
"0 451 OFFCURVE",
"2 446 OFFCURVE",
"9 443 CURVE",
"13 441 OFFCURVE",
"14 441 OFFCURVE",
"16 443 CURVE SMOOTH",
"235 442 LINE",
"237 223 LINE SMOOTH",
"235 221 OFFCURVE",
"234 219 OFFCURVE",
"237 216 CURVE",
"239 209 OFFCURVE",
"244 206 OFFCURVE",
"250 206 CURVE SMOOTH",
"354 207 LINE SMOOTH",
"362 206 OFFCURVE",
"366 208 OFFCURVE",
"370 214 CURVE",
"372 217 OFFCURVE",
"372 219 OFFCURVE",
"370 222 CURVE SMOOTH",
"372 441 LINE",
"591 442 LINE SMOOTH",
"593 442 OFFCURVE",
"595 442 OFFCURVE",
"598 443 CURVE",
"605 446 OFFCURVE",
"606 450 OFFCURVE",
"609 458 CURVE SMOOTH",
"607 562 LINE SMOOTH",
"606 567 OFFCURVE",
"605 571 OFFCURVE",
"597 576 CURVE",
"594 577 OFFCURVE",
"592 578 OFFCURVE",
"589 578 CURVE SMOOTH"
);
}
);
width = 609;
}
);
unicode = 002B;
},
{
glyphname = hyphen;
lastChange = "2012-08-24 22:39:32 +0200";
layers = (
{
layerId = "47E17F20-96EA-4F25-9FDC-A26DCA823BDE";
name = Regular;
paths = (
{
closed = 1;
nodes = (
"16 577 LINE SMOOTH",
"14 578 OFFCURVE",
"11 578 OFFCURVE",
"10 577 CURVE",
"3 574 OFFCURVE",
"1 569 OFFCURVE",
"0 561 CURVE SMOOTH",
"0 458 LINE SMOOTH",
"0 451 OFFCURVE",
"2 446 OFFCURVE",
"9 443 CURVE",
"13 441 OFFCURVE",
"14 441 OFFCURVE",
"16 443 CURVE SMOOTH",
"591 442 LINE SMOOTH",
"593 442 OFFCURVE",
"595 442 OFFCURVE",
"598 443 CURVE",
"605 446 OFFCURVE",
"606 450 OFFCURVE",
"609 458 CURVE SMOOTH",
"607 562 LINE SMOOTH",
"606 567 OFFCURVE",
"605 571 OFFCURVE",
"597 576 CURVE",
"594 577 OFFCURVE",
"592 578 OFFCURVE",
"589 578 CURVE SMOOTH"
);
}
);
width = 609;
}
);
unicode = 002D;
},
{
glyphname = one;
lastChange = "2012-10-13 02:36:23 +0200";
layers = (
{
layerId = "47E17F20-96EA-4F25-9FDC-A26DCA823BDE";
name = Regular;
paths = (
{
closed = 1;
nodes = (
"318 158 OFFCURVE",
"428 193 OFFCURVE",
"489 250 CURVE",
"375 256 OFFCURVE",
"303 327 OFFCURVE",
"282 420 CURVE",
"305 415 OFFCURVE",
"324 413 OFFCURVE",
"339 413 CURVE SMOOTH",
"348 413 OFFCURVE",
"363 414 OFFCURVE",
"377 416 CURVE",
"276 433 OFFCURVE",
"197 523 OFFCURVE",
"197 613 CURVE SMOOTH",
"197 624 OFFCURVE",
"198 636 OFFCURVE",
"201 652 CURVE",
"204 651 OFFCURVE",
"210 650 OFFCURVE",
"221 647 CURVE",
"240 636 OFFCURVE",
"250 631 OFFCURVE",
"268 630 CURVE",
"277 627 OFFCURVE",
"285 626 OFFCURVE",
"291 626 CURVE",
"228 676 OFFCURVE",
"197 735 OFFCURVE",
"197 801 CURVE SMOOTH",
"197 805 LINE SMOOTH",
"198 862 OFFCURVE",
"208 905 OFFCURVE",
"228 932 CURVE",
"291 850 OFFCURVE",
"366 790 OFFCURVE",
"456 748 CURVE SMOOTH",
"473 741 OFFCURVE",
"487 735 OFFCURVE",
"497 732 CURVE",
"509 727 OFFCURVE",
"529 722 OFFCURVE",
"556 713 CURVE",
"557 713 OFFCURVE",
"560 713 OFFCURVE",
"562 712 CURVE",
"564 712 OFFCURVE",
"564 711 OFFCURVE",
"568 710 CURVE",
"569 710 OFFCURVE",
"570 710 OFFCURVE",
"571 710 CURVE",
"588 708 OFFCURVE",
"600 705 OFFCURVE",
"606 705 CURVE",
"613 704 OFFCURVE",
"628 701 OFFCURVE",
"651 694 CURVE SMOOTH",
"674 688 OFFCURVE",
"691 686 OFFCURVE",
"701 686 CURVE SMOOTH",
"707 686 OFFCURVE",
"708 687 OFFCURVE",
"708 687 CURVE",
"708 701 OFFCURVE",
"705 718 OFFCURVE",
"705 733 CURVE SMOOTH",
"705 822 OFFCURVE",
"746 899 OFFCURVE",
"817 942 CURVE SMOOTH",
"852 966 OFFCURVE",
"890 976 OFFCURVE",
"934 976 CURVE SMOOTH",
"994 976 OFFCURVE",
"1050 954 OFFCURVE",
"1100 905 CURVE",
"1159 910 OFFCURVE",
"1210 935 OFFCURVE",
"1258 972 CURVE",
"1241 911 OFFCURVE",
"1208 864 OFFCURVE",
"1157 830 CURVE",
"1204 837 OFFCURVE",
"1247 850 OFFCURVE",
"1286 863 CURVE",
"1262 814 OFFCURVE",
"1228 782 OFFCURVE",
"1171 748 CURVE",
"1171 733 LINE SMOOTH",
"1171 730 OFFCURVE",
"1171 727 OFFCURVE",
"1171 723 CURVE SMOOTH",
"1170 718 OFFCURVE",
"1170 713 OFFCURVE",
"1170 710 CURVE",
"1171 710 LINE",
"1171 590 OFFCURVE",
"1138 471 OFFCURVE",
"1081 374 CURVE SMOOTH",
"1023 277 OFFCURVE",
"939 193 OFFCURVE",
"842 136 CURVE SMOOTH",
"745 79 OFFCURVE",
"626 44 OFFCURVE",
"506 44 CURVE SMOOTH",
"385 44 OFFCURVE",
"260 87 OFFCURVE",
"154 150 CURVE"
);
}
);
width = 1440;
}
);
unicode = 0031;
},
{
glyphname = two;
lastChange = "2012-10-13 02:37:16 +0200";
layers = (
{
layerId = "47E17F20-96EA-4F25-9FDC-A26DCA823BDE";
name = Regular;
paths = (
{
closed = 1;
nodes = (
"983 808 LINE",
"983 993 LINE",
"834 993 LINE SMOOTH",
"768 993 OFFCURVE",
"720 971 OFFCURVE",
"676 924 CURVE SMOOTH",
"633 876 OFFCURVE",
"611 816 OFFCURVE",
"611 750 CURVE SMOOTH",
"611 659 LINE",
"457 659 LINE",
"457 474 LINE",
"611 474 LINE",
"611 28 LINE",
"795 28 LINE",
"795 474 LINE",
"983 474 LINE",
"983 659 LINE",
"795 659 LINE",
"795 754 LINE SMOOTH",
"795 769 OFFCURVE",
"797 780 OFFCURVE",
"808 797 CURVE SMOOTH",
"817 803 OFFCURVE",
"823 808 OFFCURVE",
"834 808 CURVE SMOOTH"
);
}
);
width = 1440;
}
);
unicode = 0032;
},
{
glyphname = three;
lastChange = "2012-10-13 02:38:36 +0200";
layers = (
{
layerId = "47E17F20-96EA-4F25-9FDC-A26DCA823BDE";
name = Regular;
paths = (
{
closed = 1;
nodes = (
"771 1006 LINE",
"470 1006 LINE SMOOTH",
"398 1006 OFFCURVE",
"336 984 OFFCURVE",
"281 940 CURVE SMOOTH",
"230 894 OFFCURVE",
"203 844 OFFCURVE",
"203 779 CURVE SMOOTH",
"203 725 OFFCURVE",
"219 669 OFFCURVE",
"265 626 CURVE SMOOTH",
"309 580 OFFCURVE",
"365 563 OFFCURVE",
"433 563 CURVE SMOOTH",
"446 563 OFFCURVE",
"455 563 OFFCURVE",
"460 564 CURVE",
"454 541 OFFCURVE",
"447 521 OFFCURVE",
"447 508 CURVE SMOOTH",
"447 472 OFFCURVE",
"460 447 OFFCURVE",
"490 421 CURVE",
"483 421 OFFCURVE",
"475 421 OFFCURVE",
"463 421 CURVE SMOOTH",
"454 421 OFFCURVE",
"445 421 OFFCURVE",
"437 421 CURVE SMOOTH",
"353 421 OFFCURVE",
"279 395 OFFCURVE",
"219 351 CURVE SMOOTH",
"164 305 OFFCURVE",
"133 255 OFFCURVE",
"133 197 CURVE SMOOTH",
"133 146 OFFCURVE",
"164 101 OFFCURVE",
"228 66 CURVE SMOOTH",
"287 29 OFFCURVE",
"359 15 OFFCURVE",
"447 15 CURVE SMOOTH",
"543 15 OFFCURVE",
"617 36 OFFCURVE",
"673 80 CURVE SMOOTH",
"721 125 OFFCURVE",
"750 177 OFFCURVE",
"750 239 CURVE SMOOTH",
"750 283 OFFCURVE",
"730 320 OFFCURVE",
"723 349 CURVE SMOOTH",
"716 382 OFFCURVE",
"683 406 OFFCURVE",
"643 438 CURVE",
"627 448 OFFCURVE",
"607 466 OFFCURVE",
"590 487 CURVE",
"571 508 OFFCURVE",
"563 520 OFFCURVE",
"563 536 CURVE SMOOTH",
"563 548 OFFCURVE",
"568 566 OFFCURVE",
"575 576 CURVE SMOOTH",
"582 592 OFFCURVE",
"595 601 OFFCURVE",
"622 624 CURVE",
"679 664 OFFCURVE",
"714 723 OFFCURVE",
"714 778 CURVE SMOOTH",
"714 818 OFFCURVE",
"710 858 OFFCURVE",
"683 891 CURVE",
"666 927 OFFCURVE",
"639 948 OFFCURVE",
"608 955 CURVE",
"714 955 LINE"
);
},
{
closed = 1;
nodes = (
"673 244 OFFCURVE",
"673 235 OFFCURVE",
"673 223 CURVE SMOOTH",
"673 118 OFFCURVE",
"596 66 OFFCURVE",
"447 66 CURVE SMOOTH",
"389 66 OFFCURVE",
"341 80 OFFCURVE",
"302 113 CURVE SMOOTH",
"264 147 OFFCURVE",
"242 186 OFFCURVE",
"242 230 CURVE SMOOTH",
"242 271 OFFCURVE",
"265 313 OFFCURVE",
"314 345 CURVE SMOOTH",
"355 375 OFFCURVE",
"408 393 OFFCURVE",
"470 388 CURVE",
"494 388 OFFCURVE",
"519 385 OFFCURVE",
"544 380 CURVE",
"551 374 OFFCURVE",
"560 366 OFFCURVE",
"571 361 CURVE SMOOTH",
"584 351 OFFCURVE",
"590 347 OFFCURVE",
"595 345 CURVE",
"597 338 OFFCURVE",
"607 333 OFFCURVE",
"617 330 CURVE SMOOTH",
"627 320 OFFCURVE",
"632 315 OFFCURVE",
"636 313 CURVE",
"639 305 OFFCURVE",
"643 300 OFFCURVE",
"648 297 CURVE",
"654 289 OFFCURVE",
"660 284 OFFCURVE",
"663 275 CURVE SMOOTH",
"666 270 OFFCURVE",
"669 261 OFFCURVE",
"671 256 CURVE"
);
},
{
closed = 1;
nodes = (
"548 606 OFFCURVE",
"519 592 OFFCURVE",
"482 593 CURVE SMOOTH",
"442 594 OFFCURVE",
"404 610 OFFCURVE",
"371 654 CURVE",
"337 690 OFFCURVE",
"318 731 OFFCURVE",
"314 779 CURVE SMOOTH",
"307 840 OFFCURVE",
"314 883 OFFCURVE",
"336 911 CURVE SMOOTH",
"357 949 OFFCURVE",
"389 969 OFFCURVE",
"431 963 CURVE SMOOTH",
"470 962 OFFCURVE",
"505 941 OFFCURVE",
"539 905 CURVE SMOOTH",
"571 867 OFFCURVE",
"591 823 OFFCURVE",
"597 772 CURVE SMOOTH",
"607 725 OFFCURVE",
"596 676 OFFCURVE",
"575 641 CURVE SMOOTH"
);
},
{
closed = 1;
nodes = (
"1086 785 LINE",
"1086 1006 LINE",
"1012 1006 LINE",
"1012 785 LINE",
"793 785 LINE",
"793 715 LINE",
"1012 715 LINE",
"1012 494 LINE",
"1086 494 LINE",
"1086 715 LINE",
"1307 715 LINE",
"1307 785 LINE"
);
}
);
width = 1440;
}
);
unicode = 0033;
},
{
glyphname = less;
lastChange = "2012-09-05 02:56:17 +0200";
layers = (
{
layerId = "47E17F20-96EA-4F25-9FDC-A26DCA823BDE";
name = Regular;
paths = (
{
closed = 1;
nodes = (
"102 528 LINE",
"471 186 LINE",
"471 410 LINE",
"755 410 OFFCURVE",
"907 372 OFFCURVE",
"1024 164 CURVE",
"1011 221 OFFCURVE",
"988 283 OFFCURVE",
"954 350 CURVE SMOOTH",
"843 558 OFFCURVE",
"682 662 OFFCURVE",
"471 662 CURVE",
"471 860 LINE"
);
}
);
width = 1126;
}
);
unicode = 003C;
},
{
glyphname = at;
lastChange = "2012-09-05 03:07:01 +0200";
layers = (
{
layerId = "47E17F20-96EA-4F25-9FDC-A26DCA823BDE";
name = Regular;
paths = (
{
closed = 1;
nodes = (
"813 132 OFFCURVE",
"665 92 OFFCURVE",
"588 92 CURVE SMOOTH",
"354 92 OFFCURVE",
"225 227 OFFCURVE",
"217 480 CURVE SMOOTH",
"207 734 OFFCURVE",
"366 910 OFFCURVE",
"598 910 CURVE SMOOTH",
"813 910 OFFCURVE",
"932 792 OFFCURVE",
"940 578 CURVE SMOOTH",
"946 422 OFFCURVE",
"910 345 OFFCURVE",
"813 345 CURVE SMOOTH",
"774 345 OFFCURVE",
"753 383 OFFCURVE",
"770 480 CURVE",
"799 734 LINE",
"760 754 OFFCURVE",
"701 772 OFFCURVE",
"643 772 CURVE SMOOTH",
"430 772 OFFCURVE",
"316 616 OFFCURVE",
"322 442 CURVE SMOOTH",
"328 305 OFFCURVE",
"390 247 OFFCURVE",
"486 247 CURVE SMOOTH",
"545 247 OFFCURVE",
"601 287 OFFCURVE",
"657 365 CURVE",
"679 287 OFFCURVE",
"719 247 OFFCURVE",
"778 247 CURVE SMOOTH",
"952 247 OFFCURVE",
"1057 365 OFFCURVE",
"1048 598 CURVE SMOOTH",
"1040 832 OFFCURVE",
"848 1006 OFFCURVE",
"596 1006 CURVE SMOOTH",
"286 1006 OFFCURVE",
"79 754 OFFCURVE",
"89 460 CURVE SMOOTH",
"97 209 OFFCURVE",
"301 14 OFFCURVE",
"553 14 CURVE SMOOTH",
"649 14 OFFCURVE",
"755 55 OFFCURVE",
"832 93 CURVE",
"870 160 LINE"
);
},
{
closed = 1;
nodes = (
"635 422 OFFCURVE",
"580 365 OFFCURVE",
"522 365 CURVE SMOOTH",
"482 365 OFFCURVE",
"462 403 OFFCURVE",
"460 460 CURVE SMOOTH",
"456 598 OFFCURVE",
"512 656 OFFCURVE",
"608 656 CURVE SMOOTH",
"627 656 OFFCURVE",
"647 656 OFFCURVE",
"667 656 CURVE",
"651 520 LINE"
);
}
);
width = 1134;
}
);
unicode = 0040;
},
{
glyphname = A;
lastChange = "2012-06-15 01:46:46 +0200";
layers = (
{
anchors = (
{
name = ogonek;
position = "{975, 10}";
},
{
name = top;
position = "{770, 1020}";
}
);
layerId = "47E17F20-96EA-4F25-9FDC-A26DCA823BDE";
name = Regular;
paths = (
{
closed = 1;
nodes = (
"1302 478 LINE",
"1011 478 LINE SMOOTH",
"880 845 LINE",
"762 278 LINE",
"513 971 LINE",
"430 478 LINE",
"139 478 LINE",
"139 422 LINE",
"482 422 LINE",
"533 734 LINE",
"777 50 LINE",
"897 618 LINE",
"968 422 LINE",
"1302 422 LINE"
);
}
);
width = 1440;
}
);
unicode = 0041;
},
{
glyphname = B;
lastChange = "2012-12-04 18:08:59 +0100";
layers = (
{
background = {
paths = (
{
closed = 1;
nodes = (
"608 860 OFFCURVE",
"591 854 OFFCURVE",
"584 834 CURVE SMOOTH",
"363 366 LINE SMOOTH",
"355 348 OFFCURVE",
"363 329 OFFCURVE",
"382 323 CURVE SMOOTH",
"409 308 LINE SMOOTH",
"428 301 OFFCURVE",
"446 306 OFFCURVE",
"453 326 CURVE SMOOTH",
"465 344 LINE",
"684 297 LINE",
"680 273 LINE SMOOTH",
"670 235 OFFCURVE",
"692 203 OFFCURVE",
"730 197 CURVE SMOOTH",
"825 176 LINE SMOOTH",
"861 169 OFFCURVE",
"893 191 OFFCURVE",
"900 226 CURVE SMOOTH",
"906 250 LINE",
"1085 210 LINE SMOOTH",
"1096 207 OFFCURVE",
"1101 195 OFFCURVE",
"1097 189 CURVE SMOOTH",
"1094 184 LINE SMOOTH",
"1093 174 OFFCURVE",
"1096 168 OFFCURVE",
"1104 164 CURVE SMOOTH",
"1152 141 LINE SMOOTH",
"1157 138 OFFCURVE",
"1165 140 OFFCURVE",
"1170 151 CURVE SMOOTH",
"1282 388 LINE SMOOTH",
"1285 393 OFFCURVE",
"1280 402 OFFCURVE",
"1274 406 CURVE SMOOTH",
"1227 427 LINE SMOOTH",
"1217 430 OFFCURVE",
"1210 428 OFFCURVE",
"1206 423 CURVE SMOOTH",
"1202 417 LINE SMOOTH",
"1201 409 OFFCURVE",
"1190 405 OFFCURVE",
"1181 410 CURVE SMOOTH",
"662 775 LINE",
"672 792 LINE SMOOTH",
"678 811 OFFCURVE",
"674 829 OFFCURVE",
"656 839 CURVE SMOOTH",
"626 850 LINE SMOOTH"
);
},
{
closed = 1;
nodes = (
"227 570 OFFCURVE",
"226 570 OFFCURVE",
"225 568 CURVE",
"212 565 OFFCURVE",
"208 558 OFFCURVE",
"205 548 CURVE",
"205 543 OFFCURVE",
"205 540 OFFCURVE",
"208 533 CURVE",
"210 524 OFFCURVE",
"217 519 OFFCURVE",
"225 517 CURVE SMOOTH",
"312 502 LINE",
"315 502 OFFCURVE",
"318 502 OFFCURVE",
"322 503 CURVE SMOOTH",
"331 507 OFFCURVE",
"339 517 OFFCURVE",
"341 527 CURVE",
"344 534 OFFCURVE",
"344 534 OFFCURVE",
"341 538 CURVE",
"336 549 OFFCURVE",
"330 554 OFFCURVE",
"318 556 CURVE SMOOTH",
"229 571 LINE"
);
},
{
closed = 1;
nodes = (
"241 734 OFFCURVE",
"233 718 OFFCURVE",
"238 704 CURVE",
"241 698 OFFCURVE",
"244 695 OFFCURVE",
"253 691 CURVE SMOOTH",
"345 648 LINE",
"355 645 OFFCURVE",
"360 646 OFFCURVE",
"366 647 CURVE",
"373 650 OFFCURVE",
"378 654 OFFCURVE",
"381 662 CURVE SMOOTH",
"385 668 OFFCURVE",
"384 672 OFFCURVE",
"380 682 CURVE",
"378 690 OFFCURVE",
"376 695 OFFCURVE",
"368 697 CURVE SMOOTH",
"276 740 LINE SMOOTH",
"267 743 OFFCURVE",
"263 743 OFFCURVE",
"254 742 CURVE"
);
},
{
closed = 1;
nodes = (
"865 259 LINE",
"859 234 LINE",
"858 222 OFFCURVE",
"843 212 OFFCURVE",
"832 214 CURVE",
"737 232 LINE",
"721 240 OFFCURVE",
"713 246 OFFCURVE",
"717 263 CURVE SMOOTH",
"723 289 LINE"
);
},
{
closed = 1;
nodes = (
"363 879 OFFCURVE",
"362 876 OFFCURVE",
"353 869 CURVE",
"345 858 OFFCURVE",
"345 853 OFFCURVE",
"346 846 CURVE",
"347 842 OFFCURVE",
"350 838 OFFCURVE",
"356 833 CURVE",
"421 777 LINE",
"429 769 OFFCURVE",
"437 768 OFFCURVE",
"446 772 CURVE",
"452 775 OFFCURVE",
"455 776 OFFCURVE",
"456 779 CURVE",
"465 787 OFFCURVE",
"466 795 OFFCURVE",
"463 808 CURVE SMOOTH",
"455 818 LINE",
"393 874 LINE",
"382 882 OFFCURVE",
"376 882 OFFCURVE",
"365 880 CURVE"
);
},
{
closed = 1;
nodes = (
"1134 374 LINE",
"596 631 LINE",
"640 727 LINE"
);
}
);
};
layerId = "47E17F20-96EA-4F25-9FDC-A26DCA823BDE";
name = Regular;
paths = (
{
closed = 1;
nodes = (
"584 860 OFFCURVE",
"567 854 OFFCURVE",
"560 834 CURVE SMOOTH",
"339 366 LINE SMOOTH",
"331 348 OFFCURVE",
"339 329 OFFCURVE",
"358 323 CURVE SMOOTH",
"385 308 LINE SMOOTH",
"404 301 OFFCURVE",
"422 306 OFFCURVE",
"429 326 CURVE SMOOTH",
"441 344 LINE",
"649 299 LINE",
"644 273 LINE SMOOTH",
"634 231 OFFCURVE",
"658 195 OFFCURVE",
"700 189 CURVE SMOOTH",
"805 166 LINE SMOOTH",
"844 159 OFFCURVE",
"879 183 OFFCURVE",
"887 222 CURVE SMOOTH",
"894 248 LINE",
"1061 210 LINE SMOOTH",
"1072 207 OFFCURVE",
"1077 195 OFFCURVE",
"1073 189 CURVE SMOOTH",
"1070 184 LINE SMOOTH",
"1069 174 OFFCURVE",
"1072 168 OFFCURVE",
"1080 164 CURVE SMOOTH",
"1128 141 LINE SMOOTH",
"1133 138 OFFCURVE",
"1141 140 OFFCURVE",
"1146 151 CURVE SMOOTH",
"1258 388 LINE SMOOTH",
"1261 393 OFFCURVE",
"1256 402 OFFCURVE",
"1250 406 CURVE SMOOTH",
"1203 427 LINE SMOOTH",
"1193 430 OFFCURVE",
"1186 428 OFFCURVE",
"1182 423 CURVE SMOOTH",
"1178 417 LINE SMOOTH",
"1177 409 OFFCURVE",
"1166 405 OFFCURVE",
"1157 410 CURVE SMOOTH",
"638 775 LINE",
"648 792 LINE SMOOTH",
"654 811 OFFCURVE",
"650 829 OFFCURVE",
"632 839 CURVE SMOOTH",
"602 850 LINE SMOOTH"
);
},
{
closed = 1;
nodes = (
"203 570 OFFCURVE",
"202 570 OFFCURVE",
"201 568 CURVE",
"188 565 OFFCURVE",
"184 558 OFFCURVE",
"181 548 CURVE",
"181 543 OFFCURVE",
"181 540 OFFCURVE",
"184 533 CURVE",
"186 524 OFFCURVE",
"193 519 OFFCURVE",
"201 517 CURVE SMOOTH",
"288 502 LINE",
"291 502 OFFCURVE",
"294 502 OFFCURVE",
"298 503 CURVE SMOOTH",
"307 507 OFFCURVE",
"315 517 OFFCURVE",
"317 527 CURVE",
"320 534 OFFCURVE",
"320 534 OFFCURVE",
"317 538 CURVE",
"312 549 OFFCURVE",
"306 554 OFFCURVE",
"294 556 CURVE SMOOTH",
"205 571 LINE"
);
},
{
closed = 1;
nodes = (
"217 734 OFFCURVE",
"209 718 OFFCURVE",
"214 704 CURVE",
"217 698 OFFCURVE",
"220 695 OFFCURVE",
"229 691 CURVE SMOOTH",
"321 648 LINE",
"331 645 OFFCURVE",
"336 646 OFFCURVE",
"342 647 CURVE",
"349 650 OFFCURVE",
"354 654 OFFCURVE",
"357 662 CURVE SMOOTH",
"361 668 OFFCURVE",
"360 672 OFFCURVE",
"356 682 CURVE",
"354 690 OFFCURVE",
"352 695 OFFCURVE",
"344 697 CURVE SMOOTH",
"252 740 LINE SMOOTH",
"243 743 OFFCURVE",
"239 743 OFFCURVE",
"230 742 CURVE"
);
},
{
closed = 1;
nodes = (
"849 257 LINE",
"842 230 LINE",
"840 216 OFFCURVE",
"825 206 OFFCURVE",
"812 208 CURVE",
"707 228 LINE",
"689 236 OFFCURVE",
"681 244 OFFCURVE",
"685 261 CURVE SMOOTH",
"692 291 LINE"
);
},
{
closed = 1;
nodes = (
"339 879 OFFCURVE",
"338 876 OFFCURVE",
"329 869 CURVE",
"321 858 OFFCURVE",
"321 853 OFFCURVE",
"322 846 CURVE",
"323 842 OFFCURVE",
"326 838 OFFCURVE",
"332 833 CURVE SMOOTH",
"397 777 LINE",
"405 769 OFFCURVE",
"413 768 OFFCURVE",
"422 772 CURVE",
"428 775 OFFCURVE",
"431 776 OFFCURVE",
"432 779 CURVE",
"441 787 OFFCURVE",
"442 795 OFFCURVE",
"439 808 CURVE SMOOTH",
"431 818 LINE",
"369 874 LINE",
"358 882 OFFCURVE",
"352 882 OFFCURVE",
"341 880 CURVE"
);
},
{
closed = 1;
nodes = (
"1110 374 LINE",
"572 631 LINE",
"616 727 LINE"
);
}
);
width = 1440;
}
);
unicode = 0042;
},
{
glyphname = C;
lastChange = "2012-08-18 23:27:58 +0200";
layers = (
{
anchors = (
{
name = bottom;
position = "{550, 0}";
},
{
name = ogonek;
position = "{780, 10}";
},
{
name = top;
position = "{575, 0}";
}
);
layerId = "47E17F20-96EA-4F25-9FDC-A26DCA823BDE";
name = Regular;
paths = (
{
closed = 1;
nodes = (
"715 787 LINE SMOOTH",
"715 795 OFFCURVE",
"714 799 OFFCURVE",
"708 805 CURVE SMOOTH",
"703 811 OFFCURVE",
"696 813 OFFCURVE",
"687 813 CURVE SMOOTH",
"633 813 LINE SMOOTH",
"624 813 OFFCURVE",
"619 811 OFFCURVE",
"613 805 CURVE SMOOTH",
"608 799 OFFCURVE",
"605 795 OFFCURVE",
"605 787 CURVE SMOOTH",
"605 675 LINE SMOOTH",
"605 667 OFFCURVE",
"608 660 OFFCURVE",
"613 655 CURVE SMOOTH",
"619 650 OFFCURVE",
"624 648 OFFCURVE",
"633 648 CURVE SMOOTH",
"687 648 LINE SMOOTH",
"696 648 OFFCURVE",
"703 650 OFFCURVE",
"708 655 CURVE SMOOTH",
"714 660 OFFCURVE",
"715 667 OFFCURVE",
"715 675 CURVE SMOOTH"
);
},
{
closed = 1;
nodes = (
"881 759 LINE",
"881 703 LINE",
"743 703 LINE",
"743 759 LINE"
);
},
{
closed = 1;
nodes = (
"577 759 LINE",
"577 703 LINE",
"218 703 LINE",
"218 759 LINE"
);
},
{
closed = 1;
nodes = (
"494 565 LINE SMOOTH",
"494 573 OFFCURVE",
"492 579 OFFCURVE",
"487 583 CURVE SMOOTH",
"482 589 OFFCURVE",
"475 593 OFFCURVE",
"465 593 CURVE SMOOTH",
"411 593 LINE SMOOTH",
"403 593 OFFCURVE",
"397 589 OFFCURVE",
"392 583 CURVE SMOOTH",
"386 579 OFFCURVE",
"384 573 OFFCURVE",
"384 565 CURVE SMOOTH",
"384 453 LINE SMOOTH",
"384 445 OFFCURVE",
"386 439 OFFCURVE",
"392 434 CURVE SMOOTH",
"397 428 OFFCURVE",
"403 427 OFFCURVE",
"411 427 CURVE SMOOTH",
"465 427 LINE SMOOTH",
"475 427 OFFCURVE",
"482 428 OFFCURVE",
"487 434 CURVE SMOOTH",
"492 439 OFFCURVE",
"494 445 OFFCURVE",
"494 453 CURVE SMOOTH"
);
},
{
closed = 1;
nodes = (
"881 537 LINE",
"881 482 LINE",
"522 482 LINE",
"522 537 LINE"
);
},
{
closed = 1;
nodes = (
"356 537 LINE",
"356 482 LINE",
"218 482 LINE",
"218 537 LINE"
);
},
{
closed = 1;
nodes = (
"660 344 LINE SMOOTH",
"660 353 OFFCURVE",
"659 357 OFFCURVE",
"653 363 CURVE SMOOTH",
"648 367 OFFCURVE",
"642 372 OFFCURVE",
"633 372 CURVE SMOOTH",
"577 372 LINE SMOOTH",
"569 372 OFFCURVE",
"564 367 OFFCURVE",
"558 363 CURVE SMOOTH",
"552 357 OFFCURVE",
"549 353 OFFCURVE",
"549 344 CURVE SMOOTH",
"549 234 LINE SMOOTH",
"549 225 OFFCURVE",
"552 218 OFFCURVE",
"558 212 CURVE SMOOTH",
"564 207 OFFCURVE",
"569 206 OFFCURVE",
"577 206 CURVE SMOOTH",
"633 206 LINE SMOOTH",
"642 206 OFFCURVE",
"648 207 OFFCURVE",
"653 212 CURVE SMOOTH",
"659 218 OFFCURVE",
"660 225 OFFCURVE",
"660 234 CURVE SMOOTH"
);
},
{
closed = 1;
nodes = (
"881 315 LINE",
"881 261 LINE",
"687 261 LINE",
"687 315 LINE"
);
},
{
closed = 1;
nodes = (
"522 315 LINE",
"522 261 LINE",
"218 261 LINE",
"218 315 LINE"
);
},
{
closed = 1;
nodes = (
"991 855 LINE SMOOTH",
"991 875 OFFCURVE",
"984 891 OFFCURVE",
"973 903 CURVE SMOOTH",
"959 918 OFFCURVE",
"941 925 OFFCURVE",
"923 925 CURVE SMOOTH",
"176 925 LINE SMOOTH",
"158 925 OFFCURVE",
"140 918 OFFCURVE",
"127 903 CURVE",
"115 891 OFFCURVE",
"108 875 OFFCURVE",
"108 855 CURVE SMOOTH",
"108 164 LINE SMOOTH",
"108 146 OFFCURVE",
"115 128 OFFCURVE",
"127 114 CURVE SMOOTH",
"140 103 OFFCURVE",
"158 96 OFFCURVE",
"176 96 CURVE SMOOTH",
"923 96 LINE SMOOTH",
"941 96 OFFCURVE",
"959 103 OFFCURVE",
"973 114 CURVE",
"984 128 OFFCURVE",
"991 146 OFFCURVE",
"991 164 CURVE SMOOTH"
);
},
{
closed = 1;
nodes = (
"176 150 LINE SMOOTH",
"168 150 OFFCURVE",
"162 156 OFFCURVE",
"162 164 CURVE SMOOTH",
"162 855 LINE SMOOTH",
"162 864 OFFCURVE",
"168 869 OFFCURVE",
"176 869 CURVE SMOOTH",
"923 869 LINE SMOOTH",
"931 869 OFFCURVE",
"937 864 OFFCURVE",
"937 855 CURVE SMOOTH",
"937 164 LINE SMOOTH",
"937 156 OFFCURVE",
"931 150 OFFCURVE",
"923 150 CURVE SMOOTH"
);
}
);
width = 1100;
}
);
unicode = 0043;
},
{
glyphname = D;
lastChange = "2012-09-05 10:44:45 +0200";
layers = (
{
anchors = (
{
name = center;
position = "{524, 510}";
},
{
name = top;
position = "{577, 1020}";
}
);
layerId = "47E17F20-96EA-4F25-9FDC-A26DCA823BDE";
name = Regular;
paths = (
{
closed = 1;
nodes = (
"384 611 LINE",
"359 401 LINE",
"565 675 LINE",
"948 821 LINE",
"672 204 LINE",
"462 310 LINE",
"372 166 LINE",
"388 344 LINE",
"843 719 LINE",
"350 365 LINE",
"100 507 LINE"
);
},
{
closed = 1;
nodes = (
"490 955 LINE",
"306 695 LINE",
"443 720 LINE",
"412 536 LINE",
"594 797 LINE",
"459 772 LINE"
);
}
);
width = 1048;
}
);
unicode = 0044;
},
{
glyphname = E;
lastChange = "2012-08-18 23:32:05 +0200";
layers = (
{
anchors = (
{
name = bottom;
position = "{590, 0}";
},
{
name = ogonek;
position = "{1307, 8}";
},
{
name = top;
position = "{590, 0}";
}
);
layerId = "47E17F20-96EA-4F25-9FDC-A26DCA823BDE";
name = Regular;
paths = (
{
closed = 1;
nodes = (
"587 241 LINE",
"317 241 LINE",
"317 509 LINE",
"372 509 LINE",
"372 294 LINE",
"587 294 LINE",
"587 780 LINE",
"802 888 LINE",
"372 888 LINE",
"372 727 LINE",
"317 727 LINE",
"317 942 LINE",
"912 942 LINE",
"912 241 LINE",
"587 78 LINE"
);
},
{
closed = 1;
nodes = (
"263 456 LINE",
"47 619 LINE",
"263 780 LINE",
"263 672 LINE",
"479 672 LINE",
"479 565 LINE",
"263 565 LINE"
);
}
);
width = 1100;
}
);
unicode = 0045;
},
{
glyphname = F;
lastChange = "2012-09-21 13:54:08 +0200";
layers = (
{
layerId = "47E17F20-96EA-4F25-9FDC-A26DCA823BDE";
name = Regular;
paths = (
{
closed = 1;
nodes = (
"238 536 LINE",
"236 545 LINE SMOOTH",
"229 570 OFFCURVE",
"225 593 OFFCURVE",
"226 616 CURVE",
"128 655 LINE",
"132 686 OFFCURVE",
"140 718 OFFCURVE",
"153 753 CURVE",
"258 739 LINE",
"269 761 OFFCURVE",
"284 785 OFFCURVE",
"309 805 CURVE",
"265 901 LINE",
"294 923 OFFCURVE",
"322 941 OFFCURVE",
"350 952 CURVE",
"416 871 LINE",
"425 873 LINE SMOOTH",
"450 880 OFFCURVE",
"472 883 OFFCURVE",
"496 882 CURVE",
"535 982 LINE",
"569 978 OFFCURVE",
"600 970 OFFCURVE",
"631 958 CURVE",
"620 851 LINE",
"644 837 OFFCURVE",
"665 823 OFFCURVE",
"684 801 CURVE",
"783 842 LINE",
"803 819 OFFCURVE",
"822 789 OFFCURVE",
"833 759 CURVE",
"752 694 LINE",
"754 684 LINE SMOOTH",
"760 661 OFFCURVE",
"763 638 OFFCURVE",
"763 614 CURVE",
"861 571 LINE",
"858 539 OFFCURVE",
"850 508 OFFCURVE",
"837 478 CURVE",
"732 489 LINE",
"721 466 OFFCURVE",
"703 444 OFFCURVE",
"682 425 CURVE",
"725 326 LINE",
"697 306 OFFCURVE",
"669 288 OFFCURVE",
"640 277 CURVE",
"575 358 LINE",
"565 356 LINE SMOOTH",
"541 349 OFFCURVE",
"517 346 OFFCURVE",
"494 346 CURVE",
"456 248 LINE",
"423 253 OFFCURVE",
"390 260 OFFCURVE",
"358 272 CURVE",
"371 378 LINE",
"348 389 OFFCURVE",
"328 405 OFFCURVE",
"306 424 CURVE",
"206 385 LINE",
"185 414 OFFCURVE",
"167 440 OFFCURVE",
"156 470 CURVE"
);
},
{
closed = 1;
nodes = (
"387 503 OFFCURVE",
"461 464 OFFCURVE",
"530 482 CURVE SMOOTH",
"604 502 OFFCURVE",
"642 581 OFFCURVE",
"624 649 CURVE SMOOTH",
"622 658 OFFCURVE",
"617 669 OFFCURVE",
"610 684 CURVE SMOOTH",
"579 735 OFFCURVE",
"515 759 OFFCURVE",
"461 744 CURVE SMOOTH",
"452 742 OFFCURVE",
"440 737 OFFCURVE",
"427 730 CURVE SMOOTH",
"375 698 OFFCURVE",
"351 637 OFFCURVE",
"366 580 CURVE SMOOTH"
);
},
{
closed = 1;
nodes = (
"838 225 LINE",
"829 249 OFFCURVE",
"823 264 OFFCURVE",
"820 273 CURVE SMOOTH",
"818 284 OFFCURVE",
"815 300 OFFCURVE",
"813 320 CURVE",
"735 355 LINE",
"739 387 OFFCURVE",
"747 416 OFFCURVE",
"760 447 CURVE",
"844 437 LINE",
"862 467 OFFCURVE",
"886 489 OFFCURVE",
"912 505 CURVE",
"903 592 LINE",
"918 598 OFFCURVE",
"931 602 OFFCURVE",
"947 608 CURVE SMOOTH",
"962 611 OFFCURVE",
"978 615 OFFCURVE",
"994 616 CURVE",
"1027 535 LINE",
"1063 535 OFFCURVE",
"1093 529 OFFCURVE",
"1123 512 CURVE",
"1191 562 LINE",
"1218 544 OFFCURVE",
"1239 521 OFFCURVE",
"1259 495 CURVE",
"1209 426 LINE",
"1215 410 OFFCURVE",
"1224 395 OFFCURVE",
"1227 382 CURVE SMOOTH",
"1230 369 OFFCURVE",
"1233 352 OFFCURVE",
"1233 332 CURVE",
"1312 298 LINE",
"1307 269 OFFCURVE",
"1302 238 OFFCURVE",
"1286 207 CURVE",
"1202 216 LINE",
"1183 188 OFFCURVE",
"1162 166 OFFCURVE",
"1131 148 CURVE",
"1142 63 LINE",
"1128 56 OFFCURVE",
"1112 52 OFFCURVE",
"1098 49 CURVE SMOOTH",
"1081 44 OFFCURVE",
"1067 40 OFFCURVE",
"1052 38 CURVE",
"1016 117 LINE",
"986 119 OFFCURVE",
"954 125 OFFCURVE",
"923 142 CURVE",
"855 91 LINE",
"827 111 OFFCURVE",
"806 135 OFFCURVE",
"788 158 CURVE"
);
},
{
closed = 1;
nodes = (
"918 355 OFFCURVE",
"913 329 OFFCURVE",
"921 300 CURVE SMOOTH",
"935 245 OFFCURVE",
"995 211 OFFCURVE",
"1050 225 CURVE SMOOTH",
"1107 242 OFFCURVE",
"1140 298 OFFCURVE",
"1125 354 CURVE SMOOTH",
"1110 411 OFFCURVE",
"1052 444 OFFCURVE",
"996 429 CURVE SMOOTH",
"969 422 OFFCURVE",
"947 405 OFFCURVE",
"932 379 CURVE SMOOTH"
);
}
);
width = 1440;
}
);
unicode = 0046;
},
{
glyphname = H;
lastChange = "2012-08-20 01:05:33 +0200";
layers = (
{
anchors = (
{
name = center;
position = "{595, 510}";
},
{
name = top;
position = "{595, 1020}";
}
);
layerId = "47E17F20-96EA-4F25-9FDC-A26DCA823BDE";
name = Regular;
paths = (
{
closed = 1;
nodes = (
"1138 956 OFFCURVE",
"1139 944 OFFCURVE",
"1129 931 CURVE",
"630 48 LINE",
"620 35 OFFCURVE",
"609 28 OFFCURVE",
"593 28 CURVE SMOOTH",
"576 28 OFFCURVE",
"565 35 OFFCURVE",
"558 48 CURVE SMOOTH",
"58 931 LINE SMOOTH",
"55 937 OFFCURVE",
"52 944 OFFCURVE",
"52 950 CURVE SMOOTH",
"52 956 OFFCURVE",
"55 963 OFFCURVE",
"58 970 CURVE",
"66 982 OFFCURVE",
"77 988 OFFCURVE",
"91 988 CURVE SMOOTH",
"1097 988 LINE SMOOTH",
"1111 988 OFFCURVE",
"1122 982 OFFCURVE",
"1129 970 CURVE"
);
},
{
closed = 1;
nodes = (
"950 875 OFFCURVE",
"945 880 OFFCURVE",
"933 880 CURVE SMOOTH",
"255 880 LINE SMOOTH",
"243 880 OFFCURVE",
"238 875 OFFCURVE",
"230 867 CURVE",
"228 863 OFFCURVE",
"226 859 OFFCURVE",
"226 855 CURVE SMOOTH",
"226 849 OFFCURVE",
"228 845 OFFCURVE",
"230 843 CURVE SMOOTH",
"569 245 LINE",
"573 236 OFFCURVE",
"582 231 OFFCURVE",
"593 231 CURVE SMOOTH",
"604 231 OFFCURVE",
"612 236 OFFCURVE",
"619 245 CURVE",
"957 843 LINE",
"964 849 OFFCURVE",
"964 859 OFFCURVE",
"957 867 CURVE SMOOTH"
);
}
);
width = 1189;
}
);
unicode = 0048;
},
{
glyphname = I;
lastChange = "2012-06-15 14:24:17 +0200";
layers = (
{
anchors = (
{
name = ogonek;
position = "{1261, 10}";
},
{
name = top;
position = "{700, 1020}";
}
);
layerId = "47E17F20-96EA-4F25-9FDC-A26DCA823BDE";
name = Regular;
paths = (
{
closed = 1;
nodes = (
"750 834 OFFCURVE",
"680 832 OFFCURVE",
"621 805 CURVE SMOOTH",
"619 804 LINE SMOOTH",
"551 771 OFFCURVE",
"506 721 OFFCURVE",
"484 660 CURVE SMOOTH",
"463 597 OFFCURVE",
"465 525 OFFCURVE",
"494 465 CURVE SMOOTH",
"497 454 LINE",
"504 438 OFFCURVE",
"513 427 OFFCURVE",
"521 417 CURVE",
"530 403 OFFCURVE",
"539 393 OFFCURVE",
"552 383 CURVE SMOOTH",
"574 363 OFFCURVE",
"601 345 OFFCURVE",
"631 323 CURVE SMOOTH",
"661 304 OFFCURVE",
"696 272 OFFCURVE",
"724 248 CURVE SMOOTH",
"741 237 OFFCURVE",
"753 223 OFFCURVE",
"766 216 CURVE SMOOTH",
"786 200 OFFCURVE",
"801 193 OFFCURVE",
"819 196 CURVE",
"820 196 OFFCURVE",
"824 199 OFFCURVE",
"832 202 CURVE SMOOTH",
"855 211 LINE",
"872 220 LINE",
"891 227 LINE",
"902 233 LINE",
"920 242 LINE SMOOTH",
"925 244 OFFCURVE",
"933 247 OFFCURVE",
"938 254 CURVE SMOOTH",
"944 255 OFFCURVE",
"947 256 OFFCURVE",
"950 257 CURVE",
"958 262 OFFCURVE",
"961 268 OFFCURVE",
"964 279 CURVE SMOOTH",
"972 298 OFFCURVE",
"973 325 OFFCURVE",
"973 364 CURVE SMOOTH",
"973 382 OFFCURVE",
"971 404 OFFCURVE",
"973 431 CURVE",
"973 452 OFFCURVE",
"976 465 OFFCURVE",
"977 483 CURVE SMOOTH",
"979 504 OFFCURVE",
"980 519 OFFCURVE",
"981 534 CURVE SMOOTH",
"983 569 OFFCURVE",
"981 599 OFFCURVE",
"975 627 CURVE SMOOTH",
"971 644 OFFCURVE",
"968 654 OFFCURVE",
"963 669 CURVE",
"962 673 LINE SMOOTH",
"960 675 OFFCURVE",
"960 677 OFFCURVE",
"959 679 CURVE SMOOTH",
"927 745 OFFCURVE",
"874 788 OFFCURVE",
"813 812 CURVE SMOOTH"
);
},
{
closed = 1;
nodes = (
"377 324 LINE SMOOTH",
"366 316 OFFCURVE",
"360 298 OFFCURVE",
"373 284 CURVE SMOOTH",
"380 269 OFFCURVE",
"397 267 OFFCURVE",
"412 272 CURVE",
"412 275 LINE SMOOTH",
"414 279 OFFCURVE",
"415 279 OFFCURVE",
"416 281 CURVE",
"479 350 LINE",
"482 352 OFFCURVE",
"484 354 OFFCURVE",
"482 361 CURVE SMOOTH",
"481 370 OFFCURVE",
"472 384 OFFCURVE",
"458 373 CURVE SMOOTH"
);
},
{
closed = 1;
nodes = (
"296 707 OFFCURVE",
"276 698 OFFCURVE",
"269 681 CURVE SMOOTH",
"265 662 OFFCURVE",
"269 644 OFFCURVE",
"288 638 CURVE SMOOTH",
"291 636 LINE",
"296 637 LINE",
"402 622 LINE SMOOTH",
"409 621 OFFCURVE",
"413 621 OFFCURVE",
"417 625 CURVE SMOOTH",
"427 634 OFFCURVE",
"429 652 OFFCURVE",
"412 659 CURVE SMOOTH",
"314 699 LINE SMOOTH"
);
},
{
closed = 1;
nodes = (
"943 120 LINE",
"871 87 LINE SMOOTH",
"854 80 OFFCURVE",
"847 59 OFFCURVE",
"853 43 CURVE SMOOTH",
"860 31 OFFCURVE",
"879 23 OFFCURVE",
"899 30 CURVE SMOOTH",
"963 63 LINE",
"966 63 LINE",
"1024 91 LINE SMOOTH",
"1044 98 OFFCURVE",
"1053 118 OFFCURVE",
"1046 134 CURVE SMOOTH",
"1038 150 OFFCURVE",
"1016 157 OFFCURVE",
"998 146 CURVE SMOOTH"
);
},
{
closed = 1;
nodes = (
"903 206 LINE",
"831 174 LINE SMOOTH",
"812 163 OFFCURVE",
"808 144 OFFCURVE",
"813 128 CURVE SMOOTH",
"819 113 OFFCURVE",
"838 109 OFFCURVE",
"858 117 CURVE SMOOTH",
"924 148 LINE",
"926 148 LINE",
"984 176 LINE SMOOTH",
"1003 183 OFFCURVE",
"1014 204 OFFCURVE",
"1008 217 CURVE SMOOTH",
"998 234 OFFCURVE",
"976 241 OFFCURVE",
"957 231 CURVE SMOOTH"
);
},
{
closed = 1;
nodes = (
"536 994 LINE",
"517 983 OFFCURVE",
"509 969 OFFCURVE",
"514 952 CURVE",
"518 944 LINE",
"576 855 LINE SMOOTH",
"580 846 OFFCURVE",
"590 842 OFFCURVE",
"603 847 CURVE SMOOTH",
"606 849 LINE SMOOTH",
"610 851 OFFCURVE",
"611 863 OFFCURVE",
"609 871 CURVE",
"578 972 LINE",
"578 975 OFFCURVE",
"577 979 OFFCURVE",
"573 980 CURVE",
"565 994 OFFCURVE",
"551 997 OFFCURVE",
"537 994 CURVE"
);
},
{
closed = 1;
nodes = (
"1043 644 LINE SMOOTH",
"1031 641 OFFCURVE",
"1028 635 OFFCURVE",
"1028 624 CURVE",
"1031 615 OFFCURVE",
"1037 606 OFFCURVE",
"1046 608 CURVE",
"1143 613 LINE",
"1145 611 OFFCURVE",
"1147 611 OFFCURVE",
"1151 613 CURVE",
"1167 616 OFFCURVE",
"1175 634 OFFCURVE",
"1169 650 CURVE SMOOTH",
"1164 668 OFFCURVE",
"1151 678 OFFCURVE",
"1132 672 CURVE SMOOTH"
);
},
{
closed = 1;
nodes = (
"923 998 OFFCURVE",
"905 991 OFFCURVE",
"900 971 CURVE SMOOTH",
"866 870 LINE SMOOTH",
"863 861 OFFCURVE",
"867 852 OFFCURVE",
"876 848 CURVE",
"884 843 OFFCURVE",
"893 844 OFFCURVE",
"898 855 CURVE",
"960 945 LINE SMOOTH",
"960 948 OFFCURVE",
"961 949 OFFCURVE",
"963 950 CURVE",
"969 971 OFFCURVE",
"958 987 OFFCURVE",
"941 995 CURVE SMOOTH"
);
}
);
width = 1440;
}
);
unicode = 0049;
},
{
glyphname = K;
lastChange = "2012-06-11 23:05:28 +0200";
layers = (
{
anchors = (
{
name = bottom;
position = "{575, 0}";
},
{
name = top;
position = "{575, 1020}";
}
);
layerId = "47E17F20-96EA-4F25-9FDC-A26DCA823BDE";
name = Regular;
paths = (
{
closed = 1;
nodes = (
"567 983 LINE SMOOTH",
"308 978 OFFCURVE",
"104 767 OFFCURVE",
"104 512 CURVE SMOOTH",
"104 248 OFFCURVE",
"321 41 OFFCURVE",
"570 41 CURVE SMOOTH",
"582 41 LINE SMOOTH",
"841 44 OFFCURVE",
"1047 257 OFFCURVE",
"1047 512 CURVE SMOOTH",
"1047 518 LINE SMOOTH",
"1040 778 OFFCURVE",
"828 983 OFFCURVE",
"573 983 CURVE SMOOTH"
);
},
{
closed = 1;
nodes = (
"764 150 LINE",
"704 118 OFFCURVE",
"643 102 OFFCURVE",
"580 102 CURVE SMOOTH",
"572 102 LINE SMOOTH",
"510 102 OFFCURVE",
"448 117 OFFCURVE",
"385 147 CURVE",
"449 254 LINE",
"489 235 OFFCURVE",
"531 225 OFFCURVE",
"575 225 CURVE SMOOTH",
"618 225 OFFCURVE",
"659 235 OFFCURVE",
"700 254 CURVE"
);
},
{
closed = 1;
nodes = (
"317 637 LINE",
"298 599 OFFCURVE",
"288 554 OFFCURVE",
"288 510 CURVE SMOOTH",
"288 467 OFFCURVE",
"298 425 OFFCURVE",
"317 387 CURVE",
"211 324 LINE",
"181 380 OFFCURVE",
"166 444 OFFCURVE",
"166 515 CURVE SMOOTH",
"166 581 OFFCURVE",
"181 643 OFFCURVE",
"211 700 CURVE"
);
},
{
closed = 1;
nodes = (
"699 737 OFFCURVE",
"801 637 OFFCURVE",
"801 512 CURVE SMOOTH",
"801 387 OFFCURVE",
"698 287 OFFCURVE",
"575 287 CURVE SMOOTH",
"450 287 OFFCURVE",
"350 387 OFFCURVE",
"350 512 CURVE SMOOTH",
"350 575 OFFCURVE",
"372 628 OFFCURVE",
"416 672 CURVE SMOOTH",
"459 715 OFFCURVE",
"512 737 OFFCURVE",
"575 737 CURVE SMOOTH"
);
},
{
closed = 1;
nodes = (
"968 644 OFFCURVE",
"984 583 OFFCURVE",
"985 518 CURVE",
"985 447 OFFCURVE",
"969 383 OFFCURVE",
"938 324 CURVE",
"831 387 LINE",
"852 428 OFFCURVE",
"862 469 OFFCURVE",
"862 512 CURVE SMOOTH",
"862 555 OFFCURVE",
"852 596 OFFCURVE",
"831 637 CURVE",
"938 700 LINE"
);
},
{
closed = 1;
nodes = (
"639 921 OFFCURVE",
"704 905 OFFCURVE",
"764 874 CURVE",
"700 770 LINE",
"659 789 OFFCURVE",
"617 799 OFFCURVE",
"575 799 CURVE SMOOTH",
"532 799 OFFCURVE",
"490 789 OFFCURVE",
"449 770 CURVE",
"385 874 LINE",
"441 903 OFFCURVE",
"502 919 OFFCURVE",
"569 922 CURVE"
);
}
);
width = 1150;
}
);
unicode = 004B;
},
{
glyphname = L;
lastChange = "2012-06-15 01:19:09 +0200";
layers = (
{
anchors = (
{
name = bottom;
position = "{657, 0}";
},
{
name = top;
position = "{657, 1020}";
}
);
layerId = "47E17F20-96EA-4F25-9FDC-A26DCA823BDE";
name = Regular;
paths = (
{
closed = 1;
nodes = (
"928 938 OFFCURVE",
"879 907 OFFCURVE",
"839 875 CURVE SMOOTH",
"780 825 LINE",
"769 813 OFFCURVE",
"763 806 OFFCURVE",
"762 789 CURVE SMOOTH",
"761 773 OFFCURVE",
"766 760 OFFCURVE",
"774 748 CURVE SMOOTH",
"784 735 OFFCURVE",
"796 726 OFFCURVE",
"811 725 CURVE SMOOTH",
"822 724 OFFCURVE",
"836 730 OFFCURVE",
"851 740 CURVE",
"908 793 LINE SMOOTH",
"927 806 OFFCURVE",
"948 812 OFFCURVE",
"965 811 CURVE SMOOTH",
"989 809 OFFCURVE",
"1013 793 OFFCURVE",
"1037 769 CURVE",
"1052 746 OFFCURVE",
"1059 720 OFFCURVE",
"1057 697 CURVE SMOOTH",
"1055 673 OFFCURVE",
"1045 651 OFFCURVE",
"1025 633 CURVE SMOOTH",
"836 476 LINE SMOOTH",
"800 449 OFFCURVE",
"770 435 OFFCURVE",
"747 438 CURVE SMOOTH",
"729 439 OFFCURVE",
"714 447 OFFCURVE",
"702 463 CURVE",
"690 471 OFFCURVE",
"678 478 OFFCURVE",
"663 479 CURVE SMOOTH",
"649 480 OFFCURVE",
"637 475 OFFCURVE",
"625 469 CURVE SMOOTH",
"612 458 OFFCURVE",
"604 446 OFFCURVE",
"603 433 CURVE SMOOTH",
"602 419 OFFCURVE",
"608 407 OFFCURVE",
"618 391 CURVE SMOOTH",
"652 353 OFFCURVE",
"688 330 OFFCURVE",
"735 326 CURVE SMOOTH",
"788 321 OFFCURVE",
"844 346 OFFCURVE",
"904 393 CURVE SMOOTH",
"1094 550 LINE SMOOTH",
"1137 586 OFFCURVE",
"1177 635 OFFCURVE",
"1182 687 CURVE SMOOTH",
"1190 742 OFFCURVE",
"1154 796 OFFCURVE",
"1120 839 CURVE SMOOTH",
"1078 885 OFFCURVE",
"1028 930 OFFCURVE",
"975 933 CURVE SMOOTH"
);
},
{
closed = 1;
nodes = (
"633 671 OFFCURVE",
"569 650 OFFCURVE",
"504 596 CURVE SMOOTH",
"327 449 LINE SMOOTH",
"283 412 OFFCURVE",
"260 365 OFFCURVE",
"255 310 CURVE SMOOTH",
"250 254 OFFCURVE",
"265 203 OFFCURVE",
"302 159 CURVE SMOOTH",
"340 116 OFFCURVE",
"390 91 OFFCURVE",
"443 87 CURVE SMOOTH",
"495 82 OFFCURVE",
"549 98 OFFCURVE",
"594 133 CURVE SMOOTH",
"642 174 LINE",
"654 182 OFFCURVE",
"661 196 OFFCURVE",
"662 208 CURVE SMOOTH",
"664 222 OFFCURVE",
"659 238 OFFCURVE",
"649 248 CURVE",
"637 264 OFFCURVE",
"625 271 OFFCURVE",
"611 272 CURVE SMOOTH",
"599 273 OFFCURVE",
"584 269 OFFCURVE",
"571 258 CURVE",
"524 214 LINE SMOOTH",
"503 199 OFFCURVE",
"476 191 OFFCURVE",
"452 194 CURVE SMOOTH",
"426 196 OFFCURVE",
"401 208 OFFCURVE",
"384 227 CURVE",
"368 251 OFFCURVE",
"361 277 OFFCURVE",
"364 303 CURVE SMOOTH",
"366 325 OFFCURVE",
"377 348 OFFCURVE",
"395 366 CURVE SMOOTH",
"576 512 LINE SMOOTH",
"614 548 OFFCURVE",
"651 562 OFFCURVE",
"676 559 CURVE SMOOTH",
"692 558 OFFCURVE",
"708 551 OFFCURVE",
"719 538 CURVE",
"728 527 OFFCURVE",
"738 519 OFFCURVE",
"754 517 CURVE SMOOTH",
"758 517 OFFCURVE",
"758 517 OFFCURVE",
"758 517 CURVE",
"787 514 OFFCURVE",
"814 539 OFFCURVE",
"817 568 CURVE SMOOTH",
"818 582 OFFCURVE",
"813 595 OFFCURVE",
"802 606 CURVE",
"771 642 OFFCURVE",
"732 663 OFFCURVE",
"688 667 CURVE SMOOTH"
);
}
);
width = 1440;
}
);
unicode = 004C;
},
{
glyphname = O;
lastChange = "2012-09-24 20:22:58 +0200";
layers = (
{
anchors = (
{
name = top;
position = "{247, 1020}";
}
);
layerId = "47E17F20-96EA-4F25-9FDC-A26DCA823BDE";
name = Regular;
paths = (
{
closed = 1;
nodes = (
"178 700 OFFCURVE",
"166 695 OFFCURVE",
"153 679 CURVE",
"146 678 OFFCURVE",
"142 662 OFFCURVE",
"140 650 CURVE SMOOTH",
"140 164 LINE SMOOTH",
"142 151 OFFCURVE",
"148 139 OFFCURVE",
"154 135 CURVE SMOOTH",
"164 120 OFFCURVE",
"177 113 OFFCURVE",
"190 113 CURVE SMOOTH",
"309 114 LINE SMOOTH",
"325 114 OFFCURVE",
"333 118 OFFCURVE",
"341 121 CURVE",
"349 122 OFFCURVE",
"355 134 OFFCURVE",
"359 143 CURVE SMOOTH",
"362 153 OFFCURVE",
"356 167 OFFCURVE",
"344 187 CURVE",
"336 205 OFFCURVE",
"330 220 OFFCURVE",
"325 234 CURVE SMOOTH",
"321 247 OFFCURVE",
"320 265 OFFCURVE",
"323 280 CURVE SMOOTH",
"322 293 OFFCURVE",
"330 306 OFFCURVE",
"349 311 CURVE SMOOTH",
"364 317 OFFCURVE",
"389 322 OFFCURVE",
"419 322 CURVE SMOOTH",
"453 324 OFFCURVE",
"475 318 OFFCURVE",
"495 310 CURVE SMOOTH",
"507 306 OFFCURVE",
"525 293 OFFCURVE",
"525 279 CURVE SMOOTH",
"525 265 OFFCURVE",
"523 246 OFFCURVE",
"524 233 CURVE SMOOTH",
"521 220 OFFCURVE",
"504 203 OFFCURVE",
"498 187 CURVE SMOOTH",
"488 166 OFFCURVE",
"482 153 OFFCURVE",
"485 143 CURVE SMOOTH",
"491 135 OFFCURVE",
"495 122 OFFCURVE",
"502 122 CURVE",
"505 118 OFFCURVE",
"524 113 OFFCURVE",
"529 114 CURVE SMOOTH",
"653 113 LINE SMOOTH",
"665 114 OFFCURVE",
"675 121 OFFCURVE",
"687 134 CURVE",
"695 140 OFFCURVE",
"703 151 OFFCURVE",
"700 165 CURVE SMOOTH",
"703 283 LINE SMOOTH",
"702 294 OFFCURVE",
"703 306 OFFCURVE",
"705 312 CURVE SMOOTH",
"712 318 OFFCURVE",
"718 323 OFFCURVE",
"729 331 CURVE SMOOTH",
"740 332 OFFCURVE",
"753 326 OFFCURVE",
"773 316 CURVE SMOOTH",
"788 306 OFFCURVE",
"805 299 OFFCURVE",
"820 295 CURVE SMOOTH",
"834 292 OFFCURVE",
"849 292 OFFCURVE",
"866 293 CURVE SMOOTH",
"877 295 OFFCURVE",
"893 300 OFFCURVE",
"899 318 CURVE",
"907 334 OFFCURVE",
"909 363 OFFCURVE",
"909 387 CURVE SMOOTH",
"909 422 OFFCURVE",
"907 444 OFFCURVE",
"900 463 CURVE",
"891 480 OFFCURVE",
"878 487 OFFCURVE",
"865 491 CURVE SMOOTH",
"849 491 OFFCURVE",
"835 489 OFFCURVE",
"820 485 CURVE SMOOTH",
"806 482 OFFCURVE",
"786 478 OFFCURVE",
"773 467 CURVE",
"752 453 OFFCURVE",
"740 449 OFFCURVE",
"730 453 CURVE SMOOTH",
"716 453 OFFCURVE",
"711 462 OFFCURVE",
"705 470 CURVE SMOOTH",
"704 480 OFFCURVE",
"702 487 OFFCURVE",
"703 503 CURVE SMOOTH",
"703 649 LINE SMOOTH",
"702 662 OFFCURVE",
"695 678 OFFCURVE",
"687 680 CURVE",
"675 695 OFFCURVE",
"666 700 OFFCURVE",
"652 700 CURVE SMOOTH",
"527 699 LINE SMOOTH",
"526 700 OFFCURVE",
"506 703 OFFCURVE",
"501 705 CURVE",
"494 710 OFFCURVE",
"490 717 OFFCURVE",
"485 727 CURVE SMOOTH",
"482 733 OFFCURVE",
"490 752 OFFCURVE",
"498 774 CURVE SMOOTH",
"504 790 OFFCURVE",
"520 804 OFFCURVE",
"526 820 CURVE SMOOTH",
"524 835 OFFCURVE",
"524 847 OFFCURVE",
"524 864 CURVE SMOOTH",
"526 878 OFFCURVE",
"509 884 OFFCURVE",
"495 897 CURVE",
"474 907 OFFCURVE",
"453 908 OFFCURVE",
"420 907 CURVE SMOOTH",
"389 907 OFFCURVE",
"367 907 OFFCURVE",
"350 897 CURVE",
"331 885 OFFCURVE",
"324 878 OFFCURVE",
"322 863 CURVE SMOOTH",
"322 847 OFFCURVE",
"320 833 OFFCURVE",
"326 820 CURVE SMOOTH",
"329 804 OFFCURVE",
"337 789 OFFCURVE",
"345 774 CURVE",
"356 752 OFFCURVE",
"362 733 OFFCURVE",
"358 727 CURVE SMOOTH",
"357 716 OFFCURVE",
"349 710 OFFCURVE",
"341 708 CURVE",
"334 704 OFFCURVE",
"326 700 OFFCURVE",
"309 700 CURVE SMOOTH",
"190 700 LINE SMOOTH"
);
}
);
width = 989;
}
);
unicode = 004F;
},
{
glyphname = P;
lastChange = "2012-08-18 22:59:29 +0200";
layers = (
{
layerId = "47E17F20-96EA-4F25-9FDC-A26DCA823BDE";
name = Regular;
paths = (
{
closed = 1;
nodes = (
"233 324 LINE",
"396 187 LINE",
"193 110 LINE"
);
},
{
closed = 1;
nodes = (
"259 357 LINE",
"621 791 LINE",
"789 646 LINE",
"423 214 LINE"
);
},
{
closed = 1;
nodes = (
"650 822 LINE",
"710 894 LINE",
"722 907 OFFCURVE",
"744 910 OFFCURVE",
"759 898 CURVE SMOOTH",
"873 802 LINE SMOOTH",
"888 788 OFFCURVE",
"892 773 OFFCURVE",
"878 754 CURVE SMOOTH",
"815 682 LINE"
);
},
{
closed = 1;
nodes = (
"592 324 LINE",
"756 187 LINE",
"551 110 LINE"
);
},
{
closed = 1;
nodes = (
"618 357 LINE",
"978 791 LINE",
"1144 646 LINE",
"783 214 LINE"
);
},
{
closed = 1;
nodes = (
"1008 822 LINE",
"1069 894 LINE",
"1082 907 OFFCURVE",
"1103 910 OFFCURVE",
"1117 898 CURVE SMOOTH",
"1232 802 LINE SMOOTH",
"1248 788 OFFCURVE",
"1251 773 OFFCURVE",
"1236 754 CURVE SMOOTH",
"1173 681 LINE"
);
},
{
closed = 1;
nodes = (
"1077 640 LINE",
"986 721 LINE",
"683 360 LINE",
"777 281 LINE"
);
}
);
width = 1440;
}
);
unicode = 0050;
},
{
glyphname = Q;
lastChange = "2012-11-28 00:37:01 +0100";
layers = (
{
layerId = "47E17F20-96EA-4F25-9FDC-A26DCA823BDE";
name = Regular;
paths = (
{
closed = 1;
nodes = (
"812 824 OFFCURVE",
"877 778 OFFCURVE",
"877 695 CURVE SMOOTH",
"877 672 OFFCURVE",
"870 652 OFFCURVE",
"859 627 CURVE",
"852 618 OFFCURVE",
"835 612 OFFCURVE",
"811 590 CURVE SMOOTH",
"789 568 LINE SMOOTH",
"773 559 OFFCURVE",
"761 555 OFFCURVE",
"758 542 CURVE SMOOTH",
"757 536 OFFCURVE",
"757 527 OFFCURVE",
"757 517 CURVE SMOOTH",
"757 511 OFFCURVE",
"757 508 OFFCURVE",
"754 508 CURVE SMOOTH",
"684 508 LINE SMOOTH",
"678 508 OFFCURVE",
"676 511 OFFCURVE",
"676 517 CURVE",
"678 557 OFFCURVE",
"682 571 OFFCURVE",
"691 578 CURVE SMOOTH",
"699 598 OFFCURVE",
"727 617 OFFCURVE",
"748 627 CURVE",
"757 636 LINE",
"761 643 OFFCURVE",
"769 651 OFFCURVE",
"772 655 CURVE SMOOTH",
"783 669 OFFCURVE",
"789 676 OFFCURVE",
"789 690 CURVE SMOOTH",
"789 707 OFFCURVE",
"783 721 OFFCURVE",
"773 730 CURVE",
"763 743 OFFCURVE",
"751 750 OFFCURVE",
"728 750 CURVE SMOOTH",
"704 750 OFFCURVE",
"689 742 OFFCURVE",
"678 728 CURVE SMOOTH",
"667 714 OFFCURVE",
"661 695 OFFCURVE",
"661 677 CURVE",
"579 677 LINE",
"583 792 OFFCURVE",
"651 824 OFFCURVE",
"718 824 CURVE SMOOTH"
);
},
{
closed = 1;
nodes = (
"753 452 OFFCURVE",
"769 435 OFFCURVE",
"769 407 CURVE SMOOTH",
"768 403 LINE",
"767 376 OFFCURVE",
"750 357 OFFCURVE",
"718 357 CURVE",
"691 358 OFFCURVE",
"669 379 OFFCURVE",
"669 403 CURVE SMOOTH",
"669 421 OFFCURVE",
"674 435 OFFCURVE",
"688 442 CURVE SMOOTH",
"699 449 OFFCURVE",
"703 453 OFFCURVE",
"718 453 CURVE SMOOTH"
);
},
{
closed = 1;
nodes = (
"382 905 LINE SMOOTH",
"319 905 OFFCURVE",
"269 853 OFFCURVE",
"269 792 CURVE SMOOTH",
"269 397 LINE SMOOTH",
"269 335 OFFCURVE",
"319 284 OFFCURVE",
"382 284 CURVE SMOOTH",
"608 284 LINE",
"832 116 LINE",
"832 284 LINE",
"1058 284 LINE SMOOTH",
"1119 284 OFFCURVE",
"1171 335 OFFCURVE",
"1171 397 CURVE SMOOTH",
"1171 792 LINE SMOOTH",
"1171 853 OFFCURVE",
"1119 905 OFFCURVE",
"1058 905 CURVE SMOOTH"
);
}
);
width = 1440;
}
);
unicode = 0051;
},
{
glyphname = R;
lastChange = "2012-12-04 18:15:31 +0100";
layers = (
{
anchors = (
{
name = bottom;
position = "{598, 0}";
},
{
name = top;
position = "{598, 0}";
}
);
layerId = "47E17F20-96EA-4F25-9FDC-A26DCA823BDE";
name = Regular;
paths = (
{
closed = 1;
nodes = (
"1027 569 LINE",
"1095 870 LINE",
"973 786 LINE",
"817 995 OFFCURVE",
"519 1048 OFFCURVE",
"304 898 CURVE SMOOTH",
"210 832 OFFCURVE",
"147 741 OFFCURVE",
"117 639 CURVE",
"286 587 LINE",
"306 655 OFFCURVE",
"345 718 OFFCURVE",
"410 762 CURVE SMOOTH",
"548 860 OFFCURVE",
"740 830 OFFCURVE",
"841 694 CURVE",
"722 609 LINE"
);
},
{
closed = 1;
nodes = (
"167 452 LINE",
"100 149 LINE",
"221 234 LINE",
"379 22 OFFCURVE",
"675 -28 OFFCURVE",
"889 122 CURVE SMOOTH",
"985 188 OFFCURVE",
"1048 280 OFFCURVE",
"1078 381 CURVE",
"908 432 LINE",
"890 364 OFFCURVE",
"848 301 OFFCURVE",
"785 257 CURVE SMOOTH",
"647 159 OFFCURVE",
"454 190 OFFCURVE",
"353 326 CURVE",
"472 410 LINE"
);
}
);
width = 1195;
}
);
unicode = 0052;
},
{
glyphname = S;
lastChange = "2012-08-24 17:49:37 +0200";
layers = (
{
anchors = (
{
name = bottom;
position = "{773, 0}";
},
{
name = top;
position = "{773, 1020}";
}
);
layerId = "47E17F20-96EA-4F25-9FDC-A26DCA823BDE";
name = Regular;
paths = (
{
closed = 1;
nodes = (
"1261 929 LINE",
"909 140 LINE",
"641 275 LINE",
"526 92 LINE",
"546 320 LINE",
"1127 797 LINE",
"497 347 LINE",
"180 527 LINE"
);
}
);
width = 1440;
}
);
unicode = 0053;
},
{
glyphname = T;
lastChange = "2012-08-18 23:36:51 +0200";
layers = (
{
anchors = (
{
name = bottom;
position = "{507, 0}";
},
{
name = center;
position = "{507, 510}";
},
{
name = top;
position = "{507, 1020}";
}
);
layerId = "47E17F20-96EA-4F25-9FDC-A26DCA823BDE";
name = Regular;
paths = (
{
closed = 1;
nodes = (
"245 915 OFFCURVE",
"102 775 OFFCURVE",
"102 600 CURVE SMOOTH",
"102 513 OFFCURVE",
"135 436 OFFCURVE",
"200 371 CURVE SMOOTH",
"265 305 OFFCURVE",
"341 272 OFFCURVE",
"428 272 CURVE SMOOTH",
"484 272 OFFCURVE",
"537 286 OFFCURVE",
"588 315 CURVE",
"782 121 LINE",
"795 110 OFFCURVE",
"807 105 OFFCURVE",
"818 105 CURVE SMOOTH",
"830 105 OFFCURVE",
"841 110 OFFCURVE",
"852 121 CURVE SMOOTH",
"899 170 LINE",
"908 178 OFFCURVE",
"912 186 OFFCURVE",
"912 195 CURVE SMOOTH",
"912 206 OFFCURVE",
"906 218 OFFCURVE",
"893 231 CURVE SMOOTH",
"700 426 LINE",
"730 475 OFFCURVE",
"745 530 OFFCURVE",
"745 590 CURVE SMOOTH",
"745 765 OFFCURVE",
"595 915 OFFCURVE",
"420 915 CURVE SMOOTH"
);
},
{
closed = 1;
nodes = (
"540 819 OFFCURVE",
"649 710 OFFCURVE",
"649 590 CURVE SMOOTH",
"649 470 OFFCURVE",
"551 371 OFFCURVE",
"428 371 CURVE SMOOTH",
"308 371 OFFCURVE",
"201 480 OFFCURVE",
"201 600 CURVE SMOOTH",
"201 660 OFFCURVE",
"223 712 OFFCURVE",
"266 755 CURVE SMOOTH",
"309 798 OFFCURVE",
"360 819 OFFCURVE",
"420 819 CURVE SMOOTH"
);
}
);
width = 1013;
}
);
unicode = 0054;
},
{
glyphname = W;
lastChange = "2012-08-24 23:00:33 +0200";
layers = (
{
anchors = (
{
name = top;
position = "{740, 1020}";
}
);
layerId = "47E17F20-96EA-4F25-9FDC-A26DCA823BDE";
name = Regular;
paths = (
{
closed = 1;
nodes = (
"1350 909 OFFCURVE",
"1350 909 OFFCURVE",
"1350 896 CURVE SMOOTH",
"1350 888 OFFCURVE",
"1350 888 OFFCURVE",
"1341 874 CURVE SMOOTH",
"1263 874 OFFCURVE",
"1242 841 OFFCURVE",
"1198 765 CURVE",
"919 123 LINE",
"919 111 OFFCURVE",
"919 111 OFFCURVE",
"907 111 CURVE SMOOTH",
"897 111 OFFCURVE",
"897 111 OFFCURVE",
"885 123 CURVE",
"706 453 LINE",
"543 123 LINE",
"543 111 OFFCURVE",
"543 111 OFFCURVE",
"533 111 CURVE SMOOTH",
"521 111 OFFCURVE",
"512 111 OFFCURVE",
"512 123 CURVE",
"220 765 LINE",
"190 852 OFFCURVE",
"155 874 OFFCURVE",
"99 874 CURVE SMOOTH",
"90 874 LINE",
"90 888 OFFCURVE",
"90 888 OFFCURVE",
"90 896 CURVE SMOOTH",
"90 909 OFFCURVE",
"90 909 OFFCURVE",
"99 909 CURVE SMOOTH",
"111 909 OFFCURVE",
"133 909 OFFCURVE",
"155 896 CURVE",
"212 896 LINE SMOOTH",
"234 896 OFFCURVE",
"255 896 OFFCURVE",
"277 909 CURVE",
"342 909 LINE SMOOTH",
"355 909 OFFCURVE",
"355 896 OFFCURVE",
"355 888 CURVE SMOOTH",
"355 874 OFFCURVE",
"355 874 OFFCURVE",
"342 874 CURVE SMOOTH",
"291 874 OFFCURVE",
"269 852 OFFCURVE",
"269 819 CURVE SMOOTH",
"269 809 OFFCURVE",
"269 787 OFFCURVE",
"277 765 CURVE",
"498 266 LINE",
"641 566 LINE",
"533 765 LINE",
"476 852 OFFCURVE",
"455 874 OFFCURVE",
"399 874 CURVE SMOOTH",
"389 874 OFFCURVE",
"389 888 OFFCURVE",
"389 896 CURVE SMOOTH",
"389 909 LINE",
"411 909 OFFCURVE",
"433 909 OFFCURVE",
"464 909 CURVE",
"490 896 OFFCURVE",
"498 896 OFFCURVE",
"512 896 CURVE SMOOTH",
"521 896 OFFCURVE",
"543 896 OFFCURVE",
"577 909 CURVE",
"641 909 LINE SMOOTH",
"641 909 OFFCURVE",
"655 896 OFFCURVE",
"655 896 CURVE",
"655 888 OFFCURVE",
"655 874 OFFCURVE",
"641 874 CURVE SMOOTH",
"586 874 OFFCURVE",
"564 852 OFFCURVE",
"564 819 CURVE SMOOTH",
"564 809 OFFCURVE",
"577 787 OFFCURVE",
"586 765 CURVE SMOOTH",
"663 619 LINE",
"742 787 LINE SMOOTH",
"755 809 OFFCURVE",
"763 819 OFFCURVE",
"763 830 CURVE SMOOTH",
"763 866 OFFCURVE",
"742 874 OFFCURVE",
"685 874 CURVE SMOOTH",
"685 888 LINE SMOOTH",
"685 896 OFFCURVE",
"685 909 OFFCURVE",
"698 909 CURVE SMOOTH",
"720 909 OFFCURVE",
"742 909 OFFCURVE",
"763 896 CURVE",
"841 896 LINE SMOOTH",
"863 896 OFFCURVE",
"885 896 OFFCURVE",
"897 896 CURVE",
"919 909 OFFCURVE",
"942 909 OFFCURVE",
"976 909 CURVE SMOOTH",
"985 909 OFFCURVE",
"985 909 OFFCURVE",
"985 896 CURVE SMOOTH",
"985 888 OFFCURVE",
"985 888 OFFCURVE",
"976 874 CURVE",
"919 874 OFFCURVE",
"897 852 OFFCURVE",
"854 765 CURVE SMOOTH",
"734 510 LINE",
"863 254 LINE",
"1098 787 LINE",
"1098 819 LINE SMOOTH",
"1098 852 OFFCURVE",
"1063 874 OFFCURVE",
"1020 874 CURVE SMOOTH",
"1020 888 LINE SMOOTH",
"1020 896 OFFCURVE",
"1020 909 OFFCURVE",
"1020 909 CURVE SMOOTH",
"1107 909 LINE",
"1141 896 OFFCURVE",
"1163 896 OFFCURVE",
"1185 896 CURVE SMOOTH",
"1220 896 OFFCURVE",
"1242 896 OFFCURVE",
"1263 909 CURVE",
"1341 909 LINE SMOOTH"
);
}
);
width = 1440;
}
);
unicode = 0057;
},
{
glyphname = X;
lastChange = "2012-08-25 00:29:21 +0200";
layers = (
{
layerId = "47E17F20-96EA-4F25-9FDC-A26DCA823BDE";
name = Regular;
paths = (
{
closed = 1;
nodes = (
"352 510 LINE",
"507 665 LINE SMOOTH",
"509 667 OFFCURVE",
"510 669 OFFCURVE",
"511 671 CURVE",
"514 678 OFFCURVE",
"512 683 OFFCURVE",
"507 688 CURVE SMOOTH",
"434 761 LINE SMOOTH",
"429 766 OFFCURVE",
"424 768 OFFCURVE",
"417 765 CURVE",
"415 764 OFFCURVE",
"413 763 OFFCURVE",
"411 761 CURVE SMOOTH",
"256 606 LINE",
"101 761 LINE SMOOTH",
"99 763 OFFCURVE",
"97 764 OFFCURVE",
"95 765 CURVE",
"88 768 OFFCURVE",
"83 766 OFFCURVE",
"78 761 CURVE SMOOTH",
"5 688 LINE SMOOTH",
"0 683 OFFCURVE",
"-2 678 OFFCURVE",
"1 671 CURVE",
"2 669 OFFCURVE",
"3 667 OFFCURVE",
"5 665 CURVE SMOOTH",
"160 510 LINE",
"5 355 LINE SMOOTH",
"3 353 OFFCURVE",
"2 351 OFFCURVE",
"1 349 CURVE",
"-2 342 OFFCURVE",
"0 337 OFFCURVE",
"5 332 CURVE SMOOTH",
"78 259 LINE SMOOTH",
"83 254 OFFCURVE",
"88 252 OFFCURVE",
"95 255 CURVE",
"97 256 OFFCURVE",
"99 257 OFFCURVE",
"101 259 CURVE SMOOTH",
"256 414 LINE",
"411 259 LINE SMOOTH",
"413 257 OFFCURVE",
"415 256 OFFCURVE",
"417 255 CURVE",
"424 252 OFFCURVE",
"429 254 OFFCURVE",
"434 259 CURVE SMOOTH",
"507 332 LINE SMOOTH",
"512 337 OFFCURVE",
"514 342 OFFCURVE",
"511 349 CURVE",
"510 351 OFFCURVE",
"509 353 OFFCURVE",
"507 355 CURVE SMOOTH"
);
}
);
width = 512;
}
);
unicode = 0058;
},
{
glyphname = bracketleft;
lastChange = "2012-09-07 02:20:29 +0200";
layers = (
{
layerId = "47E17F20-96EA-4F25-9FDC-A26DCA823BDE";
name = Regular;
paths = (
{
closed = 1;
nodes = (
"150 738 LINE SMOOTH",
"130 738 OFFCURVE",
"121 717 OFFCURVE",
"135 702 CURVE SMOOTH",
"528 294 LINE SMOOTH",
"534 288 OFFCURVE",
"544 288 OFFCURVE",
"550 294 CURVE SMOOTH",
"961 701 LINE SMOOTH",
"976 716 OFFCURVE",
"967 738 OFFCURVE",
"945 738 CURVE SMOOTH"
);
}
);
width = 1098;
}
);
unicode = 005B;
},
{
glyphname = asciicircum;
lastChange = "2012-09-05 10:29:53 +0200";
layers = (
{
anchors = (
{
name = center;
position = "{565, 367}";
},
{
name = top;
position = "{565, 639}";
}
);
layerId = "47E17F20-96EA-4F25-9FDC-A26DCA823BDE";
name = Regular;
paths = (
{
closed = 1;
nodes = (
"100 602 LINE",
"213 602 LINE",
"213 324 LINE SMOOTH",
"213 273 OFFCURVE",
"254 232 OFFCURVE",
"306 232 CURVE SMOOTH",
"668 232 LINE",
"549 361 LINE",
"343 361 LINE",
"343 602 LINE",
"455 602 LINE",
"277 789 LINE"
);
},
{
closed = 1;
nodes = (
"463 789 LINE",
"582 659 LINE",
"788 659 LINE",
"788 418 LINE",
"676 418 LINE",
"854 232 LINE",
"1030 418 LINE",
"918 418 LINE",
"918 696 LINE SMOOTH",
"918 748 OFFCURVE",
"875 789 OFFCURVE",
"825 789 CURVE SMOOTH"
);
}
);
width = 1130;
}
);
unicode = 005E;
},
{
glyphname = underscore;
lastChange = "2012-08-24 23:29:52 +0200";
layers = (
{
layerId = "47E17F20-96EA-4F25-9FDC-A26DCA823BDE";
name = Regular;
paths = (
{
closed = 1;
nodes = (
"207 905 LINE SMOOTH",
"140 905 OFFCURVE",
"100 857 OFFCURVE",
"100 804 CURVE SMOOTH",
"100 744 OFFCURVE",
"146 697 OFFCURVE",
"207 697 CURVE SMOOTH",
"1015 697 LINE SMOOTH",
"1068 697 OFFCURVE",
"1124 742 OFFCURVE",
"1124 804 CURVE SMOOTH",
"1124 857 OFFCURVE",
"1068 905 OFFCURVE",
"1015 905 CURVE SMOOTH"
);
},
{
closed = 1;
nodes = (
"207 615 LINE SMOOTH",
"140 615 OFFCURVE",
"100 566 OFFCURVE",
"100 515 CURVE SMOOTH",
"100 455 OFFCURVE",
"146 406 OFFCURVE",
"207 406 CURVE SMOOTH",
"1015 406 LINE SMOOTH",
"1068 406 OFFCURVE",
"1124 452 OFFCURVE",
"1124 515 CURVE SMOOTH",
"1124 566 OFFCURVE",
"1068 615 OFFCURVE",
"1015 615 CURVE SMOOTH"
);
},
{
closed = 1;
nodes = (
"207 324 LINE SMOOTH",
"140 324 OFFCURVE",
"100 276 OFFCURVE",
"100 224 CURVE SMOOTH",
"100 164 OFFCURVE",
"146 116 OFFCURVE",
"207 116 CURVE SMOOTH",
"1015 116 LINE SMOOTH",
"1068 116 OFFCURVE",
"1124 161 OFFCURVE",
"1124 224 CURVE SMOOTH",
"1124 276 OFFCURVE",
"1068 324 OFFCURVE",
"1015 324 CURVE SMOOTH"
);
}
);
width = 1224;
}
);
unicode = 005F;
},
{
glyphname = a;
lastChange = "2012-08-24 22:46:22 +0200";
layers = (
{
anchors = (
{
name = ogonek;
position = "{1011, 10}";
},
{
name = top;
position = "{561, 0}";
}
);
layerId = "47E17F20-96EA-4F25-9FDC-A26DCA823BDE";
name = Regular;
paths = (
{
closed = 1;
nodes = (
"872 868 LINE",
"872 766 LINE",
"709 766 LINE",
"709 868 LINE",
"412 868 LINE",
"412 766 LINE",
"248 766 LINE",
"248 868 LINE",
"203 868 LINE SMOOTH",
"146 868 OFFCURVE",
"100 821 OFFCURVE",
"100 766 CURVE SMOOTH",
"100 152 LINE SMOOTH",
"100 95 OFFCURVE",
"146 49 OFFCURVE",
"203 49 CURVE SMOOTH",
"920 49 LINE SMOOTH",
"975 49 OFFCURVE",
"1022 95 OFFCURVE",
"1022 152 CURVE SMOOTH",
"1022 766 LINE SMOOTH",
"1022 821 OFFCURVE",
"975 868 OFFCURVE",
"920 868 CURVE SMOOTH"
);
},
{
closed = 1;
nodes = (
"920 152 LINE",
"203 152 LINE",
"203 561 LINE",
"920 561 LINE"
);
},
{
closed = 1;
nodes = (
"295 971 LINE",
"295 797 LINE",
"367 797 LINE",
"367 971 LINE"
);
},
{
closed = 1;
nodes = (
"756 971 LINE",
"756 797 LINE",
"827 797 LINE",
"827 971 LINE"
);
}
);
width = 1122;
}
);
unicode = 0061;
},
{
glyphname = b;
lastChange = "2012-08-24 11:54:19 +0200";
layers = (
{
layerId = "47E17F20-96EA-4F25-9FDC-A26DCA823BDE";
name = Regular;
paths = (
{
closed = 1;
nodes = (
"707 540 LINE SMOOTH",
"720 544 OFFCURVE",
"734 535 OFFCURVE",
"738 522 CURVE SMOOTH",
"739 519 OFFCURVE",
"739 517 OFFCURVE",
"739 515 CURVE SMOOTH",
"739 507 OFFCURVE",
"733 495 OFFCURVE",
"720 490 CURVE",
"569 450 LINE",
"570 443 OFFCURVE",
"570 435 OFFCURVE",
"570 427 CURVE SMOOTH",
"570 402 OFFCURVE",
"567 374 OFFCURVE",
"561 343 CURVE",
"708 260 LINE SMOOTH",
"720 253 OFFCURVE",
"724 237 OFFCURVE",
"717 225 CURVE SMOOTH",
"710 213 OFFCURVE",
"694 209 OFFCURVE",
"682 216 CURVE SMOOTH",
"549 292 LINE",
"528 219 OFFCURVE",
"504 178 OFFCURVE",
"477 167 CURVE",
"474 166 OFFCURVE",
"470 165 OFFCURVE",
"466 165 CURVE SMOOTH",
"454 165 OFFCURVE",
"443 173 OFFCURVE",
"433 189 CURVE",
"432 160 OFFCURVE",
"422 145 OFFCURVE",
"403 145 CURVE SMOOTH",
"392 145 OFFCURVE",
"379 150 OFFCURVE",
"362 159 CURVE",
"339 170 OFFCURVE",
"313 190 OFFCURVE",
"286 217 CURVE",
"212 86 LINE",
"209 80 OFFCURVE",
"203 76 OFFCURVE",
"196 74 CURVE",
"193 73 OFFCURVE",
"191 73 OFFCURVE",
"188 73 CURVE SMOOTH",
"180 73 OFFCURVE",
"169 78 OFFCURVE",
"165 91 CURVE SMOOTH",
"163 98 OFFCURVE",
"164 104 OFFCURVE",
"167 111 CURVE",
"249 255 LINE",
"221 287 OFFCURVE",
"201 317 OFFCURVE",
"188 344 CURVE",
"38 302 LINE SMOOTH",
"25 298 OFFCURVE",
"10 305 OFFCURVE",
"6 320 CURVE",
"5 322 OFFCURVE",
"5 324 OFFCURVE",
"5 327 CURVE SMOOTH",
"5 335 OFFCURVE",
"9 347 OFFCURVE",
"24 351 CURVE SMOOTH",
"173 392 LINE",
"170 408 OFFCURVE",
"169 424 OFFCURVE",
"169 441 CURVE SMOOTH",
"169 462 OFFCURVE",
"171 482 OFFCURVE",
"176 503 CURVE",
"37 582 LINE SMOOTH",
"25 589 OFFCURVE",
"20 604 OFFCURVE",
"28 617 CURVE SMOOTH",
"35 629 OFFCURVE",
"50 633 OFFCURVE",
"62 626 CURVE SMOOTH",
"195 551 LINE",
"204 571 OFFCURVE",
"216 588 OFFCURVE",
"231 603 CURVE",
"230 610 OFFCURVE",
"229 617 OFFCURVE",
"229 624 CURVE SMOOTH",
"229 649 OFFCURVE",
"239 670 OFFCURVE",
"259 689 CURVE",
"259 690 LINE",
"259 693 LINE",
"255 704 OFFCURVE",
"250 714 OFFCURVE",
"246 719 CURVE",
"243 721 OFFCURVE",
"241 723 OFFCURVE",
"238 724 CURVE",
"232 727 OFFCURVE",
"226 728 OFFCURVE",
"219 727 CURVE",
"224 715 OFFCURVE",
"217 705 OFFCURVE",
"208 701 CURVE",
"199 696 OFFCURVE",
"187 702 OFFCURVE",
"184 714 CURVE",
"180 726 OFFCURVE",
"186 736 OFFCURVE",
"194 740 CURVE SMOOTH",
"202 744 OFFCURVE",
"210 746 OFFCURVE",
"219 744 CURVE SMOOTH",
"228 742 OFFCURVE",
"237 736 OFFCURVE",
"248 725 CURVE",
"257 713 OFFCURVE",
"260 706 OFFCURVE",
"264 693 CURVE",
"283 708 OFFCURVE",
"305 714 OFFCURVE",
"326 713 CURVE",
"325 720 OFFCURVE",
"324 723 OFFCURVE",
"324 724 CURVE",
"323 737 OFFCURVE",
"323 754 OFFCURVE",
"330 766 CURVE SMOOTH",
"335 774 OFFCURVE",
"341 780 OFFCURVE",
"349 784 CURVE",
"353 785 OFFCURVE",
"357 786 OFFCURVE",
"362 786 CURVE SMOOTH",
"370 786 OFFCURVE",
"381 781 OFFCURVE",
"385 770 CURVE",
"388 759 OFFCURVE",
"382 748 OFFCURVE",
"371 746 CURVE SMOOTH",
"359 744 OFFCURVE",
"348 750 OFFCURVE",
"347 763 CURVE",
"341 761 OFFCURVE",
"336 757 OFFCURVE",
"333 750 CURVE",
"330 746 OFFCURVE",
"328 738 OFFCURVE",
"328 729 CURVE",
"329 724 OFFCURVE",
"330 719 OFFCURVE",
"331 713 CURVE",
"368 709 OFFCURVE",
"398 683 OFFCURVE",
"409 647 CURVE",
"426 642 OFFCURVE",
"442 634 OFFCURVE",
"458 624 CURVE",
"532 757 LINE SMOOTH",
"539 769 OFFCURVE",
"555 773 OFFCURVE",
"568 766 CURVE SMOOTH",
"580 759 OFFCURVE",
"585 743 OFFCURVE",
"578 731 CURVE SMOOTH",
"498 592 LINE",
"525 566 OFFCURVE",
"544 535 OFFCURVE",
"557 499 CURVE"
);
}
);
width = 744;
}
);
unicode = 0062;
},
{
glyphname = c;
lastChange = "2012-08-24 11:57:01 +0200";
layers = (
{
anchors = (
{
name = bottom;
position = "{512, 0}";
},
{
name = top;
position = "{512, 0}";
}
);
layerId = "47E17F20-96EA-4F25-9FDC-A26DCA823BDE";
name = Regular;
paths = (
{
closed = 1;
nodes = (
"174 905 LINE SMOOTH",
"111 905 OFFCURVE",
"61 853 OFFCURVE",
"61 792 CURVE SMOOTH",
"61 397 LINE SMOOTH",
"61 335 OFFCURVE",
"111 284 OFFCURVE",
"174 284 CURVE SMOOTH",
"400 284 LINE",
"624 116 LINE",
"624 284 LINE",
"850 284 LINE SMOOTH",
"911 284 OFFCURVE",
"963 335 OFFCURVE",
"963 397 CURVE SMOOTH",
"963 792 LINE SMOOTH",
"963 853 OFFCURVE",
"911 905 OFFCURVE",
"850 905 CURVE SMOOTH"
);
}
);
width = 1024;
}
);
unicode = 0063;
},
{
glyphname = d;
lastChange = "2012-08-24 11:51:52 +0200";
layers = (
{
anchors = (
{
name = _top;
position = "{572, 820}";
},
{
name = center;
position = "{571, 0}";
}
);
layerId = "47E17F20-96EA-4F25-9FDC-A26DCA823BDE";
name = Regular;
paths = (
{
closed = 1;
nodes = (
"306 977 OFFCURVE",
"97 763 OFFCURVE",
"100 503 CURVE SMOOTH",
"105 243 OFFCURVE",
"318 35 OFFCURVE",
"578 38 CURVE SMOOTH",
"837 43 OFFCURVE",
"1046 256 OFFCURVE",
"1043 516 CURVE SMOOTH",
"1039 775 OFFCURVE",
"825 985 OFFCURVE",
"565 980 CURVE SMOOTH"
);
},
{
closed = 1;
nodes = (
"637 609 OFFCURVE",
"647 596 OFFCURVE",
"647 569 CURVE SMOOTH",
"647 554 OFFCURVE",
"644 535 OFFCURVE",
"637 511 CURVE SMOOTH",
"594 349 LINE",
"592 339 OFFCURVE",
"591 330 OFFCURVE",
"591 324 CURVE SMOOTH",
"591 315 OFFCURVE",
"593 310 OFFCURVE",
"598 310 CURVE SMOOTH",
"615 310 OFFCURVE",
"639 322 OFFCURVE",
"672 347 CURVE",
"690 323 LINE",
"619 251 OFFCURVE",
"537 214 OFFCURVE",
"496 214 CURVE SMOOTH",
"466 214 OFFCURVE",
"452 231 OFFCURVE",
"452 265 CURVE SMOOTH",
"452 281 OFFCURVE",
"455 300 OFFCURVE",
"461 323 CURVE SMOOTH",
"500 476 LINE",
"503 488 OFFCURVE",
"504 496 OFFCURVE",
"504 502 CURVE SMOOTH",
"504 508 OFFCURVE",
"503 511 OFFCURVE",
"500 511 CURVE SMOOTH",
"479 511 OFFCURVE",
"453 499 OFFCURVE",
"422 476 CURVE",
"406 505 LINE",
"482 568 OFFCURVE",
"576 609 OFFCURVE",
"617 609 CURVE SMOOTH"
);
},
{
closed = 1;
nodes = (
"660 822 OFFCURVE",
"680 802 OFFCURVE",
"680 763 CURVE SMOOTH",
"680 722 OFFCURVE",
"646 687 OFFCURVE",
"594 687 CURVE SMOOTH",
"552 687 OFFCURVE",
"528 706 OFFCURVE",
"528 741 CURVE SMOOTH",
"528 743 OFFCURVE",
"528 745 OFFCURVE",
"528 747 CURVE",
"528 786 OFFCURVE",
"562 822 OFFCURVE",
"619 822 CURVE SMOOTH"
);
}
);
width = 1143;
}
);
unicode = 0064;
},
{
glyphname = e;
lastChange = "2012-10-09 13:56:05 +0200";
layers = (
{
anchors = (
{
name = bottom;
position = "{630, 0}";
},
{
name = ogonek;
position = "{863, 10}";
},
{
name = top;
position = "{630, 1020}";
}
);
layerId = "47E17F20-96EA-4F25-9FDC-A26DCA823BDE";
name = Regular;
paths = (
{
closed = 1;
nodes = (
"248 293 LINE",
"443 130 LINE",
"201 39 LINE"
);
},
{
closed = 1;
nodes = (
"280 329 LINE",
"708 843 LINE",
"907 676 LINE",
"475 160 LINE"
);
},
{
closed = 1;
nodes = (
"742 881 LINE",
"811 967 LINE",
"820 976 OFFCURVE",
"831 979 OFFCURVE",
"842 981 CURVE SMOOTH",
"853 981 OFFCURVE",
"862 979 OFFCURVE",
"869 974 CURVE SMOOTH",
"1006 858 LINE SMOOTH",
"1028 841 OFFCURVE",
"1029 820 OFFCURVE",
"1010 799 CURVE SMOOTH",
"937 713 LINE"
);
}
);
width = 1224;
}
);
unicode = 0065;
},
{
glyphname = f;
lastChange = "2012-11-28 01:22:00 +0100";
layers = (
{
layerId = "47E17F20-96EA-4F25-9FDC-A26DCA823BDE";
name = Regular;
paths = (
{
closed = 1;
nodes = (
"293 964 OFFCURVE",
"287 963 OFFCURVE",
"281 961 CURVE SMOOTH",
"256 952 OFFCURVE",
"250 937 OFFCURVE",
"250 925 CURVE SMOOTH",
"250 912 OFFCURVE",
"243 889 OFFCURVE",
"219 870 CURVE SMOOTH",
"138 802 OFFCURVE",
"103 731 OFFCURVE",
"103 633 CURVE SMOOTH",
"103 562 OFFCURVE",
"122 477 OFFCURVE",
"154 367 CURVE",
"157 356 OFFCURVE",
"158 345 OFFCURVE",
"158 333 CURVE SMOOTH",
"158 307 OFFCURVE",
"151 280 OFFCURVE",
"136 253 CURVE SMOOTH",
"122 229 OFFCURVE",
"114 203 OFFCURVE",
"114 178 CURVE SMOOTH",
"114 123 OFFCURVE",
"156 73 OFFCURVE",
"281 62 CURVE SMOOTH",
"298 60 OFFCURVE",
"315 59 OFFCURVE",
"333 59 CURVE SMOOTH",
"409 59 OFFCURVE",
"493 75 OFFCURVE",
"584 106 CURVE SMOOTH",
"778 179 OFFCURVE",
"924 321 OFFCURVE",
"924 409 CURVE SMOOTH",
"924 417 OFFCURVE",
"923 425 OFFCURVE",
"920 432 CURVE SMOOTH",
"903 481 OFFCURVE",
"867 507 OFFCURVE",
"839 512 CURVE SMOOTH",
"810 517 OFFCURVE",
"773 541 OFFCURVE",
"752 588 CURVE SMOOTH",
"625 861 OFFCURVE",
"563 933 OFFCURVE",
"383 930 CURVE SMOOTH",
"361 930 OFFCURVE",
"343 937 OFFCURVE",
"329 951 CURVE",
"320 960 OFFCURVE",
"309 964 OFFCURVE",
"298 964 CURVE SMOOTH"
);
},
{
closed = 1;
nodes = (
"516 360 OFFCURVE",
"503 355 OFFCURVE",
"498 352 CURVE",
"403 319 OFFCURVE",
"329 279 OFFCURVE",
"274 231 CURVE",
"296 211 OFFCURVE",
"323 201 OFFCURVE",
"354 201 CURVE SMOOTH",
"377 201 OFFCURVE",
"402 206 OFFCURVE",
"430 217 CURVE SMOOTH",
"495 241 OFFCURVE",
"541 292 OFFCURVE",
"541 341 CURVE SMOOTH",
"541 349 OFFCURVE",
"540 357 OFFCURVE",
"537 365 CURVE",
"537 367 LINE"
);
},
{
closed = 1;
nodes = (
"768 446 OFFCURVE",
"787 444 OFFCURVE",
"802 440 CURVE SMOOTH",
"834 431 OFFCURVE",
"850 421 OFFCURVE",
"850 404 CURVE SMOOTH",
"850 392 OFFCURVE",
"842 376 OFFCURVE",
"826 354 CURVE SMOOTH",
"788 302 OFFCURVE",
"681 218 OFFCURVE",
"561 174 CURVE SMOOTH",
"481 145 OFFCURVE",
"395 133 OFFCURVE",
"328 133 CURVE SMOOTH",
"294 133 OFFCURVE",
"265 136 OFFCURVE",
"244 141 CURVE SMOOTH",
"213 148 OFFCURVE",
"196 156 OFFCURVE",
"193 164 CURVE",
"192 166 OFFCURVE",
"192 169 OFFCURVE",
"192 172 CURVE SMOOTH",
"192 184 OFFCURVE",
"198 199 OFFCURVE",
"210 218 CURVE SMOOTH",
"241 266 OFFCURVE",
"344 339 OFFCURVE",
"484 391 CURVE SMOOTH",
"587 429 OFFCURVE",
"681 446 OFFCURVE",
"745 446 CURVE SMOOTH"
);
}
);
width = 1026;
}
);
unicode = 0066;
},
{
glyphname = h;
lastChange = "2012-12-04 18:12:09 +0100";
layers = (
{
anchors = (
{
name = bottom;
position = "{720, 0}";
},
{
name = center;
position = "{720, 0}";
},
{
name = top;
position = "{720, 1020}";
}
);
layerId = "47E17F20-96EA-4F25-9FDC-A26DCA823BDE";
name = Regular;
paths = (
{
closed = 1;
nodes = (
"684 776 LINE",
"684 496 LINE",
"858 322 LINE",
"909 371 LINE",
"755 524 LINE",
"755 776 LINE"
);
},
{
closed = 1;
nodes = (
"460 993 OFFCURVE",
"247 783 OFFCURVE",
"241 520 CURVE",
"100 520 LINE",
"314 283 LINE",
"529 520 LINE",
"361 520 LINE",
"367 715 OFFCURVE",
"528 873 OFFCURVE",
"722 873 CURVE SMOOTH",
"923 873 OFFCURVE",
"1080 711 OFFCURVE",
"1080 510 CURVE SMOOTH",
"1080 309 OFFCURVE",
"923 147 OFFCURVE",
"722 147 CURVE SMOOTH",
"644 147 OFFCURVE",
"571 173 OFFCURVE",
"509 218 CURVE",
"426 128 LINE",
"515 62 OFFCURVE",
"613 27 OFFCURVE",
"722 27 CURVE SMOOTH",
"986 27 OFFCURVE",
"1201 242 OFFCURVE",
"1201 510 CURVE SMOOTH",
"1201 778 OFFCURVE",
"986 993 OFFCURVE",
"722 993 CURVE SMOOTH"
);
}
);
width = 1301;
}
);
unicode = 0068;
},
{
glyphname = i;
lastChange = "2012-06-11 23:26:31 +0200";
layers = (
{
layerId = "47E17F20-96EA-4F25-9FDC-A26DCA823BDE";
name = Regular;
paths = (
{
closed = 1;
nodes = (
"379 666 OFFCURVE",
"225 594 OFFCURVE",
"102 487 CURVE",
"129 442 LINE",
"148 456 OFFCURVE",
"172 469 OFFCURVE",
"200 482 CURVE SMOOTH",
"224 492 OFFCURVE",
"241 500 OFFCURVE",
"252 500 CURVE SMOOTH",
"260 500 OFFCURVE",
"264 495 OFFCURVE",
"264 483 CURVE SMOOTH",
"264 474 OFFCURVE",
"261 460 OFFCURVE",
"256 440 CURVE SMOOTH",
"195 180 LINE SMOOTH",
"185 142 OFFCURVE",
"180 110 OFFCURVE",
"180 84 CURVE SMOOTH",
"180 28 OFFCURVE",
"203 0 OFFCURVE",
"250 0 CURVE SMOOTH",
"318 0 OFFCURVE",
"456 63 OFFCURVE",
"573 180 CURVE",
"543 221 LINE",
"490 180 OFFCURVE",
"449 160 OFFCURVE",
"420 160 CURVE",
"411 159 OFFCURVE",
"407 167 OFFCURVE",
"407 181 CURVE SMOOTH",
"407 192 OFFCURVE",
"409 206 OFFCURVE",
"414 225 CURVE SMOOTH",
"485 500 LINE SMOOTH",
"495 540 OFFCURVE",
"501 573 OFFCURVE",
"501 598 CURVE SMOOTH",
"501 644 OFFCURVE",
"484 666 OFFCURVE",
"451 666 CURVE SMOOTH"
);
},
{
closed = 1;
nodes = (
"378 1024 OFFCURVE",
"326 957 OFFCURVE",
"326 897 CURVE",
"323 834 OFFCURVE",
"363 795 OFFCURVE",
"428 795 CURVE SMOOTH",
"504 795 OFFCURVE",
"565 856 OFFCURVE",
"565 924 CURVE SMOOTH",
"565 981 OFFCURVE",
"526 1024 OFFCURVE",
"461 1024 CURVE SMOOTH"
);
}
);
width = 675;
}
);
unicode = 0069;
},
{
glyphname = j;
lastChange = "2012-08-24 02:52:02 +0200";
layers = (
{
anchors = (
{
name = bottom;
position = "{866, 0}";
}
);
background = {
paths = (
{
closed = 1;
nodes = (
"383 971 OFFCURVE",
"328 951 OFFCURVE",
"297 911 CURVE SMOOTH",
"264 868 OFFCURVE",
"254 832 OFFCURVE",
"254 798 CURVE SMOOTH",
"254 767 OFFCURVE",
"262 737 OFFCURVE",
"268 705 CURVE",
"262 703 LINE",
"257 696 OFFCURVE",
"248 683 OFFCURVE",
"248 662 CURVE",
"251 629 OFFCURVE",
"259 608 OFFCURVE",
"274 600 CURVE SMOOTH",
"288 592 OFFCURVE",
"296 584 OFFCURVE",
"297 576 CURVE SMOOTH",
"302 543 OFFCURVE",
"313 517 OFFCURVE",
"329 500 CURVE SMOOTH",
"344 483 OFFCURVE",
"352 466 OFFCURVE",
"352 451 CURVE SMOOTH",
"352 366 OFFCURVE",
"312 330 OFFCURVE",
"184 283 CURVE SMOOTH",
"181 282 OFFCURVE",
"170 278 OFFCURVE",
"150 272 CURVE",
"130 265 OFFCURVE",
"114 259 OFFCURVE",
"102 254 CURVE",
"102 49 LINE",
"922 49 LINE",
"922 158 LINE SMOOTH",
"921 195 OFFCURVE",
"859 236 OFFCURVE",
"735 283 CURVE SMOOTH",
"607 328 OFFCURVE",
"567 367 OFFCURVE",
"567 451 CURVE SMOOTH",
"567 466 OFFCURVE",
"575 482 OFFCURVE",
"591 500 CURVE SMOOTH",
"607 518 OFFCURVE",
"618 543 OFFCURVE",
"623 576 CURVE SMOOTH",
"624 584 OFFCURVE",
"632 592 OFFCURVE",
"647 601 CURVE SMOOTH",
"661 609 OFFCURVE",
"669 629 OFFCURVE",
"672 662 CURVE",
"671 685 OFFCURVE",
"664 700 OFFCURVE",
"651 705 CURVE",
"666 795 LINE",
"671 868 OFFCURVE",
"614 971 OFFCURVE",
"461 971 CURVE SMOOTH"
);
},
{
closed = 1;
nodes = (
"1738 715 LINE",
"1738 561 LINE",
"1585 561 LINE",
"1585 459 LINE",
"1738 459 LINE",
"1738 305 LINE",
"1841 305 LINE",
"1841 459 LINE",
"1994 459 LINE",
"1994 561 LINE",
"1841 561 LINE",
"1841 715 LINE"
);
},
{
closed = 1;
nodes = (
"807 771 OFFCURVE",
"765 756 OFFCURVE",
"741 724 CURVE SMOOTH",
"715 690 OFFCURVE",
"707 661 OFFCURVE",
"707 636 CURVE SMOOTH",
"707 610 OFFCURVE",
"713 588 OFFCURVE",
"718 562 CURVE",
"713 561 LINE",
"709 555 OFFCURVE",
"703 545 OFFCURVE",
"703 528 CURVE",
"705 502 OFFCURVE",
"711 486 OFFCURVE",
"723 480 CURVE SMOOTH",
"734 474 OFFCURVE",
"741 468 OFFCURVE",
"741 461 CURVE SMOOTH",
"745 436 OFFCURVE",
"753 416 OFFCURVE",
"766 400 CURVE SMOOTH",
"778 388 OFFCURVE",
"784 376 OFFCURVE",
"784 363 CURVE SMOOTH",
"784 297 OFFCURVE",
"753 268 OFFCURVE",
"652 232 CURVE SMOOTH",
"649 231 OFFCURVE",
"643 228 OFFCURVE",
"627 223 CURVE",
"608 218 OFFCURVE",
"597 213 OFFCURVE",
"588 209 CURVE",
"588 49 LINE",
"1230 49 LINE",
"1230 134 LINE SMOOTH",
"1230 163 OFFCURVE",
"1181 195 OFFCURVE",
"1084 232 CURVE SMOOTH",
"985 267 OFFCURVE",
"952 298 OFFCURVE",
"952 363 CURVE SMOOTH",
"952 376 OFFCURVE",
"958 387 OFFCURVE",
"970 400 CURVE SMOOTH",
"985 417 OFFCURVE",
"991 436 OFFCURVE",
"996 461 CURVE SMOOTH",
"997 468 OFFCURVE",
"1005 474 OFFCURVE",
"1015 480 CURVE SMOOTH",
"1026 487 OFFCURVE",
"1032 502 OFFCURVE",
"1035 528 CURVE",
"1034 546 OFFCURVE",
"1027 559 OFFCURVE",
"1019 562 CURVE",
"1029 633 LINE",
"1034 690 OFFCURVE",
"988 771 OFFCURVE",
"869 771 CURVE SMOOTH"
);
}
);
};
layerId = "47E17F20-96EA-4F25-9FDC-A26DCA823BDE";
name = Regular;
paths = (
{
closed = 1;
nodes = (
"381 971 OFFCURVE",
"326 951 OFFCURVE",
"295 911 CURVE SMOOTH",
"262 868 OFFCURVE",
"252 832 OFFCURVE",
"252 798 CURVE SMOOTH",
"252 767 OFFCURVE",
"260 737 OFFCURVE",
"266 705 CURVE",
"260 703 LINE",
"255 696 OFFCURVE",
"246 683 OFFCURVE",
"246 662 CURVE",
"249 629 OFFCURVE",
"257 608 OFFCURVE",
"272 600 CURVE SMOOTH",
"286 592 OFFCURVE",
"294 584 OFFCURVE",
"295 576 CURVE SMOOTH",
"300 543 OFFCURVE",
"311 517 OFFCURVE",
"327 500 CURVE SMOOTH",
"342 483 OFFCURVE",
"350 466 OFFCURVE",
"350 451 CURVE SMOOTH",
"350 366 OFFCURVE",
"310 330 OFFCURVE",
"182 283 CURVE SMOOTH",
"179 282 OFFCURVE",
"168 278 OFFCURVE",
"148 272 CURVE",
"128 265 OFFCURVE",
"112 259 OFFCURVE",
"100 254 CURVE",
"100 49 LINE",
"920 49 LINE",
"920 158 LINE SMOOTH",
"919 195 OFFCURVE",
"857 236 OFFCURVE",
"733 283 CURVE SMOOTH",
"605 328 OFFCURVE",
"565 367 OFFCURVE",
"565 451 CURVE SMOOTH",
"565 466 OFFCURVE",
"573 482 OFFCURVE",
"589 500 CURVE SMOOTH",
"605 518 OFFCURVE",
"616 543 OFFCURVE",
"621 576 CURVE SMOOTH",
"622 584 OFFCURVE",
"630 592 OFFCURVE",
"645 601 CURVE SMOOTH",
"659 609 OFFCURVE",
"667 629 OFFCURVE",
"670 662 CURVE",
"669 685 OFFCURVE",
"662 700 OFFCURVE",
"649 705 CURVE",
"664 795 LINE",
"669 868 OFFCURVE",
"612 971 OFFCURVE",
"459 971 CURVE SMOOTH"
);
},
{
closed = 1;
nodes = (
"865 771 OFFCURVE",
"823 756 OFFCURVE",
"799 724 CURVE SMOOTH",
"773 690 OFFCURVE",
"765 661 OFFCURVE",
"765 636 CURVE SMOOTH",
"765 610 OFFCURVE",
"771 588 OFFCURVE",
"776 562 CURVE",
"771 561 LINE",
"767 555 OFFCURVE",
"761 545 OFFCURVE",
"761 528 CURVE",
"763 502 OFFCURVE",
"769 486 OFFCURVE",
"781 480 CURVE",
"792 474 OFFCURVE",
"799 468 OFFCURVE",
"799 461 CURVE",
"803 436 OFFCURVE",
"811 416 OFFCURVE",
"824 400 CURVE",
"836 388 OFFCURVE",
"842 376 OFFCURVE",
"842 363 CURVE SMOOTH",
"842 325 OFFCURVE",
"835 316 OFFCURVE",
"824 298 CURVE",
"936 256 OFFCURVE",
"980 195 OFFCURVE",
"980 158 CURVE SMOOTH",
"980 49 LINE",
"1288 49 LINE",
"1288 134 LINE SMOOTH",
"1288 163 OFFCURVE",
"1239 195 OFFCURVE",
"1142 232 CURVE SMOOTH",
"1043 267 OFFCURVE",
"1010 298 OFFCURVE",
"1010 363 CURVE SMOOTH",
"1010 376 OFFCURVE",
"1016 387 OFFCURVE",
"1028 400 CURVE SMOOTH",
"1043 417 OFFCURVE",
"1049 436 OFFCURVE",
"1054 461 CURVE",
"1055 468 OFFCURVE",
"1063 474 OFFCURVE",
"1073 480 CURVE SMOOTH",
"1084 487 OFFCURVE",
"1090 502 OFFCURVE",
"1093 528 CURVE",
"1092 546 OFFCURVE",
"1085 559 OFFCURVE",
"1077 562 CURVE",
"1087 633 LINE",
"1092 690 OFFCURVE",
"1046 771 OFFCURVE",
"927 771 CURVE SMOOTH"
);
},
{
closed = 1;
nodes = (
"1376 715 LINE",
"1376 561 LINE",
"1223 561 LINE",
"1223 459 LINE",
"1376 459 LINE",
"1376 305 LINE",
"1479 305 LINE",
"1479 459 LINE",
"1632 459 LINE",
"1632 561 LINE",
"1479 561 LINE",
"1479 715 LINE"
);
}
);
width = 1732;
}
);
unicode = 006A;
},
{
glyphname = k;
lastChange = "2012-08-24 22:50:44 +0200";
layers = (
{
anchors = (
{
name = bottom;
position = "{407, 0}";
}
);
layerId = "47E17F20-96EA-4F25-9FDC-A26DCA823BDE";
name = Regular;
paths = (
{
closed = 1;
nodes = (
"469 239 LINE SMOOTH",
"415 239 OFFCURVE",
"375 195 OFFCURVE",
"375 149 CURVE SMOOTH",
"375 123 OFFCURVE",
"383 101 OFFCURVE",
"401 84 CURVE",
"419 63 OFFCURVE",
"443 55 OFFCURVE",
"469 55 CURVE SMOOTH",
"941 55 LINE SMOOTH",
"991 55 OFFCURVE",
"1031 98 OFFCURVE",
"1031 149 CURVE SMOOTH",
"1031 195 OFFCURVE",
"991 239 OFFCURVE",
"941 239 CURVE SMOOTH"
);
},
{
closed = 1;
nodes = (
"469 607 LINE SMOOTH",
"415 607 OFFCURVE",
"375 562 OFFCURVE",
"375 515 CURVE SMOOTH",
"375 489 OFFCURVE",
"383 471 OFFCURVE",
"401 453 CURVE",
"419 432 OFFCURVE",
"443 422 OFFCURVE",
"469 422 CURVE SMOOTH",
"941 422 LINE SMOOTH",
"991 422 OFFCURVE",
"1031 464 OFFCURVE",
"1031 515 CURVE SMOOTH",
"1031 562 OFFCURVE",
"991 607 OFFCURVE",
"941 607 CURVE SMOOTH"
);
},
{
closed = 1;
nodes = (
"469 973 LINE SMOOTH",
"415 973 OFFCURVE",
"375 929 OFFCURVE",
"375 886 CURVE SMOOTH",
"375 858 OFFCURVE",
"383 837 OFFCURVE",
"401 818 CURVE",
"419 800 OFFCURVE",
"443 792 OFFCURVE",
"469 792 CURVE SMOOTH",
"941 792 LINE SMOOTH",
"991 792 OFFCURVE",
"1031 832 OFFCURVE",
"1031 886 CURVE SMOOTH",
"1031 929 OFFCURVE",
"991 973 OFFCURVE",
"941 973 CURVE SMOOTH"
);
},
{
closed = 1;
nodes = (
"282 1005 LINE SMOOTH",
"279 1008 OFFCURVE",
"273 1008 OFFCURVE",
"268 1005 CURVE SMOOTH",
"128 864 LINE SMOOTH",
"124 861 OFFCURVE",
"117 861 OFFCURVE",
"114 864 CURVE SMOOTH",
"55 921 LINE SMOOTH",
"54 926 OFFCURVE",
"47 926 OFFCURVE",
"40 921 CURVE SMOOTH",
"4 886 LINE SMOOTH",
"-1 881 OFFCURVE",
"-1 875 OFFCURVE",
"4 871 CURVE SMOOTH",
"114 762 LINE SMOOTH",
"117 757 OFFCURVE",
"124 757 OFFCURVE",
"128 762 CURVE SMOOTH",
"321 953 LINE SMOOTH",
"324 956 OFFCURVE",
"324 963 OFFCURVE",
"321 968 CURVE SMOOTH"
);
},
{
closed = 1;
nodes = (
"188 149 LINE",
"271 231 LINE SMOOTH",
"272 231 OFFCURVE",
"273 231 OFFCURVE",
"274 232 CURVE",
"275 237 OFFCURVE",
"274 241 OFFCURVE",
"271 244 CURVE SMOOTH",
"235 282 LINE SMOOTH",
"231 285 OFFCURVE",
"228 285 OFFCURVE",
"223 285 CURVE",
"222 284 OFFCURVE",
"221 284 OFFCURVE",
"221 282 CURVE SMOOTH",
"139 198 LINE",
"56 282 LINE SMOOTH",
"55 284 OFFCURVE",
"55 284 OFFCURVE",
"53 285 CURVE",
"50 285 OFFCURVE",
"48 285 OFFCURVE",
"44 282 CURVE SMOOTH",
"6 244 LINE SMOOTH",
"2 241 OFFCURVE",
"2 237 OFFCURVE",
"3 232 CURVE",
"4 231 OFFCURVE",
"5 231 OFFCURVE",
"6 231 CURVE SMOOTH",
"88 149 LINE",
"6 67 LINE SMOOTH",
"5 65 OFFCURVE",
"4 65 OFFCURVE",
"3 63 CURVE",
"2 59 OFFCURVE",
"2 57 OFFCURVE",
"6 54 CURVE SMOOTH",
"44 15 LINE SMOOTH",
"48 13 OFFCURVE",
"50 12 OFFCURVE",
"53 13 CURVE",
"55 13 OFFCURVE",
"55 14 OFFCURVE",
"56 15 CURVE SMOOTH",
"139 97 LINE",
"221 15 LINE SMOOTH",
"221 14 OFFCURVE",
"222 13 OFFCURVE",
"223 13 CURVE",
"228 12 OFFCURVE",
"231 13 OFFCURVE",
"235 15 CURVE SMOOTH",
"271 54 LINE SMOOTH",
"274 57 OFFCURVE",
"275 59 OFFCURVE",
"274 63 CURVE",
"273 65 OFFCURVE",
"272 65 OFFCURVE",
"271 67 CURVE SMOOTH"
);
},
{
closed = 1;
nodes = (
"282 634 LINE SMOOTH",
"279 637 OFFCURVE",
"273 637 OFFCURVE",
"268 634 CURVE SMOOTH",
"128 493 LINE SMOOTH",
"124 490 OFFCURVE",
"117 490 OFFCURVE",
"114 493 CURVE SMOOTH",
"55 550 LINE SMOOTH",
"54 555 OFFCURVE",
"47 555 OFFCURVE",
"40 550 CURVE SMOOTH",
"4 515 LINE SMOOTH",
"-1 510 OFFCURVE",
"-1 504 OFFCURVE",
"4 500 CURVE SMOOTH",
"114 391 LINE SMOOTH",
"117 386 OFFCURVE",
"124 386 OFFCURVE",
"128 391 CURVE SMOOTH",
"321 582 LINE SMOOTH",
"324 585 OFFCURVE",
"324 592 OFFCURVE",
"321 597 CURVE SMOOTH"
);
}
);
width = 1031;
}
);
unicode = 006B;
},
{
glyphname = l;
lastChange = "2012-08-24 02:52:12 +0200";
layers = (
{
anchors = (
{
name = bottom;
position = "{866, 0}";
},
{
name = top;
position = "{866, 0}";
},
{
name = topright;
position = "{1712, 0}";
}
);
background = {
paths = (
{
closed = 1;
nodes = (
"383 971 OFFCURVE",
"328 951 OFFCURVE",
"297 911 CURVE SMOOTH",
"264 868 OFFCURVE",
"254 832 OFFCURVE",
"254 798 CURVE SMOOTH",
"254 767 OFFCURVE",
"262 737 OFFCURVE",
"268 705 CURVE",
"262 703 LINE",
"257 696 OFFCURVE",
"248 683 OFFCURVE",
"248 662 CURVE",
"251 629 OFFCURVE",
"259 608 OFFCURVE",
"274 600 CURVE SMOOTH",
"288 592 OFFCURVE",
"296 584 OFFCURVE",
"297 576 CURVE SMOOTH",
"302 543 OFFCURVE",
"313 517 OFFCURVE",
"329 500 CURVE SMOOTH",
"344 483 OFFCURVE",
"352 466 OFFCURVE",
"352 451 CURVE SMOOTH",
"352 366 OFFCURVE",
"312 330 OFFCURVE",
"184 283 CURVE SMOOTH",
"181 282 OFFCURVE",
"170 278 OFFCURVE",
"150 272 CURVE",
"130 265 OFFCURVE",
"114 259 OFFCURVE",
"102 254 CURVE",
"102 49 LINE",
"922 49 LINE",
"922 158 LINE SMOOTH",
"921 195 OFFCURVE",
"859 236 OFFCURVE",
"735 283 CURVE SMOOTH",
"607 328 OFFCURVE",
"567 367 OFFCURVE",
"567 451 CURVE SMOOTH",
"567 466 OFFCURVE",
"575 482 OFFCURVE",
"591 500 CURVE SMOOTH",
"607 518 OFFCURVE",
"618 543 OFFCURVE",
"623 576 CURVE SMOOTH",
"624 584 OFFCURVE",
"632 592 OFFCURVE",
"647 601 CURVE SMOOTH",
"661 609 OFFCURVE",
"669 629 OFFCURVE",
"672 662 CURVE",
"671 685 OFFCURVE",
"664 700 OFFCURVE",
"651 705 CURVE",
"666 795 LINE",
"671 868 OFFCURVE",
"614 971 OFFCURVE",
"461 971 CURVE SMOOTH"
);
},
{
closed = 1;
nodes = (
"1738 715 LINE",
"1738 561 LINE",
"1585 561 LINE",
"1585 459 LINE",
"1738 459 LINE",
"1738 305 LINE",
"1841 305 LINE",
"1841 459 LINE",
"1994 459 LINE",
"1994 561 LINE",
"1841 561 LINE",
"1841 715 LINE"
);
},
{
closed = 1;
nodes = (
"807 771 OFFCURVE",
"765 756 OFFCURVE",
"741 724 CURVE SMOOTH",
"715 690 OFFCURVE",
"707 661 OFFCURVE",
"707 636 CURVE SMOOTH",
"707 610 OFFCURVE",
"713 588 OFFCURVE",
"718 562 CURVE",
"713 561 LINE",
"709 555 OFFCURVE",
"703 545 OFFCURVE",
"703 528 CURVE",
"705 502 OFFCURVE",
"711 486 OFFCURVE",
"723 480 CURVE SMOOTH",
"734 474 OFFCURVE",
"741 468 OFFCURVE",
"741 461 CURVE SMOOTH",
"745 436 OFFCURVE",
"753 416 OFFCURVE",
"766 400 CURVE SMOOTH",
"778 388 OFFCURVE",
"784 376 OFFCURVE",
"784 363 CURVE SMOOTH",
"784 297 OFFCURVE",
"753 268 OFFCURVE",
"652 232 CURVE SMOOTH",
"649 231 OFFCURVE",
"643 228 OFFCURVE",
"627 223 CURVE",
"608 218 OFFCURVE",
"597 213 OFFCURVE",
"588 209 CURVE",
"588 49 LINE",
"1230 49 LINE",
"1230 134 LINE SMOOTH",
"1230 163 OFFCURVE",
"1181 195 OFFCURVE",
"1084 232 CURVE SMOOTH",
"985 267 OFFCURVE",
"952 298 OFFCURVE",
"952 363 CURVE SMOOTH",
"952 376 OFFCURVE",
"958 387 OFFCURVE",
"970 400 CURVE SMOOTH",
"985 417 OFFCURVE",
"991 436 OFFCURVE",
"996 461 CURVE SMOOTH",
"997 468 OFFCURVE",
"1005 474 OFFCURVE",
"1015 480 CURVE SMOOTH",
"1026 487 OFFCURVE",
"1032 502 OFFCURVE",
"1035 528 CURVE",
"1034 546 OFFCURVE",
"1027 559 OFFCURVE",
"1019 562 CURVE",
"1029 633 LINE",
"1034 690 OFFCURVE",
"988 771 OFFCURVE",
"869 771 CURVE SMOOTH"
);
}
);
};
layerId = "47E17F20-96EA-4F25-9FDC-A26DCA823BDE";
name = Regular;
paths = (
{
closed = 1;
nodes = (
"381 971 OFFCURVE",
"326 951 OFFCURVE",
"295 911 CURVE SMOOTH",
"262 868 OFFCURVE",
"252 832 OFFCURVE",
"252 798 CURVE SMOOTH",
"252 767 OFFCURVE",
"260 737 OFFCURVE",
"266 705 CURVE",
"260 703 LINE",
"255 696 OFFCURVE",
"246 683 OFFCURVE",
"246 662 CURVE",
"249 629 OFFCURVE",
"257 608 OFFCURVE",
"272 600 CURVE SMOOTH",
"286 592 OFFCURVE",
"294 584 OFFCURVE",
"295 576 CURVE SMOOTH",
"300 543 OFFCURVE",
"311 517 OFFCURVE",
"327 500 CURVE SMOOTH",
"342 483 OFFCURVE",
"350 466 OFFCURVE",
"350 451 CURVE SMOOTH",
"350 366 OFFCURVE",
"310 330 OFFCURVE",
"182 283 CURVE SMOOTH",
"179 282 OFFCURVE",
"168 278 OFFCURVE",
"148 272 CURVE",
"128 265 OFFCURVE",
"112 259 OFFCURVE",
"100 254 CURVE",
"100 49 LINE",
"920 49 LINE",
"920 158 LINE SMOOTH",
"919 195 OFFCURVE",
"857 236 OFFCURVE",
"733 283 CURVE SMOOTH",
"605 328 OFFCURVE",
"565 367 OFFCURVE",
"565 451 CURVE SMOOTH",
"565 466 OFFCURVE",
"573 482 OFFCURVE",
"589 500 CURVE SMOOTH",
"605 518 OFFCURVE",
"616 543 OFFCURVE",
"621 576 CURVE SMOOTH",
"622 584 OFFCURVE",
"630 592 OFFCURVE",
"645 601 CURVE SMOOTH",
"659 609 OFFCURVE",
"667 629 OFFCURVE",
"670 662 CURVE",
"669 685 OFFCURVE",
"662 700 OFFCURVE",
"649 705 CURVE",
"664 795 LINE",
"669 868 OFFCURVE",
"612 971 OFFCURVE",
"459 971 CURVE SMOOTH"
);
},
{
closed = 1;
nodes = (
"865 771 OFFCURVE",
"823 756 OFFCURVE",
"799 724 CURVE SMOOTH",
"773 690 OFFCURVE",
"765 661 OFFCURVE",
"765 636 CURVE SMOOTH",
"765 610 OFFCURVE",
"771 588 OFFCURVE",
"776 562 CURVE",
"771 561 LINE",
"767 555 OFFCURVE",
"761 545 OFFCURVE",
"761 528 CURVE",
"763 502 OFFCURVE",
"769 486 OFFCURVE",
"781 480 CURVE",
"792 474 OFFCURVE",
"799 468 OFFCURVE",
"799 461 CURVE",
"803 436 OFFCURVE",
"811 416 OFFCURVE",
"824 400 CURVE",
"836 388 OFFCURVE",
"842 376 OFFCURVE",
"842 363 CURVE SMOOTH",
"842 325 OFFCURVE",
"835 316 OFFCURVE",
"824 298 CURVE",
"936 256 OFFCURVE",
"980 195 OFFCURVE",
"980 158 CURVE SMOOTH",
"980 49 LINE",
"1288 49 LINE",
"1288 134 LINE SMOOTH",
"1288 163 OFFCURVE",
"1239 195 OFFCURVE",
"1142 232 CURVE SMOOTH",
"1043 267 OFFCURVE",
"1010 298 OFFCURVE",
"1010 363 CURVE SMOOTH",
"1010 376 OFFCURVE",
"1016 387 OFFCURVE",
"1028 400 CURVE SMOOTH",
"1043 417 OFFCURVE",
"1049 436 OFFCURVE",
"1054 461 CURVE",
"1055 468 OFFCURVE",
"1063 474 OFFCURVE",
"1073 480 CURVE SMOOTH",
"1084 487 OFFCURVE",
"1090 502 OFFCURVE",
"1093 528 CURVE",
"1092 546 OFFCURVE",
"1085 559 OFFCURVE",
"1077 562 CURVE",
"1087 633 LINE",
"1092 690 OFFCURVE",
"1046 771 OFFCURVE",
"927 771 CURVE SMOOTH"
);
},
{
closed = 1;
nodes = (
"1376 561 LINE",
"1223 561 LINE",
"1223 459 LINE",
"1376 459 LINE",
"1479 459 LINE",
"1632 459 LINE",
"1632 561 LINE",
"1479 561 LINE"
);
}
);
width = 1732;
}
);
unicode = 006C;
},
{
glyphname = m;
lastChange = "2012-08-19 02:08:21 +0200";
layers = (
{
layerId = "47E17F20-96EA-4F25-9FDC-A26DCA823BDE";
name = Regular;
paths = (
{
closed = 1;
nodes = (
"745 394 LINE",
"1114 139 LINE",
"1114 724 LINE"
);
},
{
closed = 1;
nodes = (
"100 724 LINE",
"100 139 LINE",
"469 394 LINE"
);
},
{
closed = 1;
nodes = (
"607 269 LINE",
"519 348 LINE",
"100 95 LINE",
"1114 95 LINE",
"692 348 LINE"
);
},
{
closed = 1;
nodes = (
"1086 726 LINE",
"128 726 LINE",
"607 369 LINE"
);
}
);
width = 1214;
}
);
unicode = 006D;
},
{
glyphname = o;
lastChange = "2012-08-24 02:51:16 +0200";
layers = (
{
anchors = (
{
name = top;
position = "{614, 0}";
}
);
layerId = "47E17F20-96EA-4F25-9FDC-A26DCA823BDE";
name = Regular;
paths = (
{
closed = 1;
nodes = (
"383 971 OFFCURVE",
"328 951 OFFCURVE",
"297 911 CURVE SMOOTH",
"264 868 OFFCURVE",
"254 832 OFFCURVE",
"254 798 CURVE SMOOTH",
"254 767 OFFCURVE",
"262 737 OFFCURVE",
"268 705 CURVE",
"262 703 LINE",
"257 696 OFFCURVE",
"248 683 OFFCURVE",
"248 662 CURVE",
"251 629 OFFCURVE",
"259 608 OFFCURVE",
"274 600 CURVE SMOOTH",
"288 592 OFFCURVE",
"296 584 OFFCURVE",
"297 576 CURVE SMOOTH",
"302 543 OFFCURVE",
"313 517 OFFCURVE",
"329 500 CURVE SMOOTH",
"344 483 OFFCURVE",
"352 466 OFFCURVE",
"352 451 CURVE SMOOTH",
"352 366 OFFCURVE",
"312 330 OFFCURVE",
"184 283 CURVE SMOOTH",
"181 282 OFFCURVE",
"170 278 OFFCURVE",
"150 272 CURVE",
"130 265 OFFCURVE",
"114 259 OFFCURVE",
"102 254 CURVE",
"102 49 LINE",
"922 49 LINE",
"922 158 LINE SMOOTH",
"921 195 OFFCURVE",
"859 236 OFFCURVE",
"735 283 CURVE SMOOTH",
"607 328 OFFCURVE",
"567 367 OFFCURVE",
"567 451 CURVE SMOOTH",
"567 466 OFFCURVE",
"575 482 OFFCURVE",
"591 500 CURVE SMOOTH",
"607 518 OFFCURVE",
"618 543 OFFCURVE",
"623 576 CURVE SMOOTH",
"624 584 OFFCURVE",
"632 592 OFFCURVE",
"647 601 CURVE SMOOTH",
"661 609 OFFCURVE",
"669 629 OFFCURVE",
"672 662 CURVE",
"671 685 OFFCURVE",
"664 700 OFFCURVE",
"651 705 CURVE",
"666 795 LINE",
"671 868 OFFCURVE",
"614 971 OFFCURVE",
"461 971 CURVE SMOOTH"
);
},
{
closed = 1;
nodes = (
"870 715 LINE",
"870 561 LINE",
"717 561 LINE",
"717 459 LINE",
"870 459 LINE",
"870 305 LINE",
"973 305 LINE",
"973 459 LINE",
"1126 459 LINE",
"1126 561 LINE",
"973 561 LINE",
"973 715 LINE"
);
}
);
width = 1228;
}
);
unicode = 006F;
},
{
glyphname = p;
lastChange = "2012-08-24 02:51:19 +0200";
layers = (
{
anchors = (
{
name = bottom;
position = "{614, 0}";
},
{
name = top;
position = "{614, 0}";
},
{
name = topright;
position = "{1208, 0}";
}
);
layerId = "47E17F20-96EA-4F25-9FDC-A26DCA823BDE";
name = Regular;
paths = (
{
closed = 1;
nodes = (
"383 971 OFFCURVE",
"328 951 OFFCURVE",
"297 911 CURVE SMOOTH",
"264 868 OFFCURVE",
"254 832 OFFCURVE",
"254 798 CURVE SMOOTH",
"254 767 OFFCURVE",
"262 737 OFFCURVE",
"268 705 CURVE",
"262 703 LINE",
"257 696 OFFCURVE",
"248 683 OFFCURVE",
"248 662 CURVE",
"251 629 OFFCURVE",
"259 608 OFFCURVE",
"274 600 CURVE SMOOTH",
"288 592 OFFCURVE",
"296 584 OFFCURVE",
"297 576 CURVE SMOOTH",
"302 543 OFFCURVE",
"313 517 OFFCURVE",
"329 500 CURVE SMOOTH",
"344 483 OFFCURVE",
"352 466 OFFCURVE",
"352 451 CURVE SMOOTH",
"352 366 OFFCURVE",
"312 330 OFFCURVE",
"184 283 CURVE SMOOTH",
"181 282 OFFCURVE",
"170 278 OFFCURVE",
"150 272 CURVE",
"130 265 OFFCURVE",
"114 259 OFFCURVE",
"102 254 CURVE",
"102 49 LINE",
"922 49 LINE",
"922 158 LINE SMOOTH",
"921 195 OFFCURVE",
"859 236 OFFCURVE",
"735 283 CURVE SMOOTH",
"607 328 OFFCURVE",
"567 367 OFFCURVE",
"567 451 CURVE SMOOTH",
"567 466 OFFCURVE",
"575 482 OFFCURVE",
"591 500 CURVE SMOOTH",
"607 518 OFFCURVE",
"618 543 OFFCURVE",
"623 576 CURVE SMOOTH",
"624 584 OFFCURVE",
"632 592 OFFCURVE",
"647 601 CURVE SMOOTH",
"661 609 OFFCURVE",
"669 629 OFFCURVE",
"672 662 CURVE",
"671 685 OFFCURVE",
"664 700 OFFCURVE",
"651 705 CURVE",
"666 795 LINE",
"671 868 OFFCURVE",
"614 971 OFFCURVE",
"461 971 CURVE SMOOTH"
);
},
{
closed = 1;
nodes = (
"717 561 LINE",
"717 459 LINE",
"1126 459 LINE",
"1126 561 LINE"
);
}
);
width = 1228;
}
);
unicode = 0070;
},
{
glyphname = r;
lastChange = "2012-08-18 23:23:36 +0200";
layers = (
{
anchors = (
{
name = bottom;
position = "{517, 0}";
},
{
name = top;
position = "{517, 1661}";
}
);
layerId = "47E17F20-96EA-4F25-9FDC-A26DCA823BDE";
name = Regular;
paths = (
{
closed = 1;
nodes = (
"239 927 LINE SMOOTH",
"201 927 OFFCURVE",
"168 915 OFFCURVE",
"141 886 CURVE SMOOTH",
"114 859 OFFCURVE",
"100 825 OFFCURVE",
"100 790 CURVE SMOOTH",
"100 232 LINE SMOOTH",
"100 195 OFFCURVE",
"114 158 OFFCURVE",
"139 136 CURVE SMOOTH",
"168 109 OFFCURVE",
"201 93 OFFCURVE",
"239 93 CURVE SMOOTH",
"795 93 LINE SMOOTH",
"833 93 OFFCURVE",
"866 109 OFFCURVE",
"895 136 CURVE SMOOTH",
"920 158 OFFCURVE",
"934 195 OFFCURVE",
"934 232 CURVE SMOOTH",
"934 790 LINE SMOOTH",
"934 825 OFFCURVE",
"920 859 OFFCURVE",
"893 886 CURVE SMOOTH",
"866 915 OFFCURVE",
"833 927 OFFCURVE",
"795 927 CURVE SMOOTH"
);
},
{
closed = 1;
nodes = (
"364 257 OFFCURVE",
"348 248 OFFCURVE",
"328 248 CURVE SMOOTH",
"308 248 OFFCURVE",
"291 257 OFFCURVE",
"279 270 CURVE",
"264 285 OFFCURVE",
"257 303 OFFCURVE",
"257 322 CURVE SMOOTH",
"257 340 OFFCURVE",
"264 356 OFFCURVE",
"279 372 CURVE",
"292 383 OFFCURVE",
"309 393 OFFCURVE",
"328 393 CURVE SMOOTH",
"348 393 OFFCURVE",
"364 383 OFFCURVE",
"379 372 CURVE",
"392 356 OFFCURVE",
"398 340 OFFCURVE",
"398 322 CURVE SMOOTH",
"398 303 OFFCURVE",
"392 285 OFFCURVE",
"379 270 CURVE"
);
},
{
closed = 1;
nodes = (
"510 248 LINE",
"510 319 OFFCURVE",
"484 378 OFFCURVE",
"432 429 CURVE SMOOTH",
"385 475 OFFCURVE",
"326 500 OFFCURVE",
"257 500 CURVE",
"257 602 LINE",
"353 602 OFFCURVE",
"436 568 OFFCURVE",
"508 497 CURVE SMOOTH",
"574 430 OFFCURVE",
"608 346 OFFCURVE",
"608 248 CURVE"
);
},
{
closed = 1;
nodes = (
"686 248 LINE",
"686 370 OFFCURVE",
"643 468 OFFCURVE",
"559 555 CURVE SMOOTH",
"478 636 OFFCURVE",
"375 679 OFFCURVE",
"257 679 CURVE",
"257 786 LINE",
"353 786 OFFCURVE",
"444 759 OFFCURVE",
"522 711 CURVE SMOOTH",
"605 663 OFFCURVE",
"670 600 OFFCURVE",
"718 517 CURVE SMOOTH",
"765 436 OFFCURVE",
"789 346 OFFCURVE",
"789 248 CURVE"
);
}
);
width = 1034;
}
);
unicode = 0072;
},
{
glyphname = s;
lastChange = "2012-09-21 13:58:03 +0200";
layers = (
{
anchors = (
{
name = bottom;
position = "{531, 0}";
},
{
name = top;
position = "{531, 0}";
}
);
layerId = "47E17F20-96EA-4F25-9FDC-A26DCA823BDE";
name = Regular;
paths = (
{
closed = 1;
nodes = (
"293 940 OFFCURVE",
"100 747 OFFCURVE",
"100 510 CURVE SMOOTH",
"100 391 OFFCURVE",
"142 290 OFFCURVE",
"226 206 CURVE SMOOTH",
"310 122 OFFCURVE",
"412 80 OFFCURVE",
"531 80 CURVE SMOOTH",
"769 80 OFFCURVE",
"961 273 OFFCURVE",
"961 510 CURVE SMOOTH",
"961 747 OFFCURVE",
"769 940 OFFCURVE",
"531 940 CURVE SMOOTH"
);
},
{
closed = 1;
nodes = (
"346 335 LINE",
"330 351 OFFCURVE",
"316 366 OFFCURVE",
"308 383 CURVE SMOOTH",
"298 399 OFFCURVE",
"293 417 OFFCURVE",
"285 436 CURVE",
"181 454 LINE",
"174 491 OFFCURVE",
"173 531 OFFCURVE",
"183 568 CURVE",
"284 584 LINE",
"296 623 OFFCURVE",
"314 656 OFFCURVE",
"344 687 CURVE",
"308 785 LINE",
"323 796 OFFCURVE",
"336 807 OFFCURVE",
"354 818 CURVE SMOOTH",
"372 827 OFFCURVE",
"389 836 OFFCURVE",
"408 842 CURVE",
"473 762 LINE",
"513 771 OFFCURVE",
"553 771 OFFCURVE",
"592 762 CURVE",
"657 842 LINE",
"692 828 OFFCURVE",
"727 808 OFFCURVE",
"756 787 CURVE",
"720 687 LINE",
"733 673 OFFCURVE",
"745 658 OFFCURVE",
"754 641 CURVE SMOOTH",
"765 624 OFFCURVE",
"772 605 OFFCURVE",
"778 586 CURVE",
"881 570 LINE",
"887 532 OFFCURVE",
"888 492 OFFCURVE",
"880 454 CURVE",
"779 436 LINE",
"766 400 OFFCURVE",
"747 367 OFFCURVE",
"721 335 CURVE",
"756 238 LINE",
"743 226 OFFCURVE",
"727 216 OFFCURVE",
"709 205 CURVE SMOOTH",
"692 195 OFFCURVE",
"674 186 OFFCURVE",
"655 180 CURVE",
"590 260 LINE",
"549 253 OFFCURVE",
"511 253 OFFCURVE",
"473 258 CURVE",
"406 179 LINE",
"370 193 OFFCURVE",
"336 214 OFFCURVE",
"307 236 CURVE"
);
},
{
closed = 1;
nodes = (
"399 510 OFFCURVE",
"402 479 OFFCURVE",
"420 447 CURVE SMOOTH",
"455 387 OFFCURVE",
"534 366 OFFCURVE",
"595 400 CURVE SMOOTH",
"657 435 OFFCURVE",
"676 516 OFFCURVE",
"643 576 CURVE SMOOTH",
"607 636 OFFCURVE",
"529 659 OFFCURVE",
"467 623 CURVE SMOOTH",
"436 606 OFFCURVE",
"417 578 OFFCURVE",
"407 544 CURVE SMOOTH"
);
}
);
width = 1061;
}
);
unicode = 0073;
},
{
glyphname = t;
lastChange = "2012-08-18 23:23:16 +0200";
layers = (
{
anchors = (
{
name = bottom;
position = "{256, 0}";
},
{
name = center;
position = "{256, 510}";
},
{
name = top;
position = "{256, 1020}";
}
);
layerId = "47E17F20-96EA-4F25-9FDC-A26DCA823BDE";
name = Regular;
paths = (
{
closed = 1;
nodes = (
"288 691 LINE",
"0 403 LINE",
"224 179 LINE",
"512 467 LINE",
"512 691 LINE"
);
},
{
closed = 1;
nodes = (
"440 554 OFFCURVE",
"429 549 OFFCURVE",
"416 549 CURVE SMOOTH",
"403 549 OFFCURVE",
"393 554 OFFCURVE",
"384 563 CURVE SMOOTH",
"375 572 OFFCURVE",
"370 582 OFFCURVE",
"370 595 CURVE SMOOTH",
"370 608 OFFCURVE",
"375 619 OFFCURVE",
"384 628 CURVE SMOOTH",
"393 637 OFFCURVE",
"403 641 OFFCURVE",
"416 641 CURVE SMOOTH",
"429 641 OFFCURVE",
"440 637 OFFCURVE",
"449 628 CURVE SMOOTH",
"458 619 OFFCURVE",
"462 608 OFFCURVE",
"462 595 CURVE SMOOTH",
"462 582 OFFCURVE",
"458 572 OFFCURVE",
"449 563 CURVE SMOOTH"
);
}
);
width = 512;
}
);
unicode = 0074;
},
{
glyphname = w;
lastChange = "2012-08-24 23:00:59 +0200";
layers = (
{
anchors = (
{
name = top;
position = "{595, 0}";
}
);
layerId = "47E17F20-96EA-4F25-9FDC-A26DCA823BDE";
name = Regular;
paths = (
{
closed = 1;
nodes = (
"102 103 OFFCURVE",
"101 115 OFFCURVE",
"109 126 CURVE",
"563 927 LINE",
"571 939 OFFCURVE",
"582 945 OFFCURVE",
"596 945 CURVE SMOOTH",
"611 945 OFFCURVE",
"622 939 OFFCURVE",
"627 927 CURVE",
"1081 126 LINE SMOOTH",
"1084 121 OFFCURVE",
"1086 115 OFFCURVE",
"1086 109 CURVE SMOOTH",
"1086 103 OFFCURVE",
"1084 97 OFFCURVE",
"1081 91 CURVE",
"1074 80 OFFCURVE",
"1064 75 OFFCURVE",
"1051 75 CURVE SMOOTH",
"139 75 LINE SMOOTH",
"126 75 OFFCURVE",
"116 80 OFFCURVE",
"109 91 CURVE"
);
},
{
closed = 1;
nodes = (
"532 177 LINE",
"657 177 LINE",
"657 280 LINE",
"532 280 LINE"
);
},
{
closed = 1;
nodes = (
"532 357 LINE",
"657 357 LINE",
"657 665 LINE",
"532 665 LINE"
);
}
);
width = 1189;
}
);
unicode = 0077;
},
{
glyphname = x;
lastChange = "2012-08-25 00:29:25 +0200";
layers = (
{
anchors = (
{
name = top;
position = "{530, 0}";
}
);
layerId = "47E17F20-96EA-4F25-9FDC-A26DCA823BDE";
name = Regular;
paths = (
{
closed = 1;
nodes = (
"293 940 OFFCURVE",
"100 747 OFFCURVE",
"100 510 CURVE SMOOTH",
"100 391 OFFCURVE",
"142 290 OFFCURVE",
"226 206 CURVE SMOOTH",
"310 122 OFFCURVE",
"412 80 OFFCURVE",
"531 80 CURVE SMOOTH",
"769 80 OFFCURVE",
"961 273 OFFCURVE",
"961 510 CURVE SMOOTH",
"961 747 OFFCURVE",
"769 940 OFFCURVE",
"531 940 CURVE SMOOTH"
);
},
{
closed = 1;
nodes = (
"764 677 LINE SMOOTH",
"770 670 OFFCURVE",
"770 662 OFFCURVE",
"763 655 CURVE SMOOTH",
"630 521 LINE SMOOTH",
"623 514 OFFCURVE",
"623 506 OFFCURVE",
"630 499 CURVE SMOOTH",
"763 363 LINE SMOOTH",
"770 357 OFFCURVE",
"770 348 OFFCURVE",
"763 341 CURVE SMOOTH",
"697 275 LINE SMOOTH",
"691 269 OFFCURVE",
"681 269 OFFCURVE",
"675 275 CURVE SMOOTH",
"541 411 LINE SMOOTH",
"535 417 OFFCURVE",
"525 417 OFFCURVE",
"519 411 CURVE SMOOTH",
"384 275 LINE SMOOTH",
"378 269 OFFCURVE",
"368 269 OFFCURVE",
"362 275 CURVE SMOOTH",
"296 341 LINE SMOOTH",
"289 348 OFFCURVE",
"289 357 OFFCURVE",
"296 363 CURVE SMOOTH",
"429 499 LINE SMOOTH",
"436 506 OFFCURVE",
"436 514 OFFCURVE",
"429 521 CURVE SMOOTH",
"296 655 LINE SMOOTH",
"289 662 OFFCURVE",
"289 670 OFFCURVE",
"295 677 CURVE SMOOTH",
"362 745 LINE SMOOTH",
"368 751 OFFCURVE",
"378 751 OFFCURVE",
"384 745 CURVE SMOOTH",
"519 609 LINE SMOOTH",
"525 603 OFFCURVE",
"535 603 OFFCURVE",
"541 609 CURVE SMOOTH",
"675 745 LINE SMOOTH",
"681 751 OFFCURVE",
"691 751 OFFCURVE",
"697 745 CURVE SMOOTH"
);
}
);
width = 1061;
}
);
unicode = 0078;
},
{
glyphname = y;
lastChange = "2012-10-09 14:07:20 +0200";
layers = (
{
anchors = (
{
name = bottom;
position = "{612, 0}";
},
{
name = ogonek;
position = "{1103, 10}";
},
{
name = top;
position = "{612, 1020}";
}
);
layerId = "47E17F20-96EA-4F25-9FDC-A26DCA823BDE";
name = Regular;
paths = (
{
closed = 1;
nodes = (
"487 797 OFFCURVE",
"363 759 OFFCURVE",
"287 708 CURVE SMOOTH",
"210 657 OFFCURVE",
"148 596 OFFCURVE",
"121 555 CURVE SMOOTH",
"107 534 OFFCURVE",
"100 519 OFFCURVE",
"100 510 CURVE SMOOTH",
"100 501 OFFCURVE",
"107 486 OFFCURVE",
"121 465 CURVE SMOOTH",
"148 424 OFFCURVE",
"210 363 OFFCURVE",
"287 312 CURVE SMOOTH",
"363 261 OFFCURVE",
"487 223 OFFCURVE",
"613 223 CURVE SMOOTH",
"739 223 OFFCURVE",
"862 261 OFFCURVE",
"938 312 CURVE SMOOTH",
"1014 363 OFFCURVE",
"1076 424 OFFCURVE",
"1104 465 CURVE",
"1117 486 OFFCURVE",
"1124 501 OFFCURVE",
"1124 510 CURVE SMOOTH",
"1124 519 OFFCURVE",
"1117 534 OFFCURVE",
"1104 555 CURVE",
"1076 596 OFFCURVE",
"1014 657 OFFCURVE",
"938 708 CURVE SMOOTH",
"862 759 OFFCURVE",
"739 797 OFFCURVE",
"613 797 CURVE SMOOTH"
);
},
{
closed = 1;
nodes = (
"739 731 OFFCURVE",
"840 630 OFFCURVE",
"840 510 CURVE SMOOTH",
"840 387 OFFCURVE",
"737 289 OFFCURVE",
"612 289 CURVE SMOOTH",
"484 289 OFFCURVE",
"383 387 OFFCURVE",
"383 510 CURVE SMOOTH",
"383 630 OFFCURVE",
"487 731 OFFCURVE",
"613 731 CURVE SMOOTH"
);
},
{
closed = 1;
nodes = (
"549 621 OFFCURVE",
"498 570 OFFCURVE",
"498 510 CURVE SMOOTH",
"498 480 OFFCURVE",
"509 454 OFFCURVE",
"532 432 CURVE SMOOTH",
"554 410 OFFCURVE",
"581 399 OFFCURVE",
"613 399 CURVE SMOOTH",
"676 399 OFFCURVE",
"725 450 OFFCURVE",
"725 510 CURVE",
"725 569 OFFCURVE",
"676 621 OFFCURVE",
"612 621 CURVE SMOOTH"
);
}
);
width = 1224;
}
);
unicode = 0079;
},
{
glyphname = acircumflex;
lastChange = "2012-09-09 15:44:15 +0200";
layers = (
{
anchors = (
{
name = bottom;
position = "{605, 0}";
},
{
name = center;
position = "{605, 300}";
}
);
layerId = "47E17F20-96EA-4F25-9FDC-A26DCA823BDE";
name = Regular;
paths = (
{
closed = 1;
nodes = (
"1034 664 LINE",
"176 664 LINE",
"176 746 LINE",
"145 715 LINE",
"132 701 LINE",
"120 689 OFFCURVE",
"119 687 OFFCURVE",
"112 676 CURVE",
"104 665 OFFCURVE",
"103 658 OFFCURVE",
"103 649 CURVE SMOOTH",
"103 643 OFFCURVE",
"104 631 OFFCURVE",
"106 612 CURVE",
"111 593 OFFCURVE",
"124 516 OFFCURVE",
"147 381 CURVE SMOOTH",
"169 245 OFFCURVE",
"182 169 OFFCURVE",
"186 152 CURVE",
"192 117 OFFCURVE",
"213 100 OFFCURVE",
"248 100 CURVE SMOOTH",
"963 100 LINE SMOOTH",
"1031 101 OFFCURVE",
"1020 123 OFFCURVE",
"1045 271 CURVE SMOOTH",
"1069 418 OFFCURVE",
"1096 573 OFFCURVE",
"1104 612 CURVE",
"1105 623 OFFCURVE",
"1106 633 OFFCURVE",
"1106 641 CURVE SMOOTH",
"1106 657 OFFCURVE",
"1106 665 OFFCURVE",
"1099 676 CURVE SMOOTH",
"1092 687 OFFCURVE",
"1090 689 OFFCURVE",
"1077 702 CURVE",
"1070 708 OFFCURVE",
"1066 712 OFFCURVE",
"1063 715 CURVE SMOOTH",
"1034 746 LINE"
);
},
{
closed = 1;
nodes = (
"809 438 LINE",
"807 424 LINE",
"807 408 OFFCURVE",
"789 387 OFFCURVE",
"758 387 CURVE SMOOTH",
"453 387 LINE SMOOTH",
"418 387 OFFCURVE",
"401 404 OFFCURVE",
"401 438 CURVE SMOOTH",
"401 541 LINE",
"473 541 LINE",
"473 459 LINE",
"737 459 LINE",
"737 541 LINE",
"809 541 LINE"
);
},
{
closed = 1;
nodes = (
"287 817 LINE",
"270 814 OFFCURVE",
"248 797 OFFCURVE",
"248 766 CURVE SMOOTH",
"248 715 LINE",
"963 715 LINE",
"963 766 LINE SMOOTH",
"963 797 OFFCURVE",
"937 815 OFFCURVE",
"926 816 CURVE",
"920 817 OFFCURVE",
"915 817 OFFCURVE",
"911 817 CURVE SMOOTH"
);
},
{
closed = 1;
nodes = (
"389 920 LINE",
"373 917 OFFCURVE",
"350 899 OFFCURVE",
"350 868 CURVE",
"860 868 LINE",
"860 899 OFFCURVE",
"834 918 OFFCURVE",
"823 919 CURVE",
"818 920 OFFCURVE",
"813 920 OFFCURVE",
"809 920 CURVE SMOOTH"
);
}
);
width = 1210;
}
);
unicode = 00E2;
},
{
glyphname = ccedilla;
lastChange = "2012-12-04 18:17:13 +0100";
layers = (
{
layerId = "47E17F20-96EA-4F25-9FDC-A26DCA823BDE";
name = Regular;
paths = (
{
closed = 1;
nodes = (
"205 715 LINE SMOOTH",
"150 715 OFFCURVE",
"102 667 OFFCURVE",
"102 612 CURVE SMOOTH",
"102 305 LINE SMOOTH",
"102 248 OFFCURVE",
"150 203 OFFCURVE",
"205 203 CURVE SMOOTH",
"256 203 LINE",
"256 49 LINE",
"410 203 LINE",
"666 203 LINE SMOOTH",
"723 203 OFFCURVE",
"768 248 OFFCURVE",
"768 305 CURVE SMOOTH",
"768 397 LINE",
"574 397 LINE SMOOTH",
"460 397 OFFCURVE",
"399 458 OFFCURVE",
"399 572 CURVE SMOOTH",
"399 715 LINE"
);
},
{
closed = 1;
nodes = (
"563 971 LINE SMOOTH",
"508 971 OFFCURVE",
"461 923 OFFCURVE",
"461 868 CURVE SMOOTH",
"461 574 LINE SMOOTH",
"461 499 OFFCURVE",
"501 459 OFFCURVE",
"576 459 CURVE SMOOTH",
"819 459 LINE",
"973 305 LINE",
"973 459 LINE",
"1024 459 LINE SMOOTH",
"1081 459 OFFCURVE",
"1126 504 OFFCURVE",
"1126 561 CURVE SMOOTH",
"1126 868 LINE SMOOTH",
"1126 923 OFFCURVE",
"1081 971 OFFCURVE",
"1024 971 CURVE SMOOTH"
);
}
);
width = 1228;
}
);
unicode = 00E7;
},
{
glyphname = ecircumflex;
lastChange = "2012-09-21 02:00:08 +0200";
layers = (
{
layerId = "47E17F20-96EA-4F25-9FDC-A26DCA823BDE";
name = Regular;
paths = (
{
closed = 1;
nodes = (
"641 781 LINE",
"762 661 LINE",
"341 242 LINE",
"403 178 LINE",
"823 599 LINE",
"944 480 LINE",
"944 781 LINE"
);
},
{
closed = 1;
nodes = (
"703 58 LINE",
"221 58 LINE",
"221 542 LINE",
"461 542 LINE",
"583 661 LINE",
"100 661 LINE",
"100 -61 LINE",
"823 -61 LINE",
"823 418 LINE",
"703 300 LINE"
);
}
);
width = 1044;
}
);
unicode = 00EA;
},
{
glyphname = edieresis;
lastChange = "2012-08-24 23:00:10 +0200";
layers = (
{
anchors = (
{
name = bottom;
position = "{514, 0}";
},
{
name = top;
position = "{514, 0}";
},
{
name = topright;
position = "{933, 0}";
}
);
layerId = "47E17F20-96EA-4F25-9FDC-A26DCA823BDE";
name = Regular;
paths = (
{
closed = 1;
nodes = (
"384 418 LINE",
"534 292 LINE",
"341 219 LINE"
);
},
{
closed = 1;
nodes = (
"417 460 LINE",
"755 869 LINE",
"914 731 LINE",
"573 324 LINE"
);
},
{
closed = 1;
nodes = (
"796 908 LINE",
"847 975 LINE",
"863 992 OFFCURVE",
"885 987 OFFCURVE",
"903 972 CURVE SMOOTH",
"1000 888 LINE SMOOTH",
"1017 873 OFFCURVE",
"1020 860 OFFCURVE",
"1008 842 CURVE SMOOTH",
"948 775 LINE"
);
},
{
closed = 1;
nodes = (
"668 847 LINE",
"216 847 LINE SMOOTH",
"153 847 OFFCURVE",
"100 793 OFFCURVE",
"100 730 CURVE SMOOTH",
"100 145 LINE SMOOTH",
"100 80 OFFCURVE",
"153 28 OFFCURVE",
"216 28 CURVE SMOOTH",
"810 28 LINE SMOOTH",
"876 28 OFFCURVE",
"927 80 OFFCURVE",
"927 145 CURVE SMOOTH",
"927 660 LINE",
"810 519 LINE",
"810 145 LINE",
"216 145 LINE",
"216 730 LINE",
"570 730 LINE SMOOTH"
);
}
);
width = 1115;
}
);
unicode = 00EB;
},
{
glyphname = igrave;
lastChange = "2012-11-26 16:30:20 +0100";
layers = (
{
layerId = "47E17F20-96EA-4F25-9FDC-A26DCA823BDE";
name = Regular;
paths = (
{
closed = 1;
nodes = (
"116 800 LINE",
"105 810 OFFCURVE",
"100 823 OFFCURVE",
"100 838 CURVE SMOOTH",
"100 868 OFFCURVE",
"124 892 OFFCURVE",
"155 892 CURVE SMOOTH",
"169 892 OFFCURVE",
"182 887 OFFCURVE",
"192 876 CURVE",
"193 876 LINE",
"587 604 LINE",
"588 604 LINE",
"604 594 OFFCURVE",
"624 588 OFFCURVE",
"646 588 CURVE SMOOTH",
"668 588 OFFCURVE",
"688 595 OFFCURVE",
"708 607 CURVE",
"1099 876 LINE",
"1100 876 LINE",
"1110 887 OFFCURVE",
"1123 892 OFFCURVE",
"1137 892 CURVE SMOOTH",
"1168 892 OFFCURVE",
"1192 868 OFFCURVE",
"1192 838 CURVE SMOOTH",
"1192 823 OFFCURVE",
"1187 810 OFFCURVE",
"1176 800 CURVE",
"1176 799 LINE",
"693 155 LINE",
"683 136 OFFCURVE",
"667 128 OFFCURVE",
"646 128 CURVE SMOOTH",
"625 128 OFFCURVE",
"609 136 OFFCURVE",
"599 155 CURVE",
"116 799 LINE"
);
}
);
width = 1292;
}
);
unicode = 00EC;
},
{
glyphname = iacute;
lastChange = "2012-11-26 16:30:36 +0100";
layers = (
{
layerId = "47E17F20-96EA-4F25-9FDC-A26DCA823BDE";
name = Regular;
paths = (
{
closed = 1;
nodes = (
"105 155 OFFCURVE",
"100 168 OFFCURVE",
"100 182 CURVE SMOOTH",
"100 197 OFFCURVE",
"105 210 OFFCURVE",
"116 220 CURVE",
"116 221 LINE",
"599 865 LINE",
"609 884 OFFCURVE",
"625 892 OFFCURVE",
"646 892 CURVE SMOOTH",
"667 892 OFFCURVE",
"683 884 OFFCURVE",
"693 865 CURVE",
"1176 221 LINE",
"1176 220 LINE",
"1187 210 OFFCURVE",
"1192 197 OFFCURVE",
"1192 182 CURVE SMOOTH",
"1192 152 OFFCURVE",
"1168 128 OFFCURVE",
"1137 128 CURVE SMOOTH",
"1123 128 OFFCURVE",
"1110 133 OFFCURVE",
"1100 144 CURVE",
"1099 144 LINE",
"708 412 LINE",
"688 425 OFFCURVE",
"667 432 OFFCURVE",
"646 432 CURVE SMOOTH",
"624 432 OFFCURVE",
"605 426 OFFCURVE",
"588 416 CURVE",
"587 416 LINE",
"193 144 LINE",
"192 144 LINE",
"182 133 OFFCURVE",
"169 128 OFFCURVE",
"155 128 CURVE SMOOTH",
"140 128 OFFCURVE",
"127 133 OFFCURVE",
"116 144 CURVE SMOOTH"
);
}
);
width = 1292;
}
);
unicode = 00ED;
},
{
glyphname = oe;
lastChange = "2012-09-16 20:31:10 +0200";
layers = (
{
anchors = (
{
name = top;
position = "{491, 0}";
}
);
layerId = "47E17F20-96EA-4F25-9FDC-A26DCA823BDE";
name = Regular;
paths = (
{
closed = 1;
nodes = (
"531 739 LINE SMOOTH",
"523 747 OFFCURVE",
"512 747 OFFCURVE",
"505 739 CURVE SMOOTH",
"239 474 LINE SMOOTH",
"233 467 OFFCURVE",
"220 467 OFFCURVE",
"213 474 CURVE SMOOTH",
"103 584 LINE SMOOTH",
"96 591 OFFCURVE",
"85 591 OFFCURVE",
"77 584 CURVE SMOOTH",
"7 513 LINE SMOOTH",
"-2 506 OFFCURVE",
"-2 494 OFFCURVE",
"7 487 CURVE SMOOTH",
"213 280 LINE SMOOTH",
"220 273 OFFCURVE",
"233 273 OFFCURVE",
"239 280 CURVE SMOOTH",
"601 642 LINE SMOOTH",
"610 649 OFFCURVE",
"610 662 OFFCURVE",
"601 669 CURVE SMOOTH"
);
}
);
width = 608;
}
);
unicode = 0153;
},
{
glyphname = W.001;
lastChange = "2012-09-21 13:56:21 +0200";
layers = (
{
anchors = (
{
name = top;
position = "{1024, 1020}";
}
);
layerId = "47E17F20-96EA-4F25-9FDC-A26DCA823BDE";
name = Regular;
paths = (
{
closed = 1;
nodes = (
"906 219 LINE",
"890 235 OFFCURVE",
"876 250 OFFCURVE",
"868 267 CURVE SMOOTH",
"858 283 OFFCURVE",
"853 301 OFFCURVE",
"845 320 CURVE",
"742 338 LINE",
"735 375 OFFCURVE",
"734 415 OFFCURVE",
"744 452 CURVE",
"844 468 LINE",
"856 507 OFFCURVE",
"874 540 OFFCURVE",
"904 571 CURVE",
"868 669 LINE",
"883 680 OFFCURVE",
"896 691 OFFCURVE",
"914 702 CURVE SMOOTH",
"932 711 OFFCURVE",
"949 720 OFFCURVE",
"968 726 CURVE",
"1033 646 LINE",
"1073 655 OFFCURVE",
"1113 655 OFFCURVE",
"1152 646 CURVE",
"1217 726 LINE",
"1252 712 OFFCURVE",
"1287 692 OFFCURVE",
"1316 671 CURVE",
"1280 571 LINE",
"1293 557 OFFCURVE",
"1305 542 OFFCURVE",
"1314 525 CURVE SMOOTH",
"1325 508 OFFCURVE",
"1332 489 OFFCURVE",
"1338 470 CURVE",
"1441 454 LINE",
"1447 416 OFFCURVE",
"1448 376 OFFCURVE",
"1440 338 CURVE",
"1339 320 LINE",
"1326 284 OFFCURVE",
"1307 251 OFFCURVE",
"1281 219 CURVE",
"1316 122 LINE",
"1303 110 OFFCURVE",
"1287 100 OFFCURVE",
"1269 89 CURVE SMOOTH",
"1252 79 OFFCURVE",
"1234 70 OFFCURVE",
"1215 64 CURVE",
"1150 144 LINE",
"1109 137 OFFCURVE",
"1071 137 OFFCURVE",
"1033 142 CURVE",
"966 63 LINE",
"930 77 OFFCURVE",
"896 98 OFFCURVE",
"867 120 CURVE"
);
},
{
closed = 1;
nodes = (
"959 394 OFFCURVE",
"962 363 OFFCURVE",
"980 331 CURVE SMOOTH",
"1015 271 OFFCURVE",
"1094 250 OFFCURVE",
"1155 284 CURVE SMOOTH",
"1217 319 OFFCURVE",
"1236 400 OFFCURVE",
"1203 460 CURVE SMOOTH",
"1167 520 OFFCURVE",
"1089 543 OFFCURVE",
"1027 507 CURVE SMOOTH",
"996 490 OFFCURVE",
"977 462 OFFCURVE",
"967 428 CURVE SMOOTH"
);
}
);
width = 2048;
}
);
},
{
glyphname = t.001;
lastChange = "2012-08-24 03:05:54 +0200";
layers = (
{
layerId = "47E17F20-96EA-4F25-9FDC-A26DCA823BDE";
name = Regular;
paths = (
{
closed = 1;
nodes = (
"338 410 LINE",
"476 190 LINE",
"457 104 LINE",
"351 128 LINE",
"362 176 LINE",
"326 184 LINE",
"343 263 LINE",
"295 273 LINE",
"302 307 LINE",
"239 322 LINE",
"247 357 LINE",
"226 345 LINE",
"221 346 LINE",
"211 364 LINE",
"201 363 OFFCURVE",
"191 362 OFFCURVE",
"182 362 CURVE SMOOTH",
"133 362 OFFCURVE",
"70 382 OFFCURVE",
"33 443 CURVE SMOOTH",
"14 472 OFFCURVE",
"5 502 OFFCURVE",
"5 535 CURVE SMOOTH",
"5 548 OFFCURVE",
"7 562 OFFCURVE",
"10 576 CURVE SMOOTH",
"31 671 OFFCURVE",
"114 715 OFFCURVE",
"179 715 CURVE SMOOTH",
"192 715 OFFCURVE",
"206 713 OFFCURVE",
"220 710 CURVE SMOOTH",
"316 689 OFFCURVE",
"358 605 OFFCURVE",
"358 540 CURVE SMOOTH",
"358 537 OFFCURVE",
"358 533 OFFCURVE",
"358 530 CURVE",
"356 494 OFFCURVE",
"344 462 OFFCURVE",
"323 433 CURVE"
);
},
{
closed = 1;
nodes = (
"157 596 OFFCURVE",
"163 604 OFFCURVE",
"165 614 CURVE",
"166 617 OFFCURVE",
"166 619 OFFCURVE",
"166 622 CURVE SMOOTH",
"166 637 OFFCURVE",
"157 654 OFFCURVE",
"136 659 CURVE",
"133 660 OFFCURVE",
"130 660 OFFCURVE",
"127 660 CURVE SMOOTH",
"114 660 OFFCURVE",
"96 650 OFFCURVE",
"92 630 CURVE",
"91 627 OFFCURVE",
"90 624 OFFCURVE",
"90 621 CURVE SMOOTH",
"90 608 OFFCURVE",
"99 590 OFFCURVE",
"120 586 CURVE",
"123 585 OFFCURVE",
"125 584 OFFCURVE",
"128 584 CURVE SMOOTH",
"135 584 OFFCURVE",
"142 586 OFFCURVE",
"148 590 CURVE SMOOTH"
);
}
);
width = 481;
}
);
},
{
glyphname = x.001;
lastChange = "2012-08-24 03:05:54 +0200";
layers = (
{
layerId = "47E17F20-96EA-4F25-9FDC-A26DCA823BDE";
name = Regular;
paths = (
{
closed = 1;
nodes = (
"507 518 LINE",
"504 508 OFFCURVE",
"503 498 OFFCURVE",
"503 489 CURVE SMOOTH",
"503 482 OFFCURVE",
"504 475 OFFCURVE",
"505 468 CURVE",
"517 401 LINE SMOOTH",
"520 386 OFFCURVE",
"510 377 OFFCURVE",
"497 380 CURVE",
"386 397 LINE SMOOTH",
"378 398 OFFCURVE",
"370 399 OFFCURVE",
"363 399 CURVE SMOOTH",
"354 399 OFFCURVE",
"344 398 OFFCURVE",
"335 396 CURVE",
"232 378 LINE",
"223 377 OFFCURVE",
"215 376 OFFCURVE",
"207 376 CURVE SMOOTH",
"198 376 OFFCURVE",
"190 377 OFFCURVE",
"181 378 CURVE",
"150 383 LINE",
"81 712 LINE",
"81 713 OFFCURVE",
"81 713 OFFCURVE",
"80 713 CURVE",
"181 697 LINE SMOOTH",
"189 696 OFFCURVE",
"197 695 OFFCURVE",
"204 695 CURVE SMOOTH",
"213 695 OFFCURVE",
"222 696 OFFCURVE",
"231 698 CURVE",
"335 717 LINE",
"344 718 OFFCURVE",
"352 719 OFFCURVE",
"361 719 CURVE SMOOTH",
"370 719 OFFCURVE",
"378 718 OFFCURVE",
"386 717 CURVE",
"481 700 LINE",
"494 697 OFFCURVE",
"509 684 OFFCURVE",
"512 671 CURVE SMOOTH",
"522 626 LINE",
"523 619 OFFCURVE",
"524 611 OFFCURVE",
"524 603 CURVE SMOOTH",
"524 594 OFFCURVE",
"523 584 OFFCURVE",
"521 575 CURVE SMOOTH"
);
},
{
closed = 1;
nodes = (
"27 727 OFFCURVE",
"29 727 OFFCURVE",
"31 727 CURVE SMOOTH",
"40 727 OFFCURVE",
"52 720 OFFCURVE",
"55 707 CURVE SMOOTH",
"206 -5 LINE",
"154 -5 LINE",
"6 696 LINE",
"5 698 OFFCURVE",
"5 700 OFFCURVE",
"5 703 CURVE SMOOTH",
"5 711 OFFCURVE",
"11 723 OFFCURVE",
"26 726 CURVE"
);
}
);
width = 529;
}
);
},
{
glyphname = lessequal;
lastChange = "2012-09-05 03:15:58 +0200";
layers = (
{
layerId = "47E17F20-96EA-4F25-9FDC-A26DCA823BDE";
name = Regular;
paths = (
{
closed = 1;
nodes = (
"358 530 LINE",
"729 186 LINE",
"729 410 LINE",
"917 410 OFFCURVE",
"1009 375 OFFCURVE",
"1126 164 CURVE",
"1122 215 LINE SMOOTH",
"1117 283 OFFCURVE",
"1084 390 OFFCURVE",
"1033 487 CURVE SMOOTH",
"982 583 OFFCURVE",
"870 662 OFFCURVE",
"729 662 CURVE",
"729 860 LINE"
);
},
{
closed = 1;
nodes = (
"102 530 LINE",
"473 186 LINE",
"473 330 LINE",
"256 530 LINE",
"473 723 LINE",
"473 860 LINE"
);
}
);
width = 1228;
}
);
unicode = 2264;
},
{
glyphname = bold;
lastChange = "2012-11-26 16:19:32 +0100";
layers = (
{
layerId = "47E17F20-96EA-4F25-9FDC-A26DCA823BDE";
name = Regular;
paths = (
{
closed = 1;
nodes = (
"176 145 LINE",
"212 146 OFFCURVE",
"242 147 OFFCURVE",
"262 149 CURVE",
"270 149 OFFCURVE",
"280 149 OFFCURVE",
"289 150 CURVE",
"299 150 OFFCURVE",
"304 150 OFFCURVE",
"305 150 CURVE",
"372 155 OFFCURVE",
"419 157 OFFCURVE",
"449 156 CURVE SMOOTH",
"543 154 LINE SMOOTH",
"623 154 OFFCURVE",
"687 165 OFFCURVE",
"736 187 CURVE SMOOTH",
"783 209 OFFCURVE",
"821 251 OFFCURVE",
"837 294 CURVE",
"845 322 OFFCURVE",
"849 348 OFFCURVE",
"849 371 CURVE SMOOTH",
"849 458 OFFCURVE",
"788 527 OFFCURVE",
"679 552 CURVE",
"716 570 OFFCURVE",
"750 588 OFFCURVE",
"751 590 CURVE",
"791 619 OFFCURVE",
"810 656 OFFCURVE",
"810 700 CURVE SMOOTH",
"810 720 OFFCURVE",
"807 740 OFFCURVE",
"802 758 CURVE SMOOTH",
"787 795 OFFCURVE",
"762 823 OFFCURVE",
"721 843 CURVE",
"704 853 OFFCURVE",
"690 858 OFFCURVE",
"674 860 CURVE",
"643 869 OFFCURVE",
"613 874 OFFCURVE",
"583 874 CURVE SMOOTH",
"546 874 LINE SMOOTH",
"537 874 OFFCURVE",
"532 874 OFFCURVE",
"529 875 CURVE",
"519 875 LINE",
"512 875 LINE SMOOTH",
"509 875 OFFCURVE",
"505 875 OFFCURVE",
"503 874 CURVE",
"483 874 LINE",
"302 868 LINE",
"177 865 LINE",
"179 825 LINE",
"208 821 OFFCURVE",
"226 819 OFFCURVE",
"233 819 CURVE SMOOTH",
"248 819 OFFCURVE",
"259 817 OFFCURVE",
"265 812 CURVE",
"269 812 OFFCURVE",
"271 811 OFFCURVE",
"272 807 CURVE SMOOTH",
"275 798 OFFCURVE",
"276 781 OFFCURVE",
"278 755 CURVE SMOOTH",
"279 720 OFFCURVE",
"280 679 OFFCURVE",
"280 629 CURVE SMOOTH",
"281 590 OFFCURVE",
"282 567 OFFCURVE",
"283 562 CURVE",
"283 327 LINE SMOOTH",
"283 282 OFFCURVE",
"281 252 OFFCURVE",
"278 235 CURVE SMOOTH",
"276 227 OFFCURVE",
"273 220 OFFCURVE",
"268 212 CURVE",
"250 204 OFFCURVE",
"230 199 OFFCURVE",
"209 196 CURVE SMOOTH",
"191 193 OFFCURVE",
"180 192 OFFCURVE",
"176 191 CURVE"
);
},
{
closed = 1;
nodes = (
"435 650 LINE SMOOTH",
"436 680 OFFCURVE",
"436 726 OFFCURVE",
"433 783 CURVE",
"432 793 OFFCURVE",
"431 805 OFFCURVE",
"431 819 CURVE",
"456 824 OFFCURVE",
"475 826 OFFCURVE",
"493 826 CURVE SMOOTH",
"548 826 OFFCURVE",
"589 814 OFFCURVE",
"616 790 CURVE",
"643 766 OFFCURVE",
"657 738 OFFCURVE",
"657 700 CURVE SMOOTH",
"657 603 OFFCURVE",
"601 563 OFFCURVE",
"487 563 CURVE SMOOTH",
"466 563 OFFCURVE",
"448 564 OFFCURVE",
"435 567 CURVE"
);
},
{
closed = 1;
nodes = (
"435 362 LINE",
"435 513 LINE",
"448 517 OFFCURVE",
"464 518 OFFCURVE",
"483 518 CURVE SMOOTH",
"590 520 OFFCURVE",
"632 500 OFFCURVE",
"665 449 CURVE SMOOTH",
"681 423 OFFCURVE",
"689 393 OFFCURVE",
"689 357 CURVE SMOOTH",
"689 296 OFFCURVE",
"663 241 OFFCURVE",
"613 218 CURVE SMOOTH",
"559 193 OFFCURVE",
"485 193 OFFCURVE",
"441 214 CURVE",
"438 220 OFFCURVE",
"437 228 OFFCURVE",
"437 234 CURVE"
);
}
);
width = 1024;
}
);
unicode = E01F;
},
{
glyphname = code;
lastChange = "2012-11-26 17:40:48 +0100";
layers = (
{
layerId = "47E17F20-96EA-4F25-9FDC-A26DCA823BDE";
name = Regular;
paths = (
{
closed = 1;
nodes = (
"273 512 LINE",
"456 328 LINE",
"367 243 LINE",
"104 508 LINE",
"374 777 LINE",
"458 694 LINE"
);
},
{
closed = 1;
nodes = (
"751 508 LINE",
"568 692 LINE",
"657 777 LINE",
"920 512 LINE",
"650 243 LINE",
"566 326 LINE"
);
}
);
width = 1024;
}
);
unicode = E032;
},
{
glyphname = italic;
lastChange = "2012-11-26 13:18:18 +0100";
layers = (
{
layerId = "47E17F20-96EA-4F25-9FDC-A26DCA823BDE";
name = Regular;
paths = (
{
closed = 1;
nodes = (
"261 145 LINE",
"273 145 OFFCURVE",
"277 145 OFFCURVE",
"308 148 CURVE SMOOTH",
"349 153 OFFCURVE",
"379 155 OFFCURVE",
"395 154 CURVE",
"491 154 LINE",
"514 151 OFFCURVE",
"531 149 OFFCURVE",
"542 147 CURVE",
"549 146 OFFCURVE",
"556 146 OFFCURVE",
"563 146 CURVE",
"565 145 OFFCURVE",
"568 144 OFFCURVE",
"571 144 CURVE",
"571 144 OFFCURVE",
"574 144 OFFCURVE",
"577 144 CURVE",
"577 144 OFFCURVE",
"579 144 OFFCURVE",
"583 144 CURVE SMOOTH",
"589 144 OFFCURVE",
"593 144 OFFCURVE",
"597 145 CURVE",
"597 145 OFFCURVE",
"602 146 OFFCURVE",
"608 146 CURVE",
"610 149 OFFCURVE",
"611 153 OFFCURVE",
"611 157 CURVE SMOOTH",
"611 158 OFFCURVE",
"612 160 OFFCURVE",
"614 165 CURVE",
"614 166 OFFCURVE",
"614 168 OFFCURVE",
"615 171 CURVE",
"615 173 OFFCURVE",
"615 176 OFFCURVE",
"615 178 CURVE SMOOTH",
"615 179 OFFCURVE",
"615 181 OFFCURVE",
"616 184 CURVE",
"616 188 OFFCURVE",
"616 190 OFFCURVE",
"616 192 CURVE",
"594 197 LINE",
"591 198 OFFCURVE",
"588 198 OFFCURVE",
"585 198 CURVE",
"570 199 OFFCURVE",
"552 202 OFFCURVE",
"526 208 CURVE",
"525 210 OFFCURVE",
"525 212 OFFCURVE",
"525 215 CURVE SMOOTH",
"525 221 LINE",
"532 242 LINE",
"552 354 LINE",
"571 429 LINE",
"601 578 LINE SMOOTH",
"602 585 OFFCURVE",
"613 633 OFFCURVE",
"633 723 CURVE",
"636 745 OFFCURVE",
"646 789 OFFCURVE",
"652 804 CURVE",
"667 809 OFFCURVE",
"684 815 OFFCURVE",
"701 819 CURVE SMOOTH",
"729 826 OFFCURVE",
"746 830 OFFCURVE",
"755 833 CURVE",
"757 845 OFFCURVE",
"759 853 OFFCURVE",
"762 858 CURVE",
"762 859 OFFCURVE",
"762 860 OFFCURVE",
"763 862 CURVE",
"763 864 OFFCURVE",
"763 866 OFFCURVE",
"763 867 CURVE",
"764 869 OFFCURVE",
"764 872 OFFCURVE",
"764 876 CURVE",
"751 876 OFFCURVE",
"748 876 OFFCURVE",
"713 873 CURVE SMOOTH",
"669 870 OFFCURVE",
"634 869 OFFCURVE",
"608 869 CURVE SMOOTH",
"596 869 LINE SMOOTH",
"593 869 OFFCURVE",
"590 869 OFFCURVE",
"585 870 CURVE",
"579 870 OFFCURVE",
"575 870 OFFCURVE",
"571 870 CURVE",
"416 876 LINE",
"406 827 LINE",
"415 827 LINE",
"416 826 OFFCURVE",
"421 826 OFFCURVE",
"426 826 CURVE",
"458 823 OFFCURVE",
"482 819 OFFCURVE",
"497 812 CURVE",
"497 793 LINE",
"492 771 LINE",
"482 706 LINE",
"475 675 LINE",
"459 600 LINE",
"459 599 OFFCURVE",
"456 589 OFFCURVE",
"450 570 CURVE SMOOTH",
"444 547 OFFCURVE",
"437 520 OFFCURVE",
"432 486 CURVE SMOOTH",
"426 455 LINE",
"398 327 LINE",
"384 263 LINE SMOOTH",
"381 244 OFFCURVE",
"374 227 OFFCURVE",
"365 213 CURVE",
"343 204 OFFCURVE",
"324 198 OFFCURVE",
"307 194 CURVE",
"300 193 OFFCURVE",
"285 190 OFFCURVE",
"279 188 CURVE SMOOTH",
"275 187 OFFCURVE",
"272 186 OFFCURVE",
"270 184 CURVE"
);
}
);
width = 1024;
}
);
unicode = E079;
},
{
glyphname = quote;
lastChange = "2012-11-26 17:41:22 +0100";
layers = (
{
layerId = "47E17F20-96EA-4F25-9FDC-A26DCA823BDE";
name = Regular;
paths = (
{
closed = 1;
nodes = (
"436 782 LINE",
"265 667 OFFCURVE",
"166 525 OFFCURVE",
"166 405 CURVE SMOOTH",
"166 300 OFFCURVE",
"241 239 OFFCURVE",
"319 239 CURVE SMOOTH",
"406 239 OFFCURVE",
"471 311 OFFCURVE",
"471 394 CURVE SMOOTH",
"471 460 OFFCURVE",
"430 517 OFFCURVE",
"371 539 CURVE",
"356 544 OFFCURVE",
"352 545 OFFCURVE",
"346 557 CURVE",
"342 561 OFFCURVE",
"339 569 OFFCURVE",
"339 578 CURVE SMOOTH",
"339 624 OFFCURVE",
"380 678 OFFCURVE",
"462 743 CURVE"
);
},
{
closed = 1;
nodes = (
"821 782 LINE",
"651 666 OFFCURVE",
"550 525 OFFCURVE",
"550 405 CURVE SMOOTH",
"550 301 OFFCURVE",
"626 239 OFFCURVE",
"706 239 CURVE SMOOTH",
"794 239 OFFCURVE",
"859 311 OFFCURVE",
"859 394 CURVE SMOOTH",
"859 460 OFFCURVE",
"819 517 OFFCURVE",
"757 539 CURVE SMOOTH",
"743 544 OFFCURVE",
"738 545 OFFCURVE",
"731 557 CURVE SMOOTH",
"727 561 OFFCURVE",
"726 569 OFFCURVE",
"726 578 CURVE SMOOTH",
"726 623 OFFCURVE",
"766 677 OFFCURVE",
"846 743 CURVE"
);
}
);
width = 1024;
}
);
unicode = E10B;
},
{
glyphname = strike;
lastChange = "2012-11-26 13:19:09 +0100";
layers = (
{
layerId = "47E17F20-96EA-4F25-9FDC-A26DCA823BDE";
name = Regular;
paths = (
{
closed = 1;
nodes = (
"162 541 LINE",
"862 541 LINE",
"862 479 LINE",
"162 479 LINE"
);
},
{
closed = 1;
nodes = (
"596 570 LINE",
"342 570 LINE",
"302 628 OFFCURVE",
"290 738 OFFCURVE",
"375 810 CURVE SMOOTH",
"419 845 OFFCURVE",
"476 863 OFFCURVE",
"549 863 CURVE SMOOTH",
"590 863 OFFCURVE",
"627 858 OFFCURVE",
"665 847 CURVE SMOOTH",
"675 844 OFFCURVE",
"687 841 OFFCURVE",
"700 839 CURVE",
"712 804 OFFCURVE",
"718 756 OFFCURVE",
"718 693 CURVE",
"692 691 OFFCURVE",
"679 690 OFFCURVE",
"678 690 CURVE",
"657 755 OFFCURVE",
"609 816 OFFCURVE",
"544 816 CURVE SMOOTH",
"479 816 OFFCURVE",
"441 774 OFFCURVE",
"441 721 CURVE SMOOTH",
"441 676 OFFCURVE",
"471 638 OFFCURVE",
"532 605 CURVE SMOOTH"
);
},
{
closed = 1;
nodes = (
"605 362 OFFCURVE",
"571 408 OFFCURVE",
"503 450 CURVE",
"726 450 LINE",
"737 423 OFFCURVE",
"744 395 OFFCURVE",
"744 364 CURVE SMOOTH",
"744 239 OFFCURVE",
"642 157 OFFCURVE",
"486 157 CURVE SMOOTH",
"415 157 OFFCURVE",
"358 170 OFFCURVE",
"313 195 CURVE",
"293 219 OFFCURVE",
"280 289 OFFCURVE",
"280 362 CURVE",
"320 364 LINE",
"342 287 OFFCURVE",
"415 204 OFFCURVE",
"496 204 CURVE SMOOTH",
"566 204 OFFCURVE",
"605 252 OFFCURVE",
"605 307 CURVE SMOOTH"
);
}
);
width = 1024;
}
);
unicode = E159;
},
{
glyphname = uniF034;
lastChange = "2012-11-27 14:30:55 +0100";
layers = (
{
layerId = "47E17F20-96EA-4F25-9FDC-A26DCA823BDE";
name = Regular;
paths = (
{
closed = 1;
nodes = (
"198 732 OFFCURVE",
"212 782 OFFCURVE",
"228 858 CURVE SMOOTH",
"231 869 OFFCURVE",
"235 878 OFFCURVE",
"235 886 CURVE SMOOTH",
"236 894 OFFCURVE",
"238 897 OFFCURVE",
"241 903 CURVE",
"269 903 LINE",
"274 897 OFFCURVE",
"274 896 OFFCURVE",
"275 892 CURVE",
"285 874 OFFCURVE",
"292 861 OFFCURVE",
"296 855 CURVE",
"302 855 OFFCURVE",
"324 854 OFFCURVE",
"363 854 CURVE SMOOTH",
"374 854 OFFCURVE",
"385 854 OFFCURVE",
"397 855 CURVE SMOOTH",
"408 855 OFFCURVE",
"417 855 OFFCURVE",
"427 855 CURVE",
"438 855 LINE",
"495 857 LINE",
"605 855 LINE",
"754 855 LINE",
"782 861 LINE",
"785 863 OFFCURVE",
"789 874 OFFCURVE",
"795 888 CURVE",
"795 890 OFFCURVE",
"796 892 OFFCURVE",
"797 895 CURVE",
"798 896 OFFCURVE",
"800 899 OFFCURVE",
"801 903 CURVE",
"822 905 LINE",
"824 905 OFFCURVE",
"825 905 OFFCURVE",
"828 905 CURVE SMOOTH",
"829 905 OFFCURVE",
"833 904 OFFCURVE",
"837 903 CURVE",
"837 889 OFFCURVE",
"837 874 OFFCURVE",
"837 853 CURVE SMOOTH",
"837 834 OFFCURVE",
"837 809 OFFCURVE",
"837 782 CURVE SMOOTH",
"837 731 LINE",
"837 702 LINE SMOOTH",
"837 692 OFFCURVE",
"837 682 OFFCURVE",
"835 675 CURVE",
"828 672 OFFCURVE",
"821 671 OFFCURVE",
"815 670 CURVE",
"810 669 OFFCURVE",
"805 667 OFFCURVE",
"801 665 CURVE",
"792 683 OFFCURVE",
"782 705 OFFCURVE",
"774 732 CURVE SMOOTH",
"764 760 OFFCURVE",
"756 775 OFFCURVE",
"755 778 CURVE",
"750 785 OFFCURVE",
"746 787 OFFCURVE",
"739 789 CURVE",
"737 792 OFFCURVE",
"725 792 OFFCURVE",
"710 792 CURVE SMOOTH",
"692 792 OFFCURVE",
"670 792 OFFCURVE",
"639 792 CURVE SMOOTH",
"635 792 OFFCURVE",
"628 792 OFFCURVE",
"623 792 CURVE SMOOTH",
"617 792 OFFCURVE",
"611 792 OFFCURVE",
"605 789 CURVE",
"603 775 OFFCURVE",
"602 762 OFFCURVE",
"602 753 CURVE SMOOTH",
"603 675 LINE",
"603 505 LINE",
"604 320 LINE",
"604 244 LINE SMOOTH",
"604 220 OFFCURVE",
"605 199 OFFCURVE",
"609 184 CURVE",
"615 182 OFFCURVE",
"623 178 OFFCURVE",
"637 175 CURVE",
"639 175 OFFCURVE",
"643 175 OFFCURVE",
"648 175 CURVE SMOOTH",
"655 172 OFFCURVE",
"665 170 OFFCURVE",
"674 167 CURVE",
"683 164 OFFCURVE",
"692 160 OFFCURVE",
"699 159 CURVE",
"701 151 OFFCURVE",
"701 145 OFFCURVE",
"701 141 CURVE SMOOTH",
"701 136 OFFCURVE",
"701 134 OFFCURVE",
"701 132 CURVE SMOOTH",
"701 131 OFFCURVE",
"701 129 OFFCURVE",
"701 125 CURVE SMOOTH",
"701 124 OFFCURVE",
"701 121 OFFCURVE",
"701 117 CURVE",
"683 117 LINE SMOOTH",
"650 117 OFFCURVE",
"623 117 OFFCURVE",
"598 122 CURVE SMOOTH",
"574 124 OFFCURVE",
"534 125 OFFCURVE",
"474 125 CURVE SMOOTH",
"467 125 OFFCURVE",
"458 124 OFFCURVE",
"445 124 CURVE SMOOTH",
"431 123 OFFCURVE",
"411 120 OFFCURVE",
"388 117 CURVE",
"378 117 OFFCURVE",
"371 117 OFFCURVE",
"365 116 CURVE SMOOTH",
"359 115 OFFCURVE",
"355 115 OFFCURVE",
"354 115 CURVE",
"354 119 OFFCURVE",
"354 123 OFFCURVE",
"353 124 CURVE",
"352 126 OFFCURVE",
"351 128 OFFCURVE",
"351 130 CURVE",
"350 142 LINE",
"350 146 LINE",
"356 159 OFFCURVE",
"371 166 OFFCURVE",
"392 173 CURVE SMOOTH",
"425 183 OFFCURVE",
"446 191 OFFCURVE",
"460 198 CURVE",
"464 205 OFFCURVE",
"465 216 OFFCURVE",
"465 227 CURVE",
"469 275 OFFCURVE",
"472 349 OFFCURVE",
"469 449 CURVE SMOOTH",
"466 669 LINE SMOOTH",
"465 699 OFFCURVE",
"465 724 OFFCURVE",
"465 742 CURVE SMOOTH",
"465 760 OFFCURVE",
"465 773 OFFCURVE",
"465 778 CURVE",
"465 785 OFFCURVE",
"460 789 OFFCURVE",
"455 789 CURVE",
"449 792 OFFCURVE",
"438 792 OFFCURVE",
"422 792 CURVE SMOOTH",
"406 792 OFFCURVE",
"384 792 OFFCURVE",
"356 792 CURVE SMOOTH",
"295 792 OFFCURVE",
"289 787 OFFCURVE",
"235 703 CURVE SMOOTH",
"226 691 OFFCURVE",
"220 685 OFFCURVE",
"216 685 CURVE",
"200 694 OFFCURVE",
"192 701 OFFCURVE",
"187 705 CURVE"
);
}
);
width = 1024;
}
);
unicode = F034;
},
{
glyphname = uniF03A;
lastChange = "2012-11-27 02:21:35 +0100";
layers = (
{
layerId = "47E17F20-96EA-4F25-9FDC-A26DCA823BDE";
name = Regular;
paths = (
{
closed = 1;
nodes = (
"973 543 LINE",
"931 545 OFFCURVE",
"905 565 OFFCURVE",
"895 600 CURVE",
"890 617 OFFCURVE",
"887 651 OFFCURVE",
"887 704 CURVE",
"884 813 OFFCURVE",
"883 836 OFFCURVE",
"861 866 CURVE",
"849 883 OFFCURVE",
"834 894 OFFCURVE",
"817 899 CURVE",
"804 905 OFFCURVE",
"784 906 OFFCURVE",
"757 906 CURVE SMOOTH",
"734 906 LINE",
"734 842 LINE",
"747 842 LINE SMOOTH",
"797 842 OFFCURVE",
"807 833 OFFCURVE",
"813 803 CURVE",
"816 794 OFFCURVE",
"817 758 OFFCURVE",
"817 696 CURVE SMOOTH",
"817 585 OFFCURVE",
"840 540 OFFCURVE",
"903 510 CURVE",
"854 489 OFFCURVE",
"828 454 OFFCURVE",
"821 387 CURVE SMOOTH",
"818 364 OFFCURVE",
"817 322 OFFCURVE",
"817 262 CURVE SMOOTH",
"817 189 OFFCURVE",
"803 177 OFFCURVE",
"747 177 CURVE SMOOTH",
"734 177 LINE",
"734 114 LINE",
"757 114 LINE SMOOTH",
"809 114 OFFCURVE",
"832 119 OFFCURVE",
"853 142 CURVE",
"864 153 OFFCURVE",
"873 169 OFFCURVE",
"879 189 CURVE SMOOTH",
"890 233 OFFCURVE",
"889 371 OFFCURVE",
"889 374 CURVE SMOOTH",
"890 424 OFFCURVE",
"906 451 OFFCURVE",
"932 467 CURVE",
"942 473 OFFCURVE",
"956 476 OFFCURVE",
"973 476 CURVE"
);
},
{
closed = 1;
nodes = (
"291 906 LINE",
"268 906 LINE SMOOTH",
"221 906 OFFCURVE",
"195 901 OFFCURVE",
"171 877 CURVE SMOOTH",
"159 865 OFFCURVE",
"151 849 OFFCURVE",
"145 831 CURVE",
"134 787 OFFCURVE",
"135 649 OFFCURVE",
"135 646 CURVE",
"132 595 OFFCURVE",
"120 569 OFFCURVE",
"92 553 CURVE SMOOTH",
"82 547 OFFCURVE",
"69 544 OFFCURVE",
"52 543 CURVE",
"52 476 LINE",
"91 475 OFFCURVE",
"120 454 OFFCURVE",
"129 418 CURVE SMOOTH",
"134 397 OFFCURVE",
"137 364 OFFCURVE",
"137 315 CURVE SMOOTH",
"137 223 OFFCURVE",
"141 184 OFFCURVE",
"162 153 CURVE",
"188 121 OFFCURVE",
"209 114 OFFCURVE",
"268 114 CURVE SMOOTH",
"291 114 LINE",
"291 177 LINE",
"264 177 OFFCURVE",
"246 178 OFFCURVE",
"237 183 CURVE",
"221 189 OFFCURVE",
"212 201 OFFCURVE",
"208 230 CURVE",
"207 242 OFFCURVE",
"206 274 OFFCURVE",
"206 324 CURVE SMOOTH",
"206 441 OFFCURVE",
"183 485 OFFCURVE",
"121 510 CURVE",
"177 535 OFFCURVE",
"197 570 OFFCURVE",
"204 634 CURVE SMOOTH",
"205 652 OFFCURVE",
"206 694 OFFCURVE",
"206 757 CURVE SMOOTH",
"206 826 OFFCURVE",
"221 842 OFFCURVE",
"277 842 CURVE SMOOTH",
"291 842 LINE"
);
},
{
closed = 1;
nodes = (
"460 715 LINE",
"460 561 LINE",
"307 561 LINE",
"307 459 LINE",
"460 459 LINE",
"460 305 LINE",
"563 305 LINE",
"563 459 LINE",
"716 459 LINE",
"716 561 LINE",
"563 561 LINE",
"563 715 LINE"
);
}
);
width = 1024;
}
);
unicode = F03A;
},
{
glyphname = uniF03B;
lastChange = "2012-11-27 02:21:21 +0100";
layers = (
{
layerId = "47E17F20-96EA-4F25-9FDC-A26DCA823BDE";
name = Regular;
paths = (
{
closed = 1;
nodes = (
"973 543 LINE",
"931 545 OFFCURVE",
"905 565 OFFCURVE",
"895 600 CURVE",
"890 617 OFFCURVE",
"887 651 OFFCURVE",
"887 704 CURVE",
"884 813 OFFCURVE",
"883 836 OFFCURVE",
"861 866 CURVE",
"849 883 OFFCURVE",
"834 894 OFFCURVE",
"817 899 CURVE",
"804 905 OFFCURVE",
"784 906 OFFCURVE",
"757 906 CURVE SMOOTH",
"734 906 LINE",
"734 842 LINE",
"747 842 LINE SMOOTH",
"797 842 OFFCURVE",
"807 833 OFFCURVE",
"813 803 CURVE",
"816 794 OFFCURVE",
"817 758 OFFCURVE",
"817 696 CURVE SMOOTH",
"817 585 OFFCURVE",
"840 540 OFFCURVE",
"903 510 CURVE",
"854 489 OFFCURVE",
"828 454 OFFCURVE",
"821 387 CURVE SMOOTH",
"818 364 OFFCURVE",
"817 322 OFFCURVE",
"817 262 CURVE SMOOTH",
"817 189 OFFCURVE",
"803 177 OFFCURVE",
"747 177 CURVE SMOOTH",
"734 177 LINE",
"734 114 LINE",
"757 114 LINE SMOOTH",
"809 114 OFFCURVE",
"832 119 OFFCURVE",
"853 142 CURVE",
"864 153 OFFCURVE",
"873 169 OFFCURVE",
"879 189 CURVE SMOOTH",
"890 233 OFFCURVE",
"889 371 OFFCURVE",
"889 374 CURVE SMOOTH",
"890 424 OFFCURVE",
"906 451 OFFCURVE",
"932 467 CURVE",
"942 473 OFFCURVE",
"956 476 OFFCURVE",
"973 476 CURVE"
);
},
{
closed = 1;
nodes = (
"291 906 LINE",
"268 906 LINE SMOOTH",
"221 906 OFFCURVE",
"195 901 OFFCURVE",
"171 877 CURVE SMOOTH",
"159 865 OFFCURVE",
"151 849 OFFCURVE",
"145 831 CURVE",
"134 787 OFFCURVE",
"135 649 OFFCURVE",
"135 646 CURVE",
"132 595 OFFCURVE",
"120 569 OFFCURVE",
"92 553 CURVE SMOOTH",
"82 547 OFFCURVE",
"69 544 OFFCURVE",
"52 543 CURVE",
"52 476 LINE",
"91 475 OFFCURVE",
"120 454 OFFCURVE",
"129 418 CURVE SMOOTH",
"134 397 OFFCURVE",
"137 364 OFFCURVE",
"137 315 CURVE SMOOTH",
"137 223 OFFCURVE",
"141 184 OFFCURVE",
"162 153 CURVE",
"188 121 OFFCURVE",
"209 114 OFFCURVE",
"268 114 CURVE SMOOTH",
"291 114 LINE",
"291 177 LINE",
"264 177 OFFCURVE",
"246 178 OFFCURVE",
"237 183 CURVE",
"221 189 OFFCURVE",
"212 201 OFFCURVE",
"208 230 CURVE",
"207 242 OFFCURVE",
"206 274 OFFCURVE",
"206 324 CURVE SMOOTH",
"206 441 OFFCURVE",
"183 485 OFFCURVE",
"121 510 CURVE",
"177 535 OFFCURVE",
"197 570 OFFCURVE",
"204 634 CURVE SMOOTH",
"205 652 OFFCURVE",
"206 694 OFFCURVE",
"206 757 CURVE SMOOTH",
"206 826 OFFCURVE",
"221 842 OFFCURVE",
"277 842 CURVE SMOOTH",
"291 842 LINE"
);
},
{
closed = 1;
nodes = (
"623 735 OFFCURVE",
"688 632 OFFCURVE",
"688 509 CURVE SMOOTH",
"688 389 OFFCURVE",
"623 285 OFFCURVE",
"521 285 CURVE SMOOTH",
"414 285 OFFCURVE",
"344 388 OFFCURVE",
"344 509 CURVE SMOOTH",
"344 632 OFFCURVE",
"414 735 OFFCURVE",
"521 735 CURVE SMOOTH"
);
},
{
closed = 1;
nodes = (
"597 331 OFFCURVE",
"641 412 OFFCURVE",
"641 509 CURVE SMOOTH",
"641 607 OFFCURVE",
"597 689 OFFCURVE",
"520 689 CURVE SMOOTH",
"439 689 OFFCURVE",
"391 606 OFFCURVE",
"391 509 CURVE SMOOTH",
"391 413 OFFCURVE",
"439 331 OFFCURVE",
"520 331 CURVE SMOOTH"
);
},
{
closed = 1;
nodes = (
"403 344 LINE",
"597 701 LINE",
"631 682 LINE",
"437 326 LINE"
);
}
);
width = 1024;
}
);
unicode = F03B;
},
{
glyphname = uniF03C;
lastChange = "2012-11-27 02:21:12 +0100";
layers = (
{
layerId = "47E17F20-96EA-4F25-9FDC-A26DCA823BDE";
name = Regular;
paths = (
{
closed = 1;
nodes = (
"973 543 LINE",
"931 545 OFFCURVE",
"905 565 OFFCURVE",
"895 600 CURVE",
"890 617 OFFCURVE",
"887 651 OFFCURVE",
"887 704 CURVE",
"884 813 OFFCURVE",
"883 836 OFFCURVE",
"861 866 CURVE",
"849 883 OFFCURVE",
"834 894 OFFCURVE",
"817 899 CURVE",
"804 905 OFFCURVE",
"784 906 OFFCURVE",
"757 906 CURVE SMOOTH",
"734 906 LINE",
"734 842 LINE",
"747 842 LINE SMOOTH",
"797 842 OFFCURVE",
"807 833 OFFCURVE",
"813 803 CURVE",
"816 794 OFFCURVE",
"817 758 OFFCURVE",
"817 696 CURVE SMOOTH",
"817 585 OFFCURVE",
"840 540 OFFCURVE",
"903 510 CURVE",
"854 489 OFFCURVE",
"828 454 OFFCURVE",
"821 387 CURVE SMOOTH",
"818 364 OFFCURVE",
"817 322 OFFCURVE",
"817 262 CURVE SMOOTH",
"817 189 OFFCURVE",
"803 177 OFFCURVE",
"747 177 CURVE SMOOTH",
"734 177 LINE",
"734 114 LINE",
"757 114 LINE SMOOTH",
"809 114 OFFCURVE",
"832 119 OFFCURVE",
"853 142 CURVE",
"864 153 OFFCURVE",
"873 169 OFFCURVE",
"879 189 CURVE SMOOTH",
"890 233 OFFCURVE",
"889 371 OFFCURVE",
"889 374 CURVE SMOOTH",
"890 424 OFFCURVE",
"906 451 OFFCURVE",
"932 467 CURVE",
"942 473 OFFCURVE",
"956 476 OFFCURVE",
"973 476 CURVE"
);
},
{
closed = 1;
nodes = (
"291 906 LINE",
"268 906 LINE SMOOTH",
"221 906 OFFCURVE",
"195 901 OFFCURVE",
"171 877 CURVE SMOOTH",
"159 865 OFFCURVE",
"151 849 OFFCURVE",
"145 831 CURVE",
"134 787 OFFCURVE",
"135 649 OFFCURVE",
"135 646 CURVE",
"132 595 OFFCURVE",
"120 569 OFFCURVE",
"92 553 CURVE SMOOTH",
"82 547 OFFCURVE",
"69 544 OFFCURVE",
"52 543 CURVE",
"52 476 LINE",
"91 475 OFFCURVE",
"120 454 OFFCURVE",
"129 418 CURVE SMOOTH",
"134 397 OFFCURVE",
"137 364 OFFCURVE",
"137 315 CURVE SMOOTH",
"137 223 OFFCURVE",
"141 184 OFFCURVE",
"162 153 CURVE",
"188 121 OFFCURVE",
"209 114 OFFCURVE",
"268 114 CURVE SMOOTH",
"291 114 LINE",
"291 177 LINE",
"264 177 OFFCURVE",
"246 178 OFFCURVE",
"237 183 CURVE",
"221 189 OFFCURVE",
"212 201 OFFCURVE",
"208 230 CURVE",
"207 242 OFFCURVE",
"206 274 OFFCURVE",
"206 324 CURVE SMOOTH",
"206 441 OFFCURVE",
"183 485 OFFCURVE",
"121 510 CURVE",
"177 535 OFFCURVE",
"197 570 OFFCURVE",
"204 634 CURVE SMOOTH",
"205 652 OFFCURVE",
"206 694 OFFCURVE",
"206 757 CURVE SMOOTH",
"206 826 OFFCURVE",
"221 842 OFFCURVE",
"277 842 CURVE SMOOTH",
"291 842 LINE"
);
},
{
closed = 1;
nodes = (
"307 561 LINE",
"307 459 LINE",
"716 459 LINE",
"716 561 LINE"
);
}
);
width = 1024;
}
);
unicode = F03C;
},
{
glyphname = uniF03E;
lastChange = "2012-11-27 16:16:48 +0100";
layers = (
{
layerId = "47E17F20-96EA-4F25-9FDC-A26DCA823BDE";
name = Regular;
paths = (
{
closed = 1;
nodes = (
"54 836 LINE SMOOTH",
"54 866 OFFCURVE",
"78 893 OFFCURVE",
"110 893 CURVE SMOOTH",
"915 893 LINE SMOOTH",
"948 893 OFFCURVE",
"971 866 OFFCURVE",
"971 836 CURVE SMOOTH",
"971 184 LINE SMOOTH",
"971 154 OFFCURVE",
"948 127 OFFCURVE",
"915 127 CURVE SMOOTH",
"110 127 LINE SMOOTH",
"78 127 OFFCURVE",
"54 154 OFFCURVE",
"54 184 CURVE SMOOTH"
);
},
{
closed = 1;
nodes = (
"130 204 LINE",
"896 204 LINE",
"896 816 LINE",
"130 816 LINE"
);
},
{
closed = 1;
nodes = (
"207 280 LINE",
"207 332 LINE",
"345 514 LINE",
"439 435 LINE",
"615 701 LINE",
"819 490 LINE",
"819 280 LINE"
);
},
{
closed = 1;
nodes = (
"207 706 OFFCURVE",
"241 740 OFFCURVE",
"284 740 CURVE SMOOTH",
"326 740 OFFCURVE",
"362 706 OFFCURVE",
"362 660 CURVE SMOOTH",
"362 621 OFFCURVE",
"326 585 OFFCURVE",
"284 585 CURVE SMOOTH",
"241 585 OFFCURVE",
"207 621 OFFCURVE",
"207 660 CURVE SMOOTH"
);
}
);
width = 1024;
}
);
unicode = F03E;
},
{
glyphname = uniF03F;
lastChange = "2012-11-26 13:38:01 +0100";
layers = (
{
anchors = (
{
name = bottom;
position = "{450, 0}";
},
{
name = top;
position = "{450, 1020}";
}
);
layerId = "47E17F20-96EA-4F25-9FDC-A26DCA823BDE";
name = Regular;
paths = (
{
closed = 1;
nodes = (
"702 899 OFFCURVE",
"657 871 OFFCURVE",
"621 842 CURVE SMOOTH",
"567 796 LINE",
"557 785 OFFCURVE",
"552 779 OFFCURVE",
"551 764 CURVE SMOOTH",
"550 749 OFFCURVE",
"555 737 OFFCURVE",
"562 726 CURVE SMOOTH",
"571 715 OFFCURVE",
"582 706 OFFCURVE",
"596 705 CURVE SMOOTH",
"606 705 OFFCURVE",
"618 710 OFFCURVE",
"632 719 CURVE",
"684 767 LINE SMOOTH",
"701 779 OFFCURVE",
"720 785 OFFCURVE",
"736 784 CURVE SMOOTH",
"757 782 OFFCURVE",
"779 767 OFFCURVE",
"801 745 CURVE",
"815 725 OFFCURVE",
"821 701 OFFCURVE",
"819 680 CURVE SMOOTH",
"817 658 OFFCURVE",
"808 638 OFFCURVE",
"790 622 CURVE SMOOTH",
"618 479 LINE SMOOTH",
"586 455 OFFCURVE",
"558 442 OFFCURVE",
"537 445 CURVE SMOOTH",
"521 445 OFFCURVE",
"507 453 OFFCURVE",
"497 467 CURVE",
"486 475 OFFCURVE",
"475 481 OFFCURVE",
"461 482 CURVE SMOOTH",
"448 483 OFFCURVE",
"437 478 OFFCURVE",
"427 473 CURVE SMOOTH",
"415 463 OFFCURVE",
"407 452 OFFCURVE",
"407 440 CURVE SMOOTH",
"406 427 OFFCURVE",
"411 416 OFFCURVE",
"420 402 CURVE SMOOTH",
"451 367 OFFCURVE",
"484 346 OFFCURVE",
"527 343 CURVE SMOOTH",
"575 338 OFFCURVE",
"626 361 OFFCURVE",
"680 404 CURVE SMOOTH",
"853 546 LINE SMOOTH",
"892 579 OFFCURVE",
"928 624 OFFCURVE",
"933 671 CURVE SMOOTH",
"940 721 OFFCURVE",
"907 770 OFFCURVE",
"877 809 CURVE SMOOTH",
"838 851 OFFCURVE",
"793 892 OFFCURVE",
"745 895 CURVE SMOOTH"
);
},
{
closed = 1;
nodes = (
"434 656 OFFCURVE",
"376 637 OFFCURVE",
"317 588 CURVE SMOOTH",
"156 455 LINE SMOOTH",
"116 421 OFFCURVE",
"95 378 OFFCURVE",
"90 328 CURVE SMOOTH",
"86 277 OFFCURVE",
"99 231 OFFCURVE",
"133 191 CURVE SMOOTH",
"167 152 OFFCURVE",
"213 129 OFFCURVE",
"261 125 CURVE SMOOTH",
"308 121 OFFCURVE",
"357 135 OFFCURVE",
"398 167 CURVE SMOOTH",
"442 205 LINE",
"453 212 OFFCURVE",
"459 225 OFFCURVE",
"460 235 CURVE SMOOTH",
"462 248 OFFCURVE",
"457 263 OFFCURVE",
"448 272 CURVE",
"437 286 OFFCURVE",
"427 293 OFFCURVE",
"414 294 CURVE SMOOTH",
"403 295 OFFCURVE",
"389 291 OFFCURVE",
"377 281 CURVE",
"335 241 LINE SMOOTH",
"316 227 OFFCURVE",
"291 220 OFFCURVE",
"269 223 CURVE SMOOTH",
"246 225 OFFCURVE",
"223 235 OFFCURVE",
"207 253 CURVE",
"193 275 OFFCURVE",
"187 298 OFFCURVE",
"189 322 CURVE SMOOTH",
"191 342 OFFCURVE",
"201 363 OFFCURVE",
"217 379 CURVE SMOOTH",
"382 512 LINE SMOOTH",
"417 545 OFFCURVE",
"450 557 OFFCURVE",
"473 555 CURVE SMOOTH",
"487 554 OFFCURVE",
"502 547 OFFCURVE",
"512 535 CURVE SMOOTH",
"520 525 OFFCURVE",
"529 518 OFFCURVE",
"544 516 CURVE SMOOTH",
"547 516 LINE",
"574 514 OFFCURVE",
"598 536 OFFCURVE",
"601 563 CURVE SMOOTH",
"602 575 OFFCURVE",
"597 587 OFFCURVE",
"587 597 CURVE",
"559 630 OFFCURVE",
"524 649 OFFCURVE",
"484 653 CURVE SMOOTH"
);
}
);
width = 1024;
}
);
unicode = F03F;
},
{
glyphname = uniF0CA;
lastChange = "2012-11-26 13:19:46 +0100";
layers = (
{
layerId = "47E17F20-96EA-4F25-9FDC-A26DCA823BDE";
name = Regular;
paths = (
{
closed = 1;
nodes = (
"121 296 OFFCURVE",
"131 317 OFFCURVE",
"146 333 CURVE SMOOTH",
"161 346 OFFCURVE",
"180 355 OFFCURVE",
"203 355 CURVE SMOOTH",
"227 355 OFFCURVE",
"245 346 OFFCURVE",
"261 333 CURVE SMOOTH",
"277 317 OFFCURVE",
"285 296 OFFCURVE",
"285 275 CURVE SMOOTH",
"285 251 OFFCURVE",
"277 231 OFFCURVE",
"261 215 CURVE SMOOTH",
"245 202 OFFCURVE",
"226 192 OFFCURVE",
"203 192 CURVE SMOOTH",
"158 192 OFFCURVE",
"121 228 OFFCURVE",
"121 275 CURVE SMOOTH"
);
},
{
closed = 1;
nodes = (
"121 532 OFFCURVE",
"131 554 OFFCURVE",
"146 569 CURVE SMOOTH",
"161 581 OFFCURVE",
"180 592 OFFCURVE",
"203 592 CURVE SMOOTH",
"227 592 OFFCURVE",
"245 581 OFFCURVE",
"261 569 CURVE SMOOTH",
"277 554 OFFCURVE",
"285 532 OFFCURVE",
"285 510 CURVE SMOOTH",
"285 487 OFFCURVE",
"277 466 OFFCURVE",
"261 452 CURVE SMOOTH",
"245 439 OFFCURVE",
"226 428 OFFCURVE",
"203 428 CURVE SMOOTH",
"180 428 OFFCURVE",
"161 439 OFFCURVE",
"146 452 CURVE SMOOTH",
"131 466 OFFCURVE",
"121 487 OFFCURVE",
"121 510 CURVE SMOOTH"
);
},
{
closed = 1;
nodes = (
"121 769 OFFCURVE",
"131 789 OFFCURVE",
"146 805 CURVE SMOOTH",
"161 819 OFFCURVE",
"180 828 OFFCURVE",
"203 828 CURVE SMOOTH",
"227 828 OFFCURVE",
"245 819 OFFCURVE",
"261 805 CURVE SMOOTH",
"277 789 OFFCURVE",
"285 769 OFFCURVE",
"285 745 CURVE SMOOTH",
"285 724 OFFCURVE",
"277 704 OFFCURVE",
"261 687 CURVE SMOOTH",
"245 675 OFFCURVE",
"226 665 OFFCURVE",
"203 665 CURVE SMOOTH",
"180 665 OFFCURVE",
"161 675 OFFCURVE",
"146 687 CURVE SMOOTH",
"131 704 OFFCURVE",
"121 724 OFFCURVE",
"121 745 CURVE SMOOTH"
);
},
{
closed = 1;
nodes = (
"344 297 LINE SMOOTH",
"344 315 OFFCURVE",
"358 332 OFFCURVE",
"377 332 CURVE SMOOTH",
"872 332 LINE SMOOTH",
"889 332 OFFCURVE",
"904 315 OFFCURVE",
"904 297 CURVE SMOOTH",
"904 250 LINE SMOOTH",
"904 231 OFFCURVE",
"889 217 OFFCURVE",
"872 217 CURVE SMOOTH",
"377 217 LINE SMOOTH",
"358 217 OFFCURVE",
"344 231 OFFCURVE",
"344 250 CURVE SMOOTH"
);
},
{
closed = 1;
nodes = (
"344 534 LINE SMOOTH",
"344 553 OFFCURVE",
"358 568 OFFCURVE",
"377 568 CURVE SMOOTH",
"872 568 LINE SMOOTH",
"889 568 OFFCURVE",
"904 553 OFFCURVE",
"904 534 CURVE SMOOTH",
"904 486 LINE SMOOTH",
"904 467 OFFCURVE",
"889 452 OFFCURVE",
"872 452 CURVE SMOOTH",
"377 452 LINE SMOOTH",
"358 452 OFFCURVE",
"344 467 OFFCURVE",
"344 486 CURVE SMOOTH"
);
},
{
closed = 1;
nodes = (
"344 770 LINE SMOOTH",
"344 789 OFFCURVE",
"358 804 OFFCURVE",
"377 804 CURVE SMOOTH",
"872 804 LINE SMOOTH",
"889 804 OFFCURVE",
"904 789 OFFCURVE",
"904 770 CURVE SMOOTH",
"904 723 LINE SMOOTH",
"904 705 OFFCURVE",
"889 688 OFFCURVE",
"872 688 CURVE SMOOTH",
"377 688 LINE SMOOTH",
"358 688 OFFCURVE",
"344 705 OFFCURVE",
"344 723 CURVE SMOOTH"
);
}
);
width = 1024;
}
);
unicode = F0CA;
},
{
glyphname = uniF0CB;
lastChange = "2012-11-26 13:20:45 +0100";
layers = (
{
layerId = "47E17F20-96EA-4F25-9FDC-A26DCA823BDE";
name = Regular;
paths = (
{
closed = 1;
nodes = (
"121 467 OFFCURVE",
"142 485 OFFCURVE",
"163 500 CURVE SMOOTH",
"186 515 OFFCURVE",
"207 527 OFFCURVE",
"207 545 CURVE SMOOTH",
"207 563 OFFCURVE",
"195 570 OFFCURVE",
"178 570 CURVE SMOOTH",
"165 570 OFFCURVE",
"154 561 OFFCURVE",
"146 549 CURVE",
"124 564 LINE",
"137 587 OFFCURVE",
"157 600 OFFCURVE",
"181 600 CURVE SMOOTH",
"212 600 OFFCURVE",
"239 581 OFFCURVE",
"239 547 CURVE SMOOTH",
"239 520 OFFCURVE",
"219 504 OFFCURVE",
"199 490 CURVE SMOOTH",
"178 476 OFFCURVE",
"157 465 OFFCURVE",
"157 446 CURVE",
"218 446 LINE",
"218 469 LINE",
"246 469 LINE",
"246 420 LINE",
"124 420 LINE",
"122 425 OFFCURVE",
"121 432 OFFCURVE",
"121 436 CURVE SMOOTH"
);
},
{
closed = 1;
nodes = (
"139 231 LINE",
"140 229 OFFCURVE",
"143 227 OFFCURVE",
"145 226 CURVE",
"146 225 OFFCURVE",
"148 224 OFFCURVE",
"150 221 CURVE",
"157 216 OFFCURVE",
"168 214 OFFCURVE",
"178 214 CURVE SMOOTH",
"199 214 OFFCURVE",
"211 225 OFFCURVE",
"211 241 CURVE SMOOTH",
"211 258 OFFCURVE",
"197 269 OFFCURVE",
"178 269 CURVE SMOOTH",
"167 269 LINE",
"161 284 LINE",
"198 331 LINE",
"200 333 OFFCURVE",
"200 333 OFFCURVE",
"203 335 CURVE",
"205 338 LINE",
"201 338 LINE",
"200 338 OFFCURVE",
"199 337 OFFCURVE",
"195 337 CURVE SMOOTH",
"155 337 LINE",
"155 315 LINE",
"128 315 LINE",
"128 364 LINE",
"239 364 LINE",
"239 341 LINE",
"199 292 LINE",
"222 288 OFFCURVE",
"245 273 OFFCURVE",
"245 242 CURVE SMOOTH",
"245 214 OFFCURVE",
"222 184 OFFCURVE",
"181 184 CURVE SMOOTH",
"161 184 OFFCURVE",
"147 191 OFFCURVE",
"138 196 CURVE",
"131 200 OFFCURVE",
"126 205 OFFCURVE",
"124 208 CURVE"
);
},
{
closed = 1;
nodes = (
"127 793 LINE",
"172 836 LINE",
"200 836 LINE",
"200 683 LINE",
"239 683 LINE",
"239 656 LINE",
"130 656 LINE",
"130 683 LINE",
"169 683 LINE",
"169 793 LINE",
"169 795 LINE",
"169 795 LINE",
"163 787 OFFCURVE",
"155 779 OFFCURVE",
"147 773 CURVE"
);
},
{
closed = 1;
nodes = (
"344 297 LINE SMOOTH",
"344 315 OFFCURVE",
"358 332 OFFCURVE",
"377 332 CURVE SMOOTH",
"872 332 LINE SMOOTH",
"889 332 OFFCURVE",
"904 315 OFFCURVE",
"904 297 CURVE SMOOTH",
"904 250 LINE SMOOTH",
"904 231 OFFCURVE",
"889 217 OFFCURVE",
"872 217 CURVE SMOOTH",
"377 217 LINE SMOOTH",
"358 217 OFFCURVE",
"344 231 OFFCURVE",
"344 250 CURVE SMOOTH"
);
},
{
closed = 1;
nodes = (
"344 534 LINE SMOOTH",
"344 553 OFFCURVE",
"358 568 OFFCURVE",
"377 568 CURVE SMOOTH",
"872 568 LINE SMOOTH",
"889 568 OFFCURVE",
"904 553 OFFCURVE",
"904 534 CURVE SMOOTH",
"904 486 LINE SMOOTH",
"904 467 OFFCURVE",
"889 452 OFFCURVE",
"872 452 CURVE SMOOTH",
"377 452 LINE SMOOTH",
"358 452 OFFCURVE",
"344 467 OFFCURVE",
"344 486 CURVE SMOOTH"
);
},
{
closed = 1;
nodes = (
"344 770 LINE SMOOTH",
"344 789 OFFCURVE",
"358 804 OFFCURVE",
"377 804 CURVE SMOOTH",
"872 804 LINE SMOOTH",
"889 804 OFFCURVE",
"904 789 OFFCURVE",
"904 770 CURVE SMOOTH",
"904 723 LINE SMOOTH",
"904 705 OFFCURVE",
"889 688 OFFCURVE",
"872 688 CURVE SMOOTH",
"377 688 LINE SMOOTH",
"358 688 OFFCURVE",
"344 705 OFFCURVE",
"344 723 CURVE SMOOTH"
);
}
);
width = 1024;
}
);
unicode = F0CB;
},
{
glyphname = uniF0CD;
lastChange = "2012-11-26 13:32:22 +0100";
layers = (
{
layerId = "47E17F20-96EA-4F25-9FDC-A26DCA823BDE";
name = Regular;
paths = (
{
closed = 1;
nodes = (
"0 0 LINE",
"0 154 LINE",
"1536 154 LINE",
"1536 0 LINE"
);
},
{
closed = 1;
nodes = (
"0 1532 LINE",
"7 1533 OFFCURVE",
"13 1534 OFFCURVE",
"20 1534 CURVE SMOOTH",
"26 1534 OFFCURVE",
"32 1534 OFFCURVE",
"39 1534 CURVE SMOOTH",
"87 1534 OFFCURVE",
"134 1532 OFFCURVE",
"180 1529 CURVE SMOOTH",
"225 1526 OFFCURVE",
"271 1524 OFFCURVE",
"317 1524 CURVE SMOOTH",
"450 1524 OFFCURVE",
"585 1527 OFFCURVE",
"717 1532 CURVE",
"714 1521 OFFCURVE",
"714 1509 OFFCURVE",
"716 1496 CURVE SMOOTH",
"718 1482 OFFCURVE",
"719 1469 OFFCURVE",
"719 1458 CURVE SMOOTH",
"719 1450 LINE",
"675 1443 OFFCURVE",
"639 1441 OFFCURVE",
"611 1443 CURVE SMOOTH",
"555 1447 OFFCURVE",
"525 1440 OFFCURVE",
"513 1399 CURVE SMOOTH",
"507 1378 OFFCURVE",
"504 1342 OFFCURVE",
"504 1290 CURVE SMOOTH",
"504 1107 OFFCURVE",
"510 929 OFFCURVE",
"518 745 CURVE SMOOTH",
"529 549 OFFCURVE",
"633 418 OFFCURVE",
"844 418 CURVE SMOOTH",
"1011 418 OFFCURVE",
"1117 458 OFFCURVE",
"1182 536 CURVE SMOOTH",
"1247 614 OFFCURVE",
"1272 732 OFFCURVE",
"1272 885 CURVE SMOOTH",
"1272 912 OFFCURVE",
"1269 976 OFFCURVE",
"1265 1053 CURVE SMOOTH",
"1261 1129 OFFCURVE",
"1253 1216 OFFCURVE",
"1245 1285 CURVE SMOOTH",
"1241 1320 OFFCURVE",
"1237 1349 OFFCURVE",
"1232 1374 CURVE SMOOTH",
"1227 1399 OFFCURVE",
"1222 1414 OFFCURVE",
"1217 1419 CURVE SMOOTH",
"1195 1441 OFFCURVE",
"1169 1452 OFFCURVE",
"1139 1452 CURVE SMOOTH",
"1135 1452 OFFCURVE",
"1127 1452 OFFCURVE",
"1116 1451 CURVE SMOOTH",
"1104 1450 OFFCURVE",
"1092 1450 OFFCURVE",
"1080 1450 CURVE SMOOTH",
"1055 1450 OFFCURVE",
"1032 1451 OFFCURVE",
"1024 1454 CURVE",
"1026 1536 LINE",
"1081 1539 OFFCURVE",
"1135 1538 OFFCURVE",
"1189 1533 CURVE SMOOTH",
"1243 1528 OFFCURVE",
"1298 1526 OFFCURVE",
"1354 1526 CURVE SMOOTH",
"1380 1526 OFFCURVE",
"1406 1528 OFFCURVE",
"1432 1531 CURVE SMOOTH",
"1457 1534 OFFCURVE",
"1484 1536 OFFCURVE",
"1511 1536 CURVE SMOOTH",
"1514 1536 OFFCURVE",
"1517 1536 OFFCURVE",
"1521 1535 CURVE",
"1524 1534 OFFCURVE",
"1527 1534 OFFCURVE",
"1530 1534 CURVE",
"1533 1518 OFFCURVE",
"1536 1501 OFFCURVE",
"1536 1485 CURVE SMOOTH",
"1536 1477 OFFCURVE",
"1535 1467 OFFCURVE",
"1532 1456 CURVE",
"1517 1452 OFFCURVE",
"1499 1449 OFFCURVE",
"1480 1448 CURVE SMOOTH",
"1440 1445 OFFCURVE",
"1400 1440 OFFCURVE",
"1374 1425 CURVE SMOOTH",
"1361 1417 OFFCURVE",
"1354 1404 OFFCURVE",
"1354 1386 CURVE SMOOTH",
"1354 1367 OFFCURVE",
"1355 1351 OFFCURVE",
"1358 1331 CURVE",
"1359 1327 OFFCURVE",
"1361 1314 OFFCURVE",
"1363 1293 CURVE SMOOTH",
"1367 1249 OFFCURVE",
"1369 1185 OFFCURVE",
"1372 1112 CURVE SMOOTH",
"1373 1075 OFFCURVE",
"1375 1041 OFFCURVE",
"1376 1009 CURVE SMOOTH",
"1379 945 OFFCURVE",
"1380 891 OFFCURVE",
"1380 874 CURVE SMOOTH",
"1380 825 OFFCURVE",
"1378 765 OFFCURVE",
"1370 705 CURVE SMOOTH",
"1362 644 OFFCURVE",
"1347 586 OFFCURVE",
"1323 543 CURVE SMOOTH",
"1268 452 OFFCURVE",
"1180 392 OFFCURVE",
"1082 357 CURVE SMOOTH",
"984 321 OFFCURVE",
"873 307 OFFCURVE",
"774 307 CURVE SMOOTH",
"678 307 OFFCURVE",
"580 317 OFFCURVE",
"489 352 CURVE SMOOTH",
"361 399 OFFCURVE",
"293 472 OFFCURVE",
"254 562 CURVE SMOOTH",
"215 652 OFFCURVE",
"211 760 OFFCURVE",
"211 883 CURVE SMOOTH",
"211 1204 LINE SMOOTH",
"211 1212 OFFCURVE",
"211 1226 OFFCURVE",
"211 1246 CURVE SMOOTH",
"211 1286 OFFCURVE",
"210 1332 OFFCURVE",
"205 1369 CURVE SMOOTH",
"200 1406 OFFCURVE",
"191 1421 OFFCURVE",
"158 1431 CURVE SMOOTH",
"125 1441 OFFCURVE",
"85 1444 OFFCURVE",
"48 1444 CURVE SMOOTH",
"29 1444 OFFCURVE",
"15 1445 OFFCURVE",
"4 1448 CURVE"
);
}
);
width = 1536;
}
);
unicode = F0CD;
},
{
glyphname = "uniFB01-";
lastChange = "2012-08-18 23:18:24 +0200";
layers = (
{
layerId = "47E17F20-96EA-4F25-9FDC-A26DCA823BDE";
name = Regular;
paths = (
{
closed = 1;
nodes = (
"911 819 LINE",
"877 819 LINE SMOOTH",
"818 819 OFFCURVE",
"762 804 OFFCURVE",
"709 774 CURVE SMOOTH",
"603 714 OFFCURVE",
"569 667 OFFCURVE",
"485 555 CURVE SMOOTH",
"448 507 OFFCURVE",
"420 472 OFFCURVE",
"401 449 CURVE SMOOTH",
"361 403 OFFCURVE",
"284 348 OFFCURVE",
"211 348 CURVE SMOOTH",
"102 348 LINE",
"102 205 LINE",
"211 205 LINE SMOOTH",
"302 205 OFFCURVE",
"376 233 OFFCURVE",
"445 294 CURVE SMOOTH",
"513 355 OFFCURVE",
"535 385 OFFCURVE",
"600 469 CURVE SMOOTH",
"637 517 OFFCURVE",
"665 553 OFFCURVE",
"685 576 CURVE SMOOTH",
"725 622 OFFCURVE",
"804 676 OFFCURVE",
"877 676 CURVE SMOOTH",
"911 676 LINE",
"911 573 LINE",
"1126 758 LINE",
"911 942 LINE"
);
},
{
closed = 1;
nodes = (
"102 809 LINE",
"102 666 LINE",
"211 666 LINE SMOOTH",
"271 666 OFFCURVE",
"328 639 OFFCURVE",
"381 586 CURVE",
"392 599 OFFCURVE",
"401 610 OFFCURVE",
"406 618 CURVE",
"410 625 OFFCURVE",
"431 652 OFFCURVE",
"469 700 CURVE",
"390 773 OFFCURVE",
"304 809 OFFCURVE",
"211 809 CURVE SMOOTH"
);
},
{
closed = 1;
nodes = (
"911 338 LINE",
"877 338 LINE SMOOTH",
"816 338 OFFCURVE",
"756 368 OFFCURVE",
"696 428 CURVE",
"695 425 OFFCURVE",
"692 422 OFFCURVE",
"688 417 CURVE SMOOTH",
"684 412 OFFCURVE",
"682 409 OFFCURVE",
"682 408 CURVE",
"664 384 OFFCURVE",
"639 352 OFFCURVE",
"608 313 CURVE",
"690 234 OFFCURVE",
"780 194 OFFCURVE",
"877 195 CURVE SMOOTH",
"911 195 LINE",
"911 72 LINE",
"1126 256 LINE",
"911 440 LINE"
);
},
{
closed = 1;
nodes = (
"1383 358 LINE SMOOTH",
"1352 358 OFFCURVE",
"1331 335 OFFCURVE",
"1331 308 CURVE SMOOTH",
"1331 294 OFFCURVE",
"1336 282 OFFCURVE",
"1346 272 CURVE",
"1355 261 OFFCURVE",
"1368 256 OFFCURVE",
"1383 256 CURVE SMOOTH",
"1997 256 LINE SMOOTH",
"2024 256 OFFCURVE",
"2048 280 OFFCURVE",
"2048 308 CURVE SMOOTH",
"2048 335 OFFCURVE",
"2024 358 OFFCURVE",
"1997 358 CURVE SMOOTH"
);
},
{
closed = 1;
nodes = (
"1383 563 LINE SMOOTH",
"1352 563 OFFCURVE",
"1331 539 OFFCURVE",
"1331 512 CURVE SMOOTH",
"1331 499 OFFCURVE",
"1336 487 OFFCURVE",
"1346 477 CURVE",
"1355 466 OFFCURVE",
"1368 461 OFFCURVE",
"1383 461 CURVE SMOOTH",
"1997 461 LINE SMOOTH",
"2024 461 OFFCURVE",
"2048 485 OFFCURVE",
"2048 512 CURVE SMOOTH",
"2048 539 OFFCURVE",
"2024 563 OFFCURVE",
"1997 563 CURVE SMOOTH"
);
},
{
closed = 1;
nodes = (
"1383 768 LINE SMOOTH",
"1352 768 OFFCURVE",
"1331 744 OFFCURVE",
"1331 717 CURVE SMOOTH",
"1331 703 OFFCURVE",
"1336 691 OFFCURVE",
"1346 681 CURVE",
"1355 671 OFFCURVE",
"1368 666 OFFCURVE",
"1383 666 CURVE SMOOTH",
"1997 666 LINE SMOOTH",
"2024 666 OFFCURVE",
"2048 689 OFFCURVE",
"2048 717 CURVE SMOOTH",
"2048 744 OFFCURVE",
"2024 768 OFFCURVE",
"1997 768 CURVE SMOOTH"
);
}
);
width = 2150;
}
);
unicode = FB01-;
},
{
glyphname = "uniFB02-";
lastChange = "2012-08-18 23:18:21 +0200";
layers = (
{
layerId = "47E17F20-96EA-4F25-9FDC-A26DCA823BDE";
name = Regular;
paths = (
{
closed = 1;
nodes = (
"911 819 LINE",
"877 819 LINE SMOOTH",
"818 819 OFFCURVE",
"762 804 OFFCURVE",
"709 774 CURVE SMOOTH",
"603 714 OFFCURVE",
"569 667 OFFCURVE",
"485 555 CURVE SMOOTH",
"448 507 OFFCURVE",
"420 472 OFFCURVE",
"401 449 CURVE SMOOTH",
"361 403 OFFCURVE",
"284 348 OFFCURVE",
"211 348 CURVE SMOOTH",
"102 348 LINE",
"102 205 LINE",
"211 205 LINE SMOOTH",
"302 205 OFFCURVE",
"376 233 OFFCURVE",
"445 294 CURVE SMOOTH",
"513 355 OFFCURVE",
"535 385 OFFCURVE",
"600 469 CURVE SMOOTH",
"637 517 OFFCURVE",
"665 553 OFFCURVE",
"685 576 CURVE SMOOTH",
"725 622 OFFCURVE",
"804 676 OFFCURVE",
"877 676 CURVE SMOOTH",
"911 676 LINE",
"911 573 LINE",
"1126 758 LINE",
"911 942 LINE"
);
},
{
closed = 1;
nodes = (
"102 809 LINE",
"102 666 LINE",
"211 666 LINE SMOOTH",
"271 666 OFFCURVE",
"328 639 OFFCURVE",
"381 586 CURVE",
"392 599 OFFCURVE",
"401 610 OFFCURVE",
"406 618 CURVE",
"410 625 OFFCURVE",
"431 652 OFFCURVE",
"469 700 CURVE",
"390 773 OFFCURVE",
"304 809 OFFCURVE",
"211 809 CURVE SMOOTH"
);
},
{
closed = 1;
nodes = (
"911 338 LINE",
"877 338 LINE SMOOTH",
"816 338 OFFCURVE",
"756 368 OFFCURVE",
"696 428 CURVE",
"695 425 OFFCURVE",
"692 422 OFFCURVE",
"688 417 CURVE SMOOTH",
"684 412 OFFCURVE",
"682 409 OFFCURVE",
"682 408 CURVE",
"664 384 OFFCURVE",
"639 352 OFFCURVE",
"608 313 CURVE",
"690 234 OFFCURVE",
"780 194 OFFCURVE",
"877 195 CURVE SMOOTH",
"911 195 LINE",
"911 72 LINE",
"1126 256 LINE",
"911 440 LINE"
);
},
{
closed = 1;
nodes = (
"1546 356 LINE",
"1546 268 LINE",
"1833 268 LINE",
"1833 356 LINE"
);
},
{
closed = 1;
nodes = (
"1434 973 LINE SMOOTH",
"1377 973 OFFCURVE",
"1331 925 OFFCURVE",
"1331 870 CURVE SMOOTH",
"1331 154 LINE SMOOTH",
"1331 97 OFFCURVE",
"1377 51 OFFCURVE",
"1434 51 CURVE SMOOTH",
"1946 51 LINE SMOOTH",
"2001 51 OFFCURVE",
"2048 97 OFFCURVE",
"2048 154 CURVE SMOOTH",
"2048 870 LINE SMOOTH",
"2048 925 OFFCURVE",
"2001 973 OFFCURVE",
"1946 973 CURVE SMOOTH"
);
},
{
closed = 1;
nodes = (
"1946 154 LINE",
"1434 154 LINE",
"1434 870 LINE",
"1946 870 LINE"
);
},
{
closed = 1;
nodes = (
"1548 559 LINE",
"1548 467 LINE",
"1835 467 LINE",
"1835 559 LINE"
);
},
{
closed = 1;
nodes = (
"1546 760 LINE",
"1546 670 LINE",
"1833 670 LINE",
"1833 760 LINE"
);
}
);
width = 2150;
}
);
unicode = FB02-;
},
{
glyphname = "uniFB03-";
lastChange = "2012-08-18 23:18:18 +0200";
layers = (
{
layerId = "47E17F20-96EA-4F25-9FDC-A26DCA823BDE";
name = Regular;
paths = (
{
closed = 1;
nodes = (
"2140 819 LINE",
"2106 819 LINE SMOOTH",
"2047 819 OFFCURVE",
"1991 804 OFFCURVE",
"1938 774 CURVE SMOOTH",
"1832 714 OFFCURVE",
"1798 667 OFFCURVE",
"1714 555 CURVE SMOOTH",
"1677 507 OFFCURVE",
"1649 472 OFFCURVE",
"1630 449 CURVE SMOOTH",
"1590 403 OFFCURVE",
"1513 348 OFFCURVE",
"1440 348 CURVE SMOOTH",
"1331 348 LINE",
"1331 205 LINE",
"1440 205 LINE SMOOTH",
"1531 205 OFFCURVE",
"1605 233 OFFCURVE",
"1674 294 CURVE SMOOTH",
"1742 355 OFFCURVE",
"1764 385 OFFCURVE",
"1829 469 CURVE SMOOTH",
"1866 517 OFFCURVE",
"1894 553 OFFCURVE",
"1914 576 CURVE SMOOTH",
"1954 622 OFFCURVE",
"2033 676 OFFCURVE",
"2106 676 CURVE SMOOTH",
"2140 676 LINE",
"2140 573 LINE",
"2355 758 LINE",
"2140 942 LINE"
);
},
{
closed = 1;
nodes = (
"102 809 LINE",
"102 666 LINE",
"211 666 LINE SMOOTH",
"271 666 OFFCURVE",
"328 639 OFFCURVE",
"381 586 CURVE",
"392 599 OFFCURVE",
"401 610 OFFCURVE",
"406 618 CURVE",
"410 625 OFFCURVE",
"431 652 OFFCURVE",
"469 700 CURVE",
"390 773 OFFCURVE",
"304 809 OFFCURVE",
"211 809 CURVE SMOOTH"
);
},
{
closed = 1;
nodes = (
"911 338 LINE",
"877 338 LINE SMOOTH",
"816 338 OFFCURVE",
"756 368 OFFCURVE",
"696 428 CURVE",
"695 425 OFFCURVE",
"692 422 OFFCURVE",
"688 417 CURVE SMOOTH",
"684 412 OFFCURVE",
"682 409 OFFCURVE",
"682 408 CURVE",
"664 384 OFFCURVE",
"639 352 OFFCURVE",
"608 313 CURVE",
"690 234 OFFCURVE",
"780 194 OFFCURVE",
"877 195 CURVE SMOOTH",
"911 195 LINE",
"911 72 LINE",
"1126 256 LINE",
"911 440 LINE"
);
},
{
closed = 1;
nodes = (
"911 819 LINE",
"877 819 LINE SMOOTH",
"818 819 OFFCURVE",
"762 804 OFFCURVE",
"709 774 CURVE SMOOTH",
"603 714 OFFCURVE",
"569 667 OFFCURVE",
"485 555 CURVE SMOOTH",
"448 507 OFFCURVE",
"420 472 OFFCURVE",
"401 449 CURVE SMOOTH",
"361 403 OFFCURVE",
"284 348 OFFCURVE",
"211 348 CURVE SMOOTH",
"102 348 LINE",
"102 205 LINE",
"211 205 LINE SMOOTH",
"302 205 OFFCURVE",
"376 233 OFFCURVE",
"445 294 CURVE SMOOTH",
"513 355 OFFCURVE",
"535 385 OFFCURVE",
"600 469 CURVE SMOOTH",
"637 517 OFFCURVE",
"665 553 OFFCURVE",
"685 576 CURVE SMOOTH",
"725 622 OFFCURVE",
"804 676 OFFCURVE",
"877 676 CURVE SMOOTH",
"911 676 LINE",
"911 573 LINE",
"1126 758 LINE",
"911 942 LINE"
);
},
{
closed = 1;
nodes = (
"1331 809 LINE",
"1331 666 LINE",
"1440 666 LINE SMOOTH",
"1500 666 OFFCURVE",
"1557 639 OFFCURVE",
"1610 586 CURVE",
"1621 599 OFFCURVE",
"1630 610 OFFCURVE",
"1635 618 CURVE",
"1639 625 OFFCURVE",
"1660 652 OFFCURVE",
"1698 700 CURVE",
"1619 773 OFFCURVE",
"1533 809 OFFCURVE",
"1440 809 CURVE SMOOTH"
);
},
{
closed = 1;
nodes = (
"2140 338 LINE",
"2106 338 LINE SMOOTH",
"2045 338 OFFCURVE",
"1985 368 OFFCURVE",
"1925 428 CURVE",
"1924 425 OFFCURVE",
"1921 422 OFFCURVE",
"1917 417 CURVE SMOOTH",
"1913 412 OFFCURVE",
"1911 409 OFFCURVE",
"1911 408 CURVE",
"1893 384 OFFCURVE",
"1868 352 OFFCURVE",
"1837 313 CURVE",
"1919 234 OFFCURVE",
"2009 194 OFFCURVE",
"2106 195 CURVE SMOOTH",
"2140 195 LINE",
"2140 72 LINE",
"2355 256 LINE",
"2140 440 LINE"
);
},
{
closed = 1;
nodes = (
"2612 358 LINE SMOOTH",
"2581 358 OFFCURVE",
"2560 335 OFFCURVE",
"2560 308 CURVE SMOOTH",
"2560 294 OFFCURVE",
"2565 282 OFFCURVE",
"2575 272 CURVE",
"2584 261 OFFCURVE",
"2597 256 OFFCURVE",
"2612 256 CURVE SMOOTH",
"3226 256 LINE SMOOTH",
"3253 256 OFFCURVE",
"3277 280 OFFCURVE",
"3277 308 CURVE SMOOTH",
"3277 335 OFFCURVE",
"3253 358 OFFCURVE",
"3226 358 CURVE SMOOTH"
);
},
{
closed = 1;
nodes = (
"2612 563 LINE SMOOTH",
"2581 563 OFFCURVE",
"2560 539 OFFCURVE",
"2560 512 CURVE SMOOTH",
"2560 499 OFFCURVE",
"2565 487 OFFCURVE",
"2575 477 CURVE",
"2584 466 OFFCURVE",
"2597 461 OFFCURVE",
"2612 461 CURVE SMOOTH",
"3226 461 LINE SMOOTH",
"3253 461 OFFCURVE",
"3277 485 OFFCURVE",
"3277 512 CURVE SMOOTH",
"3277 539 OFFCURVE",
"3253 563 OFFCURVE",
"3226 563 CURVE SMOOTH"
);
},
{
closed = 1;
nodes = (
"2612 768 LINE SMOOTH",
"2581 768 OFFCURVE",
"2560 744 OFFCURVE",
"2560 717 CURVE SMOOTH",
"2560 703 OFFCURVE",
"2565 691 OFFCURVE",
"2575 681 CURVE",
"2584 671 OFFCURVE",
"2597 666 OFFCURVE",
"2612 666 CURVE SMOOTH",
"3226 666 LINE SMOOTH",
"3253 666 OFFCURVE",
"3277 689 OFFCURVE",
"3277 717 CURVE SMOOTH",
"3277 744 OFFCURVE",
"3253 768 OFFCURVE",
"3226 768 CURVE SMOOTH"
);
}
);
width = 3379;
}
);
unicode = FB03-;
},
{
glyphname = "uniFB04-";
lastChange = "2012-08-18 23:18:14 +0200";
layers = (
{
layerId = "47E17F20-96EA-4F25-9FDC-A26DCA823BDE";
name = Regular;
paths = (
{
closed = 1;
nodes = (
"2140 819 LINE",
"2106 819 LINE SMOOTH",
"2047 819 OFFCURVE",
"1991 804 OFFCURVE",
"1938 774 CURVE SMOOTH",
"1832 714 OFFCURVE",
"1798 667 OFFCURVE",
"1714 555 CURVE SMOOTH",
"1677 507 OFFCURVE",
"1649 472 OFFCURVE",
"1630 449 CURVE SMOOTH",
"1590 403 OFFCURVE",
"1513 348 OFFCURVE",
"1440 348 CURVE SMOOTH",
"1331 348 LINE",
"1331 205 LINE",
"1440 205 LINE SMOOTH",
"1531 205 OFFCURVE",
"1605 233 OFFCURVE",
"1674 294 CURVE SMOOTH",
"1742 355 OFFCURVE",
"1764 385 OFFCURVE",
"1829 469 CURVE SMOOTH",
"1866 517 OFFCURVE",
"1894 553 OFFCURVE",
"1914 576 CURVE SMOOTH",
"1954 622 OFFCURVE",
"2033 676 OFFCURVE",
"2106 676 CURVE SMOOTH",
"2140 676 LINE",
"2140 573 LINE",
"2355 758 LINE",
"2140 942 LINE"
);
},
{
closed = 1;
nodes = (
"102 809 LINE",
"102 666 LINE",
"211 666 LINE SMOOTH",
"271 666 OFFCURVE",
"328 639 OFFCURVE",
"381 586 CURVE",
"392 599 OFFCURVE",
"401 610 OFFCURVE",
"406 618 CURVE",
"410 625 OFFCURVE",
"431 652 OFFCURVE",
"469 700 CURVE",
"390 773 OFFCURVE",
"304 809 OFFCURVE",
"211 809 CURVE SMOOTH"
);
},
{
closed = 1;
nodes = (
"911 338 LINE",
"877 338 LINE SMOOTH",
"816 338 OFFCURVE",
"756 368 OFFCURVE",
"696 428 CURVE",
"695 425 OFFCURVE",
"692 422 OFFCURVE",
"688 417 CURVE SMOOTH",
"684 412 OFFCURVE",
"682 409 OFFCURVE",
"682 408 CURVE",
"664 384 OFFCURVE",
"639 352 OFFCURVE",
"608 313 CURVE",
"690 234 OFFCURVE",
"780 194 OFFCURVE",
"877 195 CURVE SMOOTH",
"911 195 LINE",
"911 72 LINE",
"1126 256 LINE",
"911 440 LINE"
);
},
{
closed = 1;
nodes = (
"911 819 LINE",
"877 819 LINE SMOOTH",
"818 819 OFFCURVE",
"762 804 OFFCURVE",
"709 774 CURVE SMOOTH",
"603 714 OFFCURVE",
"569 667 OFFCURVE",
"485 555 CURVE SMOOTH",
"448 507 OFFCURVE",
"420 472 OFFCURVE",
"401 449 CURVE SMOOTH",
"361 403 OFFCURVE",
"284 348 OFFCURVE",
"211 348 CURVE SMOOTH",
"102 348 LINE",
"102 205 LINE",
"211 205 LINE SMOOTH",
"302 205 OFFCURVE",
"376 233 OFFCURVE",
"445 294 CURVE SMOOTH",
"513 355 OFFCURVE",
"535 385 OFFCURVE",
"600 469 CURVE SMOOTH",
"637 517 OFFCURVE",
"665 553 OFFCURVE",
"685 576 CURVE SMOOTH",
"725 622 OFFCURVE",
"804 676 OFFCURVE",
"877 676 CURVE SMOOTH",
"911 676 LINE",
"911 573 LINE",
"1126 758 LINE",
"911 942 LINE"
);
},
{
closed = 1;
nodes = (
"1331 809 LINE",
"1331 666 LINE",
"1440 666 LINE SMOOTH",
"1500 666 OFFCURVE",
"1557 639 OFFCURVE",
"1610 586 CURVE",
"1621 599 OFFCURVE",
"1630 610 OFFCURVE",
"1635 618 CURVE",
"1639 625 OFFCURVE",
"1660 652 OFFCURVE",
"1698 700 CURVE",
"1619 773 OFFCURVE",
"1533 809 OFFCURVE",
"1440 809 CURVE SMOOTH"
);
},
{
closed = 1;
nodes = (
"2140 338 LINE",
"2106 338 LINE SMOOTH",
"2045 338 OFFCURVE",
"1985 368 OFFCURVE",
"1925 428 CURVE",
"1924 425 OFFCURVE",
"1921 422 OFFCURVE",
"1917 417 CURVE SMOOTH",
"1913 412 OFFCURVE",
"1911 409 OFFCURVE",
"1911 408 CURVE",
"1893 384 OFFCURVE",
"1868 352 OFFCURVE",
"1837 313 CURVE",
"1919 234 OFFCURVE",
"2009 194 OFFCURVE",
"2106 195 CURVE SMOOTH",
"2140 195 LINE",
"2140 72 LINE",
"2355 256 LINE",
"2140 440 LINE"
);
},
{
closed = 1;
nodes = (
"2775 356 LINE",
"2775 268 LINE",
"3062 268 LINE",
"3062 356 LINE"
);
},
{
closed = 1;
nodes = (
"2663 973 LINE SMOOTH",
"2606 973 OFFCURVE",
"2560 925 OFFCURVE",
"2560 870 CURVE SMOOTH",
"2560 154 LINE SMOOTH",
"2560 97 OFFCURVE",
"2606 51 OFFCURVE",
"2663 51 CURVE SMOOTH",
"3175 51 LINE SMOOTH",
"3230 51 OFFCURVE",
"3277 97 OFFCURVE",
"3277 154 CURVE SMOOTH",
"3277 870 LINE SMOOTH",
"3277 925 OFFCURVE",
"3230 973 OFFCURVE",
"3175 973 CURVE SMOOTH"
);
},
{
closed = 1;
nodes = (
"3175 154 LINE",
"2663 154 LINE",
"2663 870 LINE",
"3175 870 LINE"
);
},
{
closed = 1;
nodes = (
"2777 559 LINE",
"2777 467 LINE",
"3064 467 LINE",
"3064 559 LINE"
);
},
{
closed = 1;
nodes = (
"2775 760 LINE",
"2775 670 LINE",
"3062 670 LINE",
"3062 760 LINE"
);
}
);
width = 3379;
}
);
unicode = FB04-;
},
{
glyphname = Aaui;
lastChange = "2012-06-14 21:09:23 +0200";
layers = (
{
anchors = (
{
name = ogonek;
position = "{1015, 10}";
},
{
name = top;
position = "{564, 1020}";
}
);
layerId = "47E17F20-96EA-4F25-9FDC-A26DCA823BDE";
name = Regular;
paths = (
{
closed = 1;
nodes = (
"723 974 OFFCURVE",
"709 969 OFFCURVE",
"700 958 CURVE",
"563 821 LINE SMOOTH",
"542 800 OFFCURVE",
"530 736 OFFCURVE",
"530 696 CURVE SMOOTH",
"530 683 OFFCURVE",
"531 671 OFFCURVE",
"532 659 CURVE",
"115 242 LINE SMOOTH",
"108 235 OFFCURVE",
"104 225 OFFCURVE",
"104 212 CURVE SMOOTH",
"104 203 OFFCURVE",
"106 194 OFFCURVE",
"109 183 CURVE SMOOTH",
"125 130 OFFCURVE",
"184 73 OFFCURVE",
"236 56 CURVE SMOOTH",
"246 53 OFFCURVE",
"256 50 OFFCURVE",
"265 50 CURVE SMOOTH",
"276 50 OFFCURVE",
"285 53 OFFCURVE",
"293 61 CURVE SMOOTH",
"711 479 LINE",
"723 478 OFFCURVE",
"735 477 OFFCURVE",
"748 477 CURVE SMOOTH",
"791 477 OFFCURVE",
"851 489 OFFCURVE",
"872 510 CURVE SMOOTH",
"1012 649 LINE",
"1022 657 OFFCURVE",
"1027 670 OFFCURVE",
"1027 687 CURVE SMOOTH",
"1027 702 OFFCURVE",
"1023 720 OFFCURVE",
"1016 742 CURVE SMOOTH",
"983 838 OFFCURVE",
"891 930 OFFCURVE",
"796 963 CURVE SMOOTH",
"776 970 OFFCURVE",
"757 974 OFFCURVE",
"741 974 CURVE SMOOTH"
);
},
{
closed = 1;
nodes = (
"561 566 OFFCURVE",
"578 550 OFFCURVE",
"578 525 CURVE SMOOTH",
"578 522 OFFCURVE",
"577 520 OFFCURVE",
"577 517 CURVE SMOOTH",
"572 485 OFFCURVE",
"531 445 OFFCURVE",
"499 445 CURVE",
"476 446 OFFCURVE",
"458 464 OFFCURVE",
"458 487 CURVE SMOOTH",
"458 526 OFFCURVE",
"496 560 OFFCURVE",
"528 565 CURVE SMOOTH",
"531 565 OFFCURVE",
"534 566 OFFCURVE",
"537 566 CURVE SMOOTH"
);
},
{
closed = 1;
nodes = (
"753 923 OFFCURVE",
"758 922 OFFCURVE",
"765 920 CURVE",
"796 911 OFFCURVE",
"854 883 OFFCURVE",
"895 842 CURVE SMOOTH",
"934 803 OFFCURVE",
"965 746 OFFCURVE",
"973 713 CURVE",
"975 703 OFFCURVE",
"976 696 OFFCURVE",
"976 691 CURVE",
"976 690 OFFCURVE",
"976 690 OFFCURVE",
"976 689 CURVE SMOOTH",
"976 685 OFFCURVE",
"974 684 OFFCURVE",
"967 684 CURVE SMOOTH",
"962 684 OFFCURVE",
"955 685 OFFCURVE",
"946 687 CURVE SMOOTH",
"914 694 OFFCURVE",
"854 723 OFFCURVE",
"815 762 CURVE SMOOTH",
"774 803 OFFCURVE",
"745 860 OFFCURVE",
"738 893 CURVE SMOOTH",
"736 902 OFFCURVE",
"735 909 OFFCURVE",
"735 914 CURVE SMOOTH",
"735 922 OFFCURVE",
"737 923 OFFCURVE",
"744 923 CURVE",
"745 923 OFFCURVE",
"747 923 OFFCURVE",
"748 923 CURVE SMOOTH"
);
}
);
width = 1128;
}
);
},
{
glyphname = "Adieresis-";
lastChange = "2012-08-18 23:16:00 +0200";
layers = (
{
layerId = "47E17F20-96EA-4F25-9FDC-A26DCA823BDE";
name = Regular;
paths = (
{
closed = 1;
nodes = (
"566 799 OFFCURVE",
"553 784 OFFCURVE",
"553 758 CURVE SMOOTH",
"553 266 LINE SMOOTH",
"553 240 OFFCURVE",
"566 225 OFFCURVE",
"583 225 CURVE SMOOTH",
"590 225 OFFCURVE",
"598 228 OFFCURVE",
"606 233 CURVE SMOOTH",
"989 487 LINE",
"1004 512 LINE",
"1003 522 OFFCURVE",
"998 530 OFFCURVE",
"989 537 CURVE",
"606 791 LINE SMOOTH",
"598 796 OFFCURVE",
"590 799 OFFCURVE",
"583 799 CURVE SMOOTH"
);
},
{
closed = 1;
nodes = (
"113 800 OFFCURVE",
"102 785 OFFCURVE",
"102 758 CURVE SMOOTH",
"102 266 LINE SMOOTH",
"102 239 OFFCURVE",
"113 224 OFFCURVE",
"130 224 CURVE SMOOTH",
"138 224 OFFCURVE",
"147 227 OFFCURVE",
"156 233 CURVE",
"524 487 LINE",
"539 512 LINE",
"538 522 OFFCURVE",
"533 530 OFFCURVE",
"524 537 CURVE",
"156 791 LINE",
"147 797 OFFCURVE",
"138 800 OFFCURVE",
"130 800 CURVE SMOOTH"
);
}
);
width = 1105;
}
);
},
{
glyphname = "Aring-";
lastChange = "2012-08-18 23:16:02 +0200";
layers = (
{
layerId = "47E17F20-96EA-4F25-9FDC-A26DCA823BDE";
name = Regular;
paths = (
{
closed = 1;
nodes = (
"515 799 OFFCURVE",
"508 796 OFFCURVE",
"500 791 CURVE SMOOTH",
"117 537 LINE",
"102 512 LINE",
"102 503 OFFCURVE",
"107 494 OFFCURVE",
"117 487 CURVE SMOOTH",
"500 233 LINE SMOOTH",
"508 228 OFFCURVE",
"516 225 OFFCURVE",
"523 225 CURVE SMOOTH",
"540 225 OFFCURVE",
"553 240 OFFCURVE",
"553 266 CURVE SMOOTH",
"553 758 LINE SMOOTH",
"553 783 OFFCURVE",
"540 799 OFFCURVE",
"522 799 CURVE SMOOTH"
);
},
{
closed = 1;
nodes = (
"968 799 OFFCURVE",
"959 797 OFFCURVE",
"950 791 CURVE",
"582 537 LINE",
"567 512 LINE",
"567 503 OFFCURVE",
"572 494 OFFCURVE",
"582 487 CURVE SMOOTH",
"950 233 LINE",
"959 227 OFFCURVE",
"968 224 OFFCURVE",
"976 224 CURVE SMOOTH",
"993 224 OFFCURVE",
"1004 239 OFFCURVE",
"1004 266 CURVE SMOOTH",
"1004 758 LINE SMOOTH",
"1004 784 OFFCURVE",
"993 799 OFFCURVE",
"975 799 CURVE SMOOTH"
);
}
);
width = 1105;
}
);
},
{
glyphname = "Atilde-";
lastChange = "2012-08-18 23:15:59 +0200";
layers = (
{
layerId = "47E17F20-96EA-4F25-9FDC-A26DCA823BDE";
name = Regular;
paths = (
{
closed = 1;
nodes = (
"723 974 OFFCURVE",
"709 969 OFFCURVE",
"700 958 CURVE",
"563 821 LINE SMOOTH",
"542 800 OFFCURVE",
"530 736 OFFCURVE",
"530 696 CURVE SMOOTH",
"530 683 OFFCURVE",
"531 671 OFFCURVE",
"532 659 CURVE",
"115 242 LINE SMOOTH",
"108 235 OFFCURVE",
"104 225 OFFCURVE",
"104 212 CURVE SMOOTH",
"104 203 OFFCURVE",
"106 194 OFFCURVE",
"109 183 CURVE SMOOTH",
"125 130 OFFCURVE",
"184 73 OFFCURVE",
"236 56 CURVE SMOOTH",
"246 53 OFFCURVE",
"256 50 OFFCURVE",
"265 50 CURVE SMOOTH",
"276 50 OFFCURVE",
"285 53 OFFCURVE",
"293 61 CURVE SMOOTH",
"711 479 LINE",
"723 478 OFFCURVE",
"735 477 OFFCURVE",
"748 477 CURVE SMOOTH",
"791 477 OFFCURVE",
"851 489 OFFCURVE",
"872 510 CURVE SMOOTH",
"1012 649 LINE",
"1022 657 OFFCURVE",
"1027 670 OFFCURVE",
"1027 687 CURVE SMOOTH",
"1027 702 OFFCURVE",
"1023 720 OFFCURVE",
"1016 742 CURVE SMOOTH",
"983 838 OFFCURVE",
"891 930 OFFCURVE",
"796 963 CURVE SMOOTH",
"776 970 OFFCURVE",
"757 974 OFFCURVE",
"741 974 CURVE SMOOTH"
);
},
{
closed = 1;
nodes = (
"561 566 OFFCURVE",
"578 550 OFFCURVE",
"578 525 CURVE SMOOTH",
"578 522 OFFCURVE",
"577 520 OFFCURVE",
"577 517 CURVE SMOOTH",
"572 485 OFFCURVE",
"531 445 OFFCURVE",
"499 445 CURVE",
"476 446 OFFCURVE",
"458 464 OFFCURVE",
"458 487 CURVE SMOOTH",
"458 526 OFFCURVE",
"496 560 OFFCURVE",
"528 565 CURVE SMOOTH",
"531 565 OFFCURVE",
"534 566 OFFCURVE",
"537 566 CURVE SMOOTH"
);
},
{
closed = 1;
nodes = (
"753 923 OFFCURVE",
"758 922 OFFCURVE",
"765 920 CURVE",
"796 911 OFFCURVE",
"854 883 OFFCURVE",
"895 842 CURVE SMOOTH",
"934 803 OFFCURVE",
"965 746 OFFCURVE",
"973 713 CURVE",
"975 703 OFFCURVE",
"976 696 OFFCURVE",
"976 691 CURVE",
"976 690 OFFCURVE",
"976 690 OFFCURVE",
"976 689 CURVE SMOOTH",
"976 685 OFFCURVE",
"974 684 OFFCURVE",
"967 684 CURVE SMOOTH",
"962 684 OFFCURVE",
"955 685 OFFCURVE",
"946 687 CURVE SMOOTH",
"914 694 OFFCURVE",
"854 723 OFFCURVE",
"815 762 CURVE SMOOTH",
"774 803 OFFCURVE",
"745 860 OFFCURVE",
"738 893 CURVE SMOOTH",
"736 902 OFFCURVE",
"735 909 OFFCURVE",
"735 914 CURVE SMOOTH",
"735 922 OFFCURVE",
"737 923 OFFCURVE",
"744 923 CURVE",
"745 923 OFFCURVE",
"747 923 OFFCURVE",
"748 923 CURVE SMOOTH"
);
},
{
closed = 1;
nodes = (
"440 1761 LINE SMOOTH",
"388 1762 OFFCURVE",
"362 1739 OFFCURVE",
"362 1694 CURVE SMOOTH",
"362 1212 LINE SMOOTH",
"362 1168 OFFCURVE",
"388 1146 OFFCURVE",
"440 1147 CURVE SMOOTH",
"901 1147 LINE SMOOTH",
"952 1146 OFFCURVE",
"977 1168 OFFCURVE",
"977 1212 CURVE SMOOTH",
"977 1694 LINE SMOOTH",
"977 1739 OFFCURVE",
"952 1761 OFFCURVE",
"901 1761 CURVE SMOOTH"
);
}
);
width = 1128;
}
);
},
{
glyphname = "B+-";
lastChange = "2012-11-28 01:19:43 +0100";
layers = (
{
layerId = "47E17F20-96EA-4F25-9FDC-A26DCA823BDE";
name = Regular;
paths = (
{
closed = 1;
nodes = (
"1156 569 OFFCURVE",
"1174 559 OFFCURVE",
"1185 541 CURVE SMOOTH",
"1198 528 OFFCURVE",
"1203 507 OFFCURVE",
"1194 486 CURVE SMOOTH",
"1175 432 OFFCURVE",
"1129 415 OFFCURVE",
"1067 437 CURVE SMOOTH",
"1043 445 LINE",
"1023 393 LINE",
"1056 382 LINE SMOOTH",
"1081 373 OFFCURVE",
"1107 356 OFFCURVE",
"1118 336 CURVE",
"1135 317 OFFCURVE",
"1135 291 OFFCURVE",
"1124 257 CURVE SMOOTH",
"1113 224 OFFCURVE",
"1090 205 OFFCURVE",
"1067 193 CURVE SMOOTH",
"1044 178 OFFCURVE",
"1011 184 OFFCURVE",
"987 193 CURVE SMOOTH",
"937 212 OFFCURVE",
"898 254 OFFCURVE",
"877 281 CURVE",
"876 281 LINE",
"852 215 LINE",
"875 188 OFFCURVE",
"919 158 OFFCURVE",
"970 135 CURVE SMOOTH",
"1021 119 OFFCURVE",
"1063 118 OFFCURVE",
"1104 138 CURVE SMOOTH",
"1136 156 OFFCURVE",
"1168 188 OFFCURVE",
"1188 234 CURVE SMOOTH",
"1199 269 OFFCURVE",
"1203 304 OFFCURVE",
"1185 329 CURVE SMOOTH",
"1170 359 OFFCURVE",
"1150 374 OFFCURVE",
"1128 385 CURVE",
"1130 393 LINE",
"1190 383 OFFCURVE",
"1244 412 OFFCURVE",
"1262 468 CURVE SMOOTH",
"1275 508 OFFCURVE",
"1269 539 OFFCURVE",
"1249 570 CURVE",
"1230 595 OFFCURVE",
"1206 620 OFFCURVE",
"1160 635 CURVE SMOOTH",
"1114 649 OFFCURVE",
"1056 656 OFFCURVE",
"1023 652 CURVE",
"999 585 LINE",
"1003 584 LINE",
"1011 582 OFFCURVE",
"1016 581 OFFCURVE",
"1029 581 CURVE",
"1035 586 OFFCURVE",
"1050 588 OFFCURVE",
"1058 586 CURVE",
"1088 590 OFFCURVE",
"1113 589 OFFCURVE",
"1134 582 CURVE SMOOTH"
);
},
{
closed = 1;
nodes = (
"655 529 LINE",
"688 551 OFFCURVE",
"746 600 OFFCURVE",
"791 640 CURVE SMOOTH",
"819 664 OFFCURVE",
"844 688 OFFCURVE",
"863 713 CURVE",
"880 740 OFFCURVE",
"891 771 OFFCURVE",
"894 809 CURVE SMOOTH",
"902 888 OFFCURVE",
"854 943 OFFCURVE",
"765 951 CURVE SMOOTH",
"723 955 OFFCURVE",
"668 942 OFFCURVE",
"640 935 CURVE",
"634 866 LINE",
"640 865 LINE",
"650 873 OFFCURVE",
"670 882 OFFCURVE",
"687 888 CURVE",
"708 893 OFFCURVE",
"734 898 OFFCURVE",
"756 896 CURVE SMOOTH",
"779 894 OFFCURVE",
"797 883 OFFCURVE",
"812 870 CURVE",
"826 859 OFFCURVE",
"834 836 OFFCURVE",
"831 810 CURVE SMOOTH",
"827 759 OFFCURVE",
"801 725 OFFCURVE",
"722 651 CURVE SMOOTH",
"684 612 OFFCURVE",
"643 583 OFFCURVE",
"598 545 CURVE",
"593 481 LINE",
"884 456 LINE",
"890 509 LINE"
);
},
{
closed = 1;
nodes = (
"531 194 LINE",
"400 938 LINE",
"313 923 LINE",
"323 833 OFFCURVE",
"275 792 OFFCURVE",
"165 773 CURVE",
"178 702 LINE",
"325 728 LINE",
"422 175 LINE",
"275 149 LINE",
"290 65 LINE",
"692 135 LINE",
"678 220 LINE"
);
}
);
width = 1440;
}
);
},
{
glyphname = B2;
lastChange = "2012-06-15 01:02:40 +0200";
layers = (
{
layerId = "47E17F20-96EA-4F25-9FDC-A26DCA823BDE";
name = Regular;
paths = (
{
closed = 1;
nodes = (
"990 62 OFFCURVE",
"1006 81 OFFCURVE",
"1030 163 CURVE",
"1041 222 OFFCURVE",
"1054 263 OFFCURVE",
"1075 287 CURVE SMOOTH",
"1092 310 OFFCURVE",
"1109 323 OFFCURVE",
"1139 323 CURVE SMOOTH",
"1207 323 OFFCURVE",
"1245 427 OFFCURVE",
"1218 504 CURVE SMOOTH",
"1195 547 OFFCURVE",
"1176 569 OFFCURVE",
"1086 607 CURVE",
"952 657 OFFCURVE",
"828 733 OFFCURVE",
"721 828 CURVE SMOOTH",
"705 851 OFFCURVE",
"684 869 OFFCURVE",
"683 883 CURVE SMOOTH",
"670 932 OFFCURVE",
"655 950 OFFCURVE",
"626 952 CURVE SMOOTH",
"596 954 OFFCURVE",
"566 935 OFFCURVE",
"539 896 CURVE",
"450 757 OFFCURVE",
"422 505 OFFCURVE",
"431 377 CURVE SMOOTH",
"444 302 OFFCURVE",
"465 263 OFFCURVE",
"490 255 CURVE SMOOTH",
"502 247 OFFCURVE",
"533 255 OFFCURVE",
"555 270 CURVE",
"566 285 OFFCURVE",
"585 290 OFFCURVE",
"601 292 CURVE",
"668 323 OFFCURVE",
"827 346 OFFCURVE",
"918 346 CURVE SMOOTH",
"948 346 OFFCURVE",
"953 344 OFFCURVE",
"956 340 CURVE SMOOTH",
"960 331 OFFCURVE",
"958 306 OFFCURVE",
"953 270 CURVE",
"949 258 OFFCURVE",
"948 247 OFFCURVE",
"948 243 CURVE SMOOTH",
"948 226 OFFCURVE",
"930 218 OFFCURVE",
"924 208 CURVE",
"916 199 OFFCURVE",
"908 184 OFFCURVE",
"910 174 CURVE",
"916 166 OFFCURVE",
"910 162 OFFCURVE",
"903 140 CURVE SMOOTH",
"890 127 OFFCURVE",
"877 115 OFFCURVE",
"894 92 CURVE",
"897 84 OFFCURVE",
"897 78 OFFCURVE",
"877 72 CURVE",
"873 62 OFFCURVE",
"873 41 OFFCURVE",
"890 40 CURVE",
"906 38 OFFCURVE",
"922 38 OFFCURVE",
"953 41 CURVE SMOOTH"
);
},
{
closed = 1;
nodes = (
"683 493 OFFCURVE",
"720 690 OFFCURVE",
"705 797 CURVE",
"704 811 LINE",
"724 783 LINE",
"751 749 OFFCURVE",
"801 715 OFFCURVE",
"876 672 CURVE SMOOTH",
"930 638 OFFCURVE",
"963 613 OFFCURVE",
"986 593 CURVE SMOOTH",
"998 573 OFFCURVE",
"1004 559 OFFCURVE",
"1006 524 CURVE",
"1014 459 OFFCURVE",
"990 411 OFFCURVE",
"952 384 CURVE",
"930 383 OFFCURVE",
"910 379 OFFCURVE",
"865 377 CURVE",
"785 371 OFFCURVE",
"708 366 OFFCURVE",
"623 331 CURVE",
"606 327 OFFCURVE",
"601 324 OFFCURVE",
"601 323 CURVE",
"596 323 OFFCURVE",
"596 324 OFFCURVE",
"601 327 CURVE",
"602 336 OFFCURVE",
"607 347 OFFCURVE",
"619 366 CURVE"
);
},
{
closed = 1;
nodes = (
"584 494 OFFCURVE",
"590 634 OFFCURVE",
"665 691 CURVE",
"670 700 LINE",
"670 681 LINE",
"668 621 OFFCURVE",
"656 568 OFFCURVE",
"649 505 CURVE",
"645 490 OFFCURVE",
"626 430 OFFCURVE",
"611 404 CURVE",
"602 379 OFFCURVE",
"606 379 OFFCURVE",
"596 416 CURVE"
);
},
{
closed = 1;
nodes = (
"168 389 OFFCURVE",
"149 522 OFFCURVE",
"172 669 CURVE SMOOTH",
"200 812 OFFCURVE",
"259 908 OFFCURVE",
"334 959 CURVE",
"363 977 LINE",
"346 979 OFFCURVE",
"332 973 OFFCURVE",
"286 954 CURVE",
"200 902 OFFCURVE",
"141 827 OFFCURVE",
"120 718 CURVE",
"105 697 OFFCURVE",
"100 660 OFFCURVE",
"100 613 CURVE SMOOTH",
"100 501 OFFCURVE",
"121 451 OFFCURVE",
"163 361 CURVE",
"187 302 OFFCURVE",
"201 270 OFFCURVE",
"214 270 CURVE SMOOTH",
"214 270 OFFCURVE",
"214 270 OFFCURVE",
"213 271 CURVE",
"213 281 OFFCURVE",
"213 287 OFFCURVE",
"212 290 CURVE",
"212 292 OFFCURVE",
"212 300 OFFCURVE",
"201 306 CURVE SMOOTH"
);
},
{
closed = 1;
nodes = (
"249 467 OFFCURVE",
"259 634 OFFCURVE",
"314 758 CURVE SMOOTH",
"334 812 OFFCURVE",
"368 847 OFFCURVE",
"402 870 CURVE",
"422 881 OFFCURVE",
"425 883 OFFCURVE",
"424 883 CURVE",
"422 889 OFFCURVE",
"397 880 OFFCURVE",
"367 862 CURVE",
"263 811 OFFCURVE",
"217 707 OFFCURVE",
"216 607 CURVE SMOOTH",
"214 524 OFFCURVE",
"230 461 OFFCURVE",
"263 394 CURVE SMOOTH",
"279 344 OFFCURVE",
"301 323 OFFCURVE",
"310 323 CURVE SMOOTH",
"310 323 OFFCURVE",
"310 323 OFFCURVE",
"310 324 CURVE SMOOTH",
"310 327 OFFCURVE",
"310 331 OFFCURVE",
"302 335 CURVE SMOOTH",
"301 336 OFFCURVE",
"301 344 OFFCURVE",
"292 346 CURVE"
);
},
{
closed = 1;
nodes = (
"1301 340 OFFCURVE",
"1324 361 OFFCURVE",
"1324 424 CURVE SMOOTH",
"1324 487 OFFCURVE",
"1313 494 OFFCURVE",
"1254 524 CURVE",
"1202 543 LINE",
"1207 541 LINE SMOOTH",
"1230 524 OFFCURVE",
"1232 493 OFFCURVE",
"1232 451 CURVE SMOOTH",
"1232 399 OFFCURVE",
"1227 361 OFFCURVE",
"1195 340 CURVE",
"1183 324 LINE",
"1198 324 LINE",
"1218 327 OFFCURVE",
"1230 327 OFFCURVE",
"1235 327 CURVE"
);
},
{
closed = 1;
nodes = (
"1249 389 OFFCURVE",
"1254 424 OFFCURVE",
"1254 461 CURVE",
"1260 494 LINE",
"1260 493 OFFCURVE",
"1260 492 OFFCURVE",
"1269 491 CURVE",
"1269 490 OFFCURVE",
"1269 467 OFFCURVE",
"1269 449 CURVE",
"1272 426 OFFCURVE",
"1269 404 OFFCURVE",
"1259 384 CURVE SMOOTH",
"1250 361 OFFCURVE",
"1245 354 OFFCURVE",
"1240 354 CURVE SMOOTH",
"1236 354 OFFCURVE",
"1235 354 OFFCURVE",
"1235 358 CURVE"
);
},
{
closed = 1;
nodes = (
"1272 358 OFFCURVE",
"1274 366 OFFCURVE",
"1280 389 CURVE SMOOTH",
"1288 411 OFFCURVE",
"1290 427 OFFCURVE",
"1290 451 CURVE",
"1291 488 LINE",
"1301 487 OFFCURVE",
"1305 463 OFFCURVE",
"1305 436 CURVE SMOOTH",
"1305 399 OFFCURVE",
"1280 360 OFFCURVE",
"1274 358 CURVE"
);
},
{
closed = 1;
nodes = (
"363 449 OFFCURVE",
"364 547 OFFCURVE",
"367 594 CURVE",
"375 690 OFFCURVE",
"424 769 OFFCURVE",
"473 797 CURVE SMOOTH",
"479 799 OFFCURVE",
"480 803 OFFCURVE",
"480 803 CURVE",
"480 811 OFFCURVE",
"479 803 OFFCURVE",
"471 799 CURVE",
"450 796 OFFCURVE",
"424 782 OFFCURVE",
"402 766 CURVE SMOOTH",
"301 681 OFFCURVE",
"302 524 OFFCURVE",
"357 419 CURVE SMOOTH",
"374 377 OFFCURVE",
"386 354 OFFCURVE",
"391 354 CURVE SMOOTH",
"392 354 OFFCURVE",
"391 360 OFFCURVE",
"386 377 CURVE"
);
}
);
width = 1424;
}
);
},
{
glyphname = "C-";
lastChange = "2012-08-18 23:12:26 +0200";
layers = (
{
anchors = (
{
name = bottom;
position = "{595, 0}";
},
{
name = top;
position = "{595, 1020}";
}
);
layerId = "47E17F20-96EA-4F25-9FDC-A26DCA823BDE";
name = Regular;
paths = (
{
closed = 1;
nodes = (
"1042 1025 OFFCURVE",
"1037 1024 OFFCURVE",
"1032 1022 CURVE SMOOTH",
"1018 1017 OFFCURVE",
"1011 1009 OFFCURVE",
"1011 997 CURVE SMOOTH",
"1011 993 OFFCURVE",
"1012 988 OFFCURVE",
"1014 983 CURVE SMOOTH",
"1023 956 OFFCURVE",
"1027 931 OFFCURVE",
"1027 906 CURVE SMOOTH",
"1027 827 OFFCURVE",
"983 755 OFFCURVE",
"895 690 CURVE",
"866 731 LINE SMOOTH",
"855 746 OFFCURVE",
"840 755 OFFCURVE",
"819 758 CURVE",
"657 756 LINE",
"637 755 OFFCURVE",
"619 750 OFFCURVE",
"602 739 CURVE",
"125 401 LINE",
"114 394 OFFCURVE",
"107 383 OFFCURVE",
"104 368 CURVE",
"103 365 OFFCURVE",
"103 361 OFFCURVE",
"103 357 CURVE",
"104 347 OFFCURVE",
"107 338 OFFCURVE",
"113 330 CURVE",
"330 16 LINE",
"339 5 OFFCURVE",
"349 -1 OFFCURVE",
"360 -1 CURVE SMOOTH",
"370 -1 OFFCURVE",
"381 3 OFFCURVE",
"393 12 CURVE SMOOTH",
"870 350 LINE SMOOTH",
"885 361 OFFCURVE",
"897 376 OFFCURVE",
"905 397 CURVE",
"956 557 LINE",
"958 564 OFFCURVE",
"959 571 OFFCURVE",
"959 578 CURVE SMOOTH",
"959 590 OFFCURVE",
"955 602 OFFCURVE",
"948 612 CURVE",
"930 639 LINE",
"987 683 OFFCURVE",
"1031 737 OFFCURVE",
"1062 800 CURVE SMOOTH",
"1079 835 OFFCURVE",
"1087 872 OFFCURVE",
"1087 910 CURVE SMOOTH",
"1087 941 OFFCURVE",
"1082 972 OFFCURVE",
"1071 1004 CURVE SMOOTH",
"1066 1018 OFFCURVE",
"1058 1025 OFFCURVE",
"1046 1025 CURVE SMOOTH"
);
},
{
closed = 1;
nodes = (
"818 676 OFFCURVE",
"834 670 OFFCURVE",
"850 657 CURVE",
"835 649 OFFCURVE",
"826 645 OFFCURVE",
"825 645 CURVE",
"811 637 OFFCURVE",
"806 627 OFFCURVE",
"806 617 CURVE SMOOTH",
"806 601 OFFCURVE",
"821 586 OFFCURVE",
"838 586 CURVE SMOOTH",
"845 586 OFFCURVE",
"849 587 OFFCURVE",
"852 588 CURVE",
"883 606 LINE",
"884 600 OFFCURVE",
"884 594 OFFCURVE",
"884 589 CURVE SMOOTH",
"884 534 OFFCURVE",
"835 509 OFFCURVE",
"803 509 CURVE SMOOTH",
"798 509 OFFCURVE",
"793 509 OFFCURVE",
"788 510 CURVE SMOOTH",
"744 518 OFFCURVE",
"721 557 OFFCURVE",
"721 589 CURVE SMOOTH",
"721 594 OFFCURVE",
"722 600 OFFCURVE",
"723 605 CURVE SMOOTH",
"727 628 OFFCURVE",
"738 646 OFFCURVE",
"756 659 CURVE",
"801 676 LINE"
);
}
);
width = 1189;
}
);
},
{
glyphname = "Ccedilla-";
lastChange = "2012-08-18 23:16:03 +0200";
layers = (
{
layerId = "47E17F20-96EA-4F25-9FDC-A26DCA823BDE";
name = Regular;
paths = (
{
closed = 1;
nodes = (
"684 778 OFFCURVE",
"675 776 OFFCURVE",
"666 770 CURVE SMOOTH",
"293 535 LINE",
"281 512 LINE",
"281 504 OFFCURVE",
"285 496 OFFCURVE",
"293 489 CURVE",
"666 256 LINE SMOOTH",
"675 250 OFFCURVE",
"683 248 OFFCURVE",
"690 248 CURVE SMOOTH",
"706 248 OFFCURVE",
"717 262 OFFCURVE",
"717 287 CURVE SMOOTH",
"717 739 LINE SMOOTH",
"717 764 OFFCURVE",
"707 778 OFFCURVE",
"691 778 CURVE SMOOTH"
);
},
{
closed = 1;
nodes = (
"127 811 OFFCURVE",
"102 791 OFFCURVE",
"102 752 CURVE SMOOTH",
"102 274 LINE SMOOTH",
"102 235 OFFCURVE",
"127 215 OFFCURVE",
"178 215 CURVE SMOOTH",
"230 215 OFFCURVE",
"256 235 OFFCURVE",
"256 274 CURVE SMOOTH",
"256 752 LINE SMOOTH",
"256 791 OFFCURVE",
"230 811 OFFCURVE",
"178 811 CURVE SMOOTH"
);
}
);
width = 819;
}
);
},
{
glyphname = "D-";
lastChange = "2012-08-18 23:12:28 +0200";
layers = (
{
anchors = (
{
name = center;
position = "{614, 510}";
},
{
name = top;
position = "{614, 1020}";
}
);
layerId = "47E17F20-96EA-4F25-9FDC-A26DCA823BDE";
name = Regular;
paths = (
{
closed = 1;
nodes = (
"440 922 LINE SMOOTH",
"419 922 OFFCURVE",
"406 912 OFFCURVE",
"401 893 CURVE",
"369 797 LINE",
"364 778 OFFCURVE",
"350 768 OFFCURVE",
"328 768 CURVE SMOOTH",
"205 768 LINE SMOOTH",
"150 768 OFFCURVE",
"102 721 OFFCURVE",
"102 666 CURVE SMOOTH",
"102 205 LINE SMOOTH",
"102 148 OFFCURVE",
"150 102 OFFCURVE",
"205 102 CURVE SMOOTH",
"1024 102 LINE SMOOTH",
"1081 102 OFFCURVE",
"1126 148 OFFCURVE",
"1126 205 CURVE SMOOTH",
"1126 666 LINE SMOOTH",
"1126 721 OFFCURVE",
"1081 768 OFFCURVE",
"1024 768 CURVE SMOOTH",
"901 768 LINE SMOOTH",
"879 768 OFFCURVE",
"866 778 OFFCURVE",
"862 797 CURVE",
"829 893 LINE",
"825 912 OFFCURVE",
"811 922 OFFCURVE",
"788 922 CURVE SMOOTH"
);
},
{
closed = 1;
nodes = (
"757 717 OFFCURVE",
"870 603 OFFCURVE",
"870 461 CURVE SMOOTH",
"870 319 OFFCURVE",
"757 205 OFFCURVE",
"615 205 CURVE SMOOTH",
"473 205 OFFCURVE",
"358 319 OFFCURVE",
"358 461 CURVE SMOOTH",
"358 532 OFFCURVE",
"383 592 OFFCURVE",
"433 642 CURVE SMOOTH",
"483 692 OFFCURVE",
"544 717 OFFCURVE",
"615 717 CURVE SMOOTH"
);
},
{
closed = 1;
nodes = (
"530 614 OFFCURVE",
"461 545 OFFCURVE",
"461 461 CURVE SMOOTH",
"461 418 OFFCURVE",
"476 382 OFFCURVE",
"506 352 CURVE SMOOTH",
"536 322 OFFCURVE",
"572 307 OFFCURVE",
"615 307 CURVE SMOOTH",
"699 307 OFFCURVE",
"768 376 OFFCURVE",
"768 461 CURVE SMOOTH",
"768 545 OFFCURVE",
"699 614 OFFCURVE",
"615 614 CURVE SMOOTH"
);
},
{
closed = 1;
nodes = (
"1012 666 OFFCURVE",
"1024 654 OFFCURVE",
"1024 629 CURVE SMOOTH",
"1024 609 OFFCURVE",
"1009 594 OFFCURVE",
"990 594 CURVE SMOOTH",
"970 594 OFFCURVE",
"952 609 OFFCURVE",
"952 629 CURVE SMOOTH",
"952 638 OFFCURVE",
"956 647 OFFCURVE",
"964 655 CURVE SMOOTH",
"971 662 OFFCURVE",
"980 666 OFFCURVE",
"989 666 CURVE SMOOTH"
);
}
);
width = 1228;
}
);
},
{
glyphname = "Eacute-";
lastChange = "2012-08-18 23:16:06 +0200";
layers = (
{
layerId = "47E17F20-96EA-4F25-9FDC-A26DCA823BDE";
name = Regular;
paths = (
{
closed = 1;
nodes = (
"112 777 OFFCURVE",
"102 764 OFFCURVE",
"102 739 CURVE SMOOTH",
"102 285 LINE SMOOTH",
"102 260 OFFCURVE",
"113 247 OFFCURVE",
"128 247 CURVE SMOOTH",
"135 247 OFFCURVE",
"143 250 OFFCURVE",
"152 256 CURVE",
"524 489 LINE",
"537 512 LINE",
"536 521 OFFCURVE",
"532 528 OFFCURVE",
"524 535 CURVE",
"152 768 LINE",
"143 774 OFFCURVE",
"135 777 OFFCURVE",
"128 777 CURVE SMOOTH"
);
},
{
closed = 1;
nodes = (
"588 809 OFFCURVE",
"563 789 OFFCURVE",
"563 750 CURVE SMOOTH",
"563 274 LINE SMOOTH",
"563 235 OFFCURVE",
"588 215 OFFCURVE",
"639 215 CURVE SMOOTH",
"691 215 OFFCURVE",
"717 235 OFFCURVE",
"717 274 CURVE SMOOTH",
"717 750 LINE SMOOTH",
"717 789 OFFCURVE",
"691 809 OFFCURVE",
"639 809 CURVE SMOOTH"
);
}
);
width = 819;
}
);
},
{
glyphname = "Ecircumflex-";
lastChange = "2012-08-18 23:16:08 +0200";
layers = (
{
layerId = "47E17F20-96EA-4F25-9FDC-A26DCA823BDE";
name = Regular;
paths = (
{
closed = 1;
nodes = (
"351 2089 OFFCURVE",
"139 1878 OFFCURVE",
"139 1618 CURVE SMOOTH",
"139 1488 OFFCURVE",
"185 1377 OFFCURVE",
"278 1285 CURVE SMOOTH",
"370 1193 OFFCURVE",
"481 1147 OFFCURVE",
"611 1147 CURVE SMOOTH",
"870 1147 OFFCURVE",
"1081 1358 OFFCURVE",
"1081 1618 CURVE SMOOTH",
"1081 1878 OFFCURVE",
"870 2089 OFFCURVE",
"611 2089 CURVE SMOOTH"
);
},
{
closed = 1;
nodes = (
"752 865 OFFCURVE",
"771 793 OFFCURVE",
"771 716 CURVE SMOOTH",
"771 695 OFFCURVE",
"770 675 OFFCURVE",
"767 654 CURVE SMOOTH",
"742 454 OFFCURVE",
"581 292 OFFCURVE",
"380 267 CURVE SMOOTH",
"359 264 OFFCURVE",
"338 263 OFFCURVE",
"318 263 CURVE SMOOTH",
"241 264 OFFCURVE",
"169 283 OFFCURVE",
"102 322 CURVE",
"124 285 OFFCURVE",
"149 252 OFFCURVE",
"178 223 CURVE SMOOTH",
"265 136 OFFCURVE",
"371 92 OFFCURVE",
"495 92 CURVE SMOOTH",
"742 92 OFFCURVE",
"942 295 OFFCURVE",
"942 541 CURVE SMOOTH",
"942 664 OFFCURVE",
"898 769 OFFCURVE",
"811 858 CURVE SMOOTH",
"782 887 OFFCURVE",
"750 911 OFFCURVE",
"713 932 CURVE"
);
},
{
closed = 1;
nodes = (
"695 1976 OFFCURVE",
"771 1949 OFFCURVE",
"836 1894 CURVE",
"332 1391 LINE",
"279 1455 OFFCURVE",
"252 1531 OFFCURVE",
"252 1618 CURVE SMOOTH",
"252 1818 OFFCURVE",
"410 1976 OFFCURVE",
"610 1976 CURVE SMOOTH"
);
},
{
closed = 1;
nodes = (
"942 1780 OFFCURVE",
"969 1704 OFFCURVE",
"969 1618 CURVE SMOOTH",
"969 1518 OFFCURVE",
"934 1433 OFFCURVE",
"863 1364 CURVE SMOOTH",
"790 1292 OFFCURVE",
"699 1259 OFFCURVE",
"611 1259 CURVE SMOOTH",
"528 1259 OFFCURVE",
"447 1287 OFFCURVE",
"383 1339 CURVE",
"887 1845 LINE"
);
}
);
width = 1046;
}
);
},
{
glyphname = "Egrave-";
lastChange = "2012-08-18 23:16:05 +0200";
layers = (
{
layerId = "47E17F20-96EA-4F25-9FDC-A26DCA823BDE";
name = Regular;
paths = (
{
closed = 1;
nodes = (
"408 2086 OFFCURVE",
"199 1872 OFFCURVE",
"202 1612 CURVE SMOOTH",
"207 1352 OFFCURVE",
"420 1144 OFFCURVE",
"680 1147 CURVE SMOOTH",
"939 1152 OFFCURVE",
"1148 1365 OFFCURVE",
"1145 1625 CURVE SMOOTH",
"1141 1884 OFFCURVE",
"927 2094 OFFCURVE",
"667 2089 CURVE SMOOTH"
);
},
{
closed = 1;
nodes = (
"752 865 OFFCURVE",
"771 793 OFFCURVE",
"771 716 CURVE SMOOTH",
"771 695 OFFCURVE",
"770 675 OFFCURVE",
"767 654 CURVE SMOOTH",
"742 454 OFFCURVE",
"581 292 OFFCURVE",
"380 267 CURVE SMOOTH",
"359 264 OFFCURVE",
"338 263 OFFCURVE",
"318 263 CURVE SMOOTH",
"241 264 OFFCURVE",
"169 283 OFFCURVE",
"102 322 CURVE",
"124 285 OFFCURVE",
"149 252 OFFCURVE",
"178 223 CURVE SMOOTH",
"265 136 OFFCURVE",
"371 92 OFFCURVE",
"495 92 CURVE SMOOTH",
"742 92 OFFCURVE",
"942 295 OFFCURVE",
"942 541 CURVE SMOOTH",
"942 664 OFFCURVE",
"898 769 OFFCURVE",
"811 858 CURVE SMOOTH",
"782 887 OFFCURVE",
"750 911 OFFCURVE",
"713 932 CURVE"
);
},
{
closed = 1;
nodes = (
"739 1718 OFFCURVE",
"749 1705 OFFCURVE",
"749 1678 CURVE SMOOTH",
"749 1663 OFFCURVE",
"746 1644 OFFCURVE",
"739 1620 CURVE SMOOTH",
"696 1458 LINE",
"694 1448 OFFCURVE",
"693 1439 OFFCURVE",
"693 1433 CURVE SMOOTH",
"693 1424 OFFCURVE",
"695 1419 OFFCURVE",
"700 1419 CURVE SMOOTH",
"717 1419 OFFCURVE",
"741 1431 OFFCURVE",
"774 1456 CURVE",
"792 1432 LINE",
"721 1360 OFFCURVE",
"639 1323 OFFCURVE",
"598 1323 CURVE SMOOTH",
"568 1323 OFFCURVE",
"554 1340 OFFCURVE",
"554 1374 CURVE SMOOTH",
"554 1390 OFFCURVE",
"557 1409 OFFCURVE",
"563 1432 CURVE SMOOTH",
"602 1585 LINE",
"605 1597 OFFCURVE",
"606 1605 OFFCURVE",
"606 1611 CURVE SMOOTH",
"606 1617 OFFCURVE",
"605 1620 OFFCURVE",
"602 1620 CURVE SMOOTH",
"581 1620 OFFCURVE",
"555 1608 OFFCURVE",
"524 1585 CURVE",
"508 1614 LINE",
"584 1677 OFFCURVE",
"678 1718 OFFCURVE",
"719 1718 CURVE SMOOTH"
);
},
{
closed = 1;
nodes = (
"762 1931 OFFCURVE",
"782 1911 OFFCURVE",
"782 1872 CURVE SMOOTH",
"782 1831 OFFCURVE",
"748 1796 OFFCURVE",
"696 1796 CURVE SMOOTH",
"654 1796 OFFCURVE",
"630 1815 OFFCURVE",
"630 1850 CURVE SMOOTH",
"630 1852 OFFCURVE",
"630 1854 OFFCURVE",
"630 1856 CURVE",
"630 1895 OFFCURVE",
"664 1931 OFFCURVE",
"721 1931 CURVE SMOOTH"
);
}
);
width = 1046;
}
);
},
{
glyphname = "F---";
lastChange = "2012-09-21 13:54:03 +0200";
layers = (
{
anchors = (
{
name = top;
position = "{643, 0}";
}
);
layerId = "47E17F20-96EA-4F25-9FDC-A26DCA823BDE";
name = Regular;
paths = (
{
closed = 1;
nodes = (
"658 898 OFFCURVE",
"616 881 OFFCURVE",
"568 889 CURVE SMOOTH",
"520 898 OFFCURVE",
"485 928 OFFCURVE",
"464 979 CURVE",
"440 979 OFFCURVE",
"414 970 OFFCURVE",
"389 964 CURVE",
"387 950 OFFCURVE",
"387 942 OFFCURVE",
"385 931 CURVE SMOOTH",
"372 860 OFFCURVE",
"304 812 OFFCURVE",
"238 824 CURVE SMOOTH",
"228 825 OFFCURVE",
"221 829 OFFCURVE",
"212 832 CURVE",
"196 810 OFFCURVE",
"179 788 OFFCURVE",
"170 765 CURVE",
"210 730 OFFCURVE",
"229 690 OFFCURVE",
"221 646 CURVE SMOOTH",
"212 594 OFFCURVE",
"180 561 OFFCURVE",
"131 543 CURVE",
"131 517 OFFCURVE",
"140 492 OFFCURVE",
"147 464 CURVE",
"160 465 OFFCURVE",
"173 465 OFFCURVE",
"184 464 CURVE SMOOTH",
"216 458 OFFCURVE",
"241 441 OFFCURVE",
"260 413 CURVE SMOOTH",
"278 386 OFFCURVE",
"285 356 OFFCURVE",
"279 325 CURVE SMOOTH",
"277 313 OFFCURVE",
"273 303 OFFCURVE",
"270 290 CURVE",
"291 274 OFFCURVE",
"313 259 OFFCURVE",
"336 248 CURVE",
"372 289 OFFCURVE",
"416 306 OFFCURVE",
"464 297 CURVE SMOOTH",
"512 289 OFFCURVE",
"547 258 OFFCURVE",
"567 207 CURVE",
"592 210 OFFCURVE",
"617 216 OFFCURVE",
"644 224 CURVE",
"644 238 OFFCURVE",
"643 248 OFFCURVE",
"646 261 CURVE SMOOTH",
"651 292 OFFCURVE",
"667 318 OFFCURVE",
"693 337 CURVE",
"727 361 OFFCURVE",
"760 368 OFFCURVE",
"793 362 CURVE SMOOTH",
"801 361 OFFCURVE",
"811 359 OFFCURVE",
"820 355 CURVE",
"835 375 OFFCURVE",
"850 398 OFFCURVE",
"862 422 CURVE",
"821 458 OFFCURVE",
"803 497 OFFCURVE",
"811 542 CURVE SMOOTH",
"819 586 OFFCURVE",
"849 617 OFFCURVE",
"899 636 CURVE",
"897 664 OFFCURVE",
"891 689 OFFCURVE",
"883 714 CURVE",
"873 713 OFFCURVE",
"863 713 OFFCURVE",
"855 715 CURVE SMOOTH",
"788 727 OFFCURVE",
"742 795 OFFCURVE",
"754 866 CURVE SMOOTH",
"756 876 OFFCURVE",
"758 884 OFFCURVE",
"763 898 CURVE",
"740 913 OFFCURVE",
"719 930 OFFCURVE",
"696 938 CURVE"
);
},
{
closed = 1;
nodes = (
"634 735 OFFCURVE",
"691 654 OFFCURVE",
"676 566 CURVE SMOOTH",
"660 476 OFFCURVE",
"578 419 OFFCURVE",
"489 435 CURVE SMOOTH",
"401 451 OFFCURVE",
"341 532 OFFCURVE",
"357 622 CURVE SMOOTH",
"365 666 OFFCURVE",
"387 700 OFFCURVE",
"423 726 CURVE SMOOTH",
"461 751 OFFCURVE",
"500 759 OFFCURVE",
"545 751 CURVE SMOOTH"
);
},
{
closed = 1;
nodes = (
"1223 181 OFFCURVE",
"1231 203 OFFCURVE",
"1248 223 CURVE SMOOTH",
"1266 242 OFFCURVE",
"1284 254 OFFCURVE",
"1309 256 CURVE",
"1300 352 LINE",
"1287 348 OFFCURVE",
"1270 351 OFFCURVE",
"1255 361 CURVE SMOOTH",
"1232 372 OFFCURVE",
"1215 389 OFFCURVE",
"1207 414 CURVE SMOOTH",
"1198 437 OFFCURVE",
"1200 461 OFFCURVE",
"1210 484 CURVE",
"1123 524 LINE",
"1116 508 OFFCURVE",
"1104 496 OFFCURVE",
"1093 487 CURVE SMOOTH",
"1073 472 OFFCURVE",
"1047 468 OFFCURVE",
"1025 471 CURVE SMOOTH",
"997 476 OFFCURVE",
"976 489 OFFCURVE",
"962 509 CURVE",
"884 456 LINE",
"892 440 OFFCURVE",
"898 428 OFFCURVE",
"900 409 CURVE SMOOTH",
"902 386 OFFCURVE",
"897 363 OFFCURVE",
"880 344 CURVE SMOOTH",
"863 324 OFFCURVE",
"842 311 OFFCURVE",
"817 310 CURVE",
"825 213 LINE",
"841 217 OFFCURVE",
"858 210 OFFCURVE",
"871 204 CURVE SMOOTH",
"896 194 OFFCURVE",
"911 176 OFFCURVE",
"921 154 CURVE SMOOTH",
"931 128 OFFCURVE",
"927 106 OFFCURVE",
"917 83 CURVE",
"1003 42 LINE",
"1013 56 OFFCURVE",
"1022 68 OFFCURVE",
"1035 79 CURVE SMOOTH",
"1054 93 OFFCURVE",
"1078 99 OFFCURVE",
"1105 94 CURVE SMOOTH",
"1130 89 OFFCURVE",
"1150 75 OFFCURVE",
"1163 55 CURVE",
"1243 110 LINE",
"1235 125 OFFCURVE",
"1228 139 OFFCURVE",
"1225 154 CURVE SMOOTH"
);
},
{
closed = 1;
nodes = (
"1070 179 OFFCURVE",
"1046 181 OFFCURVE",
"1022 194 CURVE SMOOTH",
"998 204 OFFCURVE",
"979 222 OFFCURVE",
"969 250 CURVE",
"960 274 OFFCURVE",
"963 299 OFFCURVE",
"975 325 CURVE SMOOTH",
"985 349 OFFCURVE",
"1003 368 OFFCURVE",
"1030 375 CURVE SMOOTH",
"1054 385 OFFCURVE",
"1080 384 OFFCURVE",
"1105 372 CURVE SMOOTH",
"1131 360 OFFCURVE",
"1148 342 OFFCURVE",
"1158 318 CURVE",
"1167 291 OFFCURVE",
"1165 265 OFFCURVE",
"1153 241 CURVE SMOOTH",
"1141 216 OFFCURVE",
"1124 199 OFFCURVE",
"1100 189 CURVE SMOOTH"
);
}
);
width = 1440;
}
);
},
{
glyphname = "G-";
lastChange = "2012-08-18 23:12:32 +0200";
layers = (
{
anchors = (
{
name = bottom;
position = "{585, 0}";
},
{
name = top;
position = "{585, 1020}";
}
);
layerId = "47E17F20-96EA-4F25-9FDC-A26DCA823BDE";
name = Regular;
paths = (
{
closed = 1;
nodes = (
"408 892 OFFCURVE",
"164 776 OFFCURVE",
"164 505 CURVE SMOOTH",
"164 486 OFFCURVE",
"165 466 OFFCURVE",
"168 446 CURVE",
"261 558 OFFCURVE",
"400 643 OFFCURVE",
"498 677 CURVE SMOOTH",
"596 711 OFFCURVE",
"720 729 OFFCURVE",
"756 730 CURVE SMOOTH",
"774 731 OFFCURVE",
"788 731 OFFCURVE",
"799 731 CURVE",
"741 711 LINE SMOOTH",
"668 683 OFFCURVE",
"543 617 OFFCURVE",
"418 535 CURVE SMOOTH",
"293 453 OFFCURVE",
"164 316 OFFCURVE",
"104 180 CURVE",
"103 177 OFFCURVE",
"102 173 OFFCURVE",
"102 170 CURVE SMOOTH",
"102 158 OFFCURVE",
"112 148 OFFCURVE",
"131 139 CURVE",
"140 135 OFFCURVE",
"150 132 OFFCURVE",
"158 132 CURVE SMOOTH",
"167 132 OFFCURVE",
"175 136 OFFCURVE",
"180 147 CURVE SMOOTH",
"211 216 OFFCURVE",
"250 275 OFFCURVE",
"295 326 CURVE",
"375 295 OFFCURVE",
"447 280 OFFCURVE",
"511 280 CURVE SMOOTH",
"579 280 OFFCURVE",
"637 297 OFFCURVE",
"686 332 CURVE SMOOTH",
"757 381 OFFCURVE",
"815 487 OFFCURVE",
"849 573 CURVE SMOOTH",
"883 659 OFFCURVE",
"959 764 OFFCURVE",
"1063 819 CURVE",
"1066 821 OFFCURVE",
"1067 823 OFFCURVE",
"1067 825 CURVE SMOOTH",
"1067 826 OFFCURVE",
"1066 828 OFFCURVE",
"1065 829 CURVE",
"1026 872 OFFCURVE",
"798 892 OFFCURVE",
"691 892 CURVE SMOOTH"
);
}
);
width = 1169;
}
);
},
{
glyphname = "H-";
lastChange = "2012-08-18 23:12:34 +0200";
layers = (
{
anchors = (
{
name = center;
position = "{400, 510}";
},
{
name = top;
position = "{400, 1020}";
}
);
layerId = "47E17F20-96EA-4F25-9FDC-A26DCA823BDE";
name = Regular;
paths = (
{
closed = 1;
nodes = (
"412 993 LINE",
"412 324 LINE",
"388 333 OFFCURVE",
"363 338 OFFCURVE",
"337 338 CURVE SMOOTH",
"281 339 OFFCURVE",
"186 312 OFFCURVE",
"131 232 CURVE SMOOTH",
"113 205 OFFCURVE",
"104 179 OFFCURVE",
"104 153 CURVE SMOOTH",
"104 140 OFFCURVE",
"106 128 OFFCURVE",
"111 115 CURVE SMOOTH",
"126 77 OFFCURVE",
"157 51 OFFCURVE",
"202 38 CURVE SMOOTH",
"221 33 OFFCURVE",
"240 30 OFFCURVE",
"259 30 CURVE SMOOTH",
"288 30 OFFCURVE",
"317 36 OFFCURVE",
"348 47 CURVE SMOOTH",
"436 80 OFFCURVE",
"497 149 OFFCURVE",
"494 217 CURVE",
"494 764 LINE",
"559 753 OFFCURVE",
"609 701 OFFCURVE",
"623 648 CURVE SMOOTH",
"631 616 OFFCURVE",
"637 582 OFFCURVE",
"637 554 CURVE SMOOTH",
"637 535 OFFCURVE",
"634 520 OFFCURVE",
"629 510 CURVE",
"629 508 OFFCURVE",
"628 505 OFFCURVE",
"628 503 CURVE SMOOTH",
"628 500 OFFCURVE",
"629 498 OFFCURVE",
"629 496 CURVE",
"630 491 OFFCURVE",
"633 489 OFFCURVE",
"635 489 CURVE SMOOTH",
"640 489 OFFCURVE",
"647 496 OFFCURVE",
"655 510 CURVE SMOOTH",
"684 561 OFFCURVE",
"698 604 OFFCURVE",
"698 639 CURVE SMOOTH",
"698 710 OFFCURVE",
"646 785 OFFCURVE",
"595 834 CURVE SMOOTH",
"544 882 OFFCURVE",
"494 944 OFFCURVE",
"494 993 CURVE"
);
}
);
width = 800;
}
);
},
{
glyphname = "J-";
lastChange = "2012-08-18 23:12:37 +0200";
layers = (
{
anchors = (
{
name = top;
position = "{614, 1020}";
}
);
layerId = "47E17F20-96EA-4F25-9FDC-A26DCA823BDE";
name = Regular;
paths = (
{
closed = 1;
nodes = (
"375 993 LINE",
"502 584 LINE",
"319 584 LINE",
"205 686 LINE",
"102 686 LINE",
"184 512 LINE",
"102 338 LINE",
"205 338 LINE",
"319 440 LINE",
"502 440 LINE",
"375 31 LINE",
"477 31 LINE",
"707 440 LINE",
"973 440 LINE",
"1012 442 LINE SMOOTH",
"1061 445 OFFCURVE",
"1126 468 OFFCURVE",
"1126 512 CURVE SMOOTH",
"1126 539 OFFCURVE",
"1101 559 OFFCURVE",
"1074 568 CURVE SMOOTH",
"1046 577 OFFCURVE",
"1002 584 OFFCURVE",
"989 584 CURVE SMOOTH",
"707 584 LINE",
"477 993 LINE"
);
}
);
width = 1228;
}
);
},
{
glyphname = "M-";
lastChange = "2012-08-18 23:14:11 +0200";
layers = (
{
anchors = (
{
name = bottom;
position = "{523, 0}";
},
{
name = ogonek;
position = "{941, 10}";
},
{
name = top;
position = "{523, 1020}";
}
);
layerId = "47E17F20-96EA-4F25-9FDC-A26DCA823BDE";
name = Regular;
paths = (
{
closed = 1;
nodes = (
"752 865 OFFCURVE",
"771 793 OFFCURVE",
"771 716 CURVE SMOOTH",
"771 695 OFFCURVE",
"770 675 OFFCURVE",
"767 654 CURVE SMOOTH",
"742 454 OFFCURVE",
"581 292 OFFCURVE",
"380 267 CURVE SMOOTH",
"359 264 OFFCURVE",
"338 263 OFFCURVE",
"318 263 CURVE SMOOTH",
"241 264 OFFCURVE",
"169 283 OFFCURVE",
"102 322 CURVE",
"124 285 OFFCURVE",
"149 252 OFFCURVE",
"178 223 CURVE SMOOTH",
"265 136 OFFCURVE",
"371 92 OFFCURVE",
"495 92 CURVE SMOOTH",
"742 92 OFFCURVE",
"942 295 OFFCURVE",
"942 541 CURVE SMOOTH",
"942 664 OFFCURVE",
"898 769 OFFCURVE",
"811 858 CURVE SMOOTH",
"782 887 OFFCURVE",
"750 911 OFFCURVE",
"713 932 CURVE"
);
}
);
width = 1046;
}
);
},
{
glyphname = "N-";
lastChange = "2012-08-18 23:14:13 +0200";
layers = (
{
anchors = (
{
name = bottom;
position = "{573, 0}";
},
{
name = top;
position = "{573, 1020}";
}
);
layerId = "47E17F20-96EA-4F25-9FDC-A26DCA823BDE";
name = Regular;
paths = (
{
closed = 1;
nodes = (
"314 983 OFFCURVE",
"102 772 OFFCURVE",
"102 512 CURVE SMOOTH",
"102 382 OFFCURVE",
"148 271 OFFCURVE",
"241 179 CURVE SMOOTH",
"333 87 OFFCURVE",
"444 41 OFFCURVE",
"574 41 CURVE SMOOTH",
"833 41 OFFCURVE",
"1044 252 OFFCURVE",
"1044 512 CURVE SMOOTH",
"1044 772 OFFCURVE",
"833 983 OFFCURVE",
"574 983 CURVE SMOOTH"
);
},
{
closed = 1;
nodes = (
"776 881 OFFCURVE",
"942 715 OFFCURVE",
"942 512 CURVE SMOOTH",
"942 309 OFFCURVE",
"776 143 OFFCURVE",
"573 143 CURVE SMOOTH",
"369 143 OFFCURVE",
"205 309 OFFCURVE",
"205 512 CURVE SMOOTH",
"205 613 OFFCURVE",
"241 700 OFFCURVE",
"312 773 CURVE SMOOTH",
"383 845 OFFCURVE",
"470 881 OFFCURVE",
"573 881 CURVE SMOOTH"
);
},
{
closed = 1;
nodes = (
"537 778 LINE",
"537 498 LINE",
"711 324 LINE",
"762 373 LINE",
"608 526 LINE",
"608 778 LINE"
);
}
);
width = 1146;
}
);
},
{
glyphname = "Ntilde-";
lastChange = "2012-08-18 23:16:09 +0200";
layers = (
{
layerId = "47E17F20-96EA-4F25-9FDC-A26DCA823BDE";
name = Regular;
paths = (
{
closed = 1;
nodes = (
"639 899 LINE",
"719 819 LINE",
"573 672 LINE",
"676 569 LINE",
"821 717 LINE",
"901 635 LINE",
"922 922 LINE"
);
},
{
closed = 1;
nodes = (
"205 307 LINE",
"125 389 LINE",
"102 102 LINE",
"385 125 LINE",
"305 205 LINE",
"451 352 LINE",
"348 455 LINE"
);
}
);
width = 1024;
}
);
},
